<?xml version="1.0" encoding="UTF-8" standalone="no"?>
<!-- Generator: Adobe Illustrator 16.0.4, SVG Export Plug-In . SVG Version: 6.00 Build 0)  -->

<svg
   xmlns:dc="http://purl.org/dc/elements/1.1/"
   xmlns:cc="http://creativecommons.org/ns#"
   xmlns:rdf="http://www.w3.org/1999/02/22-rdf-syntax-ns#"
   xmlns:svg="http://www.w3.org/2000/svg"
   xmlns="http://www.w3.org/2000/svg"
   xmlns:sodipodi="http://sodipodi.sourceforge.net/DTD/sodipodi-0.dtd"
   xmlns:inkscape="http://www.inkscape.org/namespaces/inkscape"
   version="1.1"
   x="0px"
   y="0px"
   width="94.09375"
   height="123.0625"
   viewBox="0 0 94.09375 123.0625"
   enable-background="new 0 0 200 200"
   xml:space="preserve"
   id="svg2"
   inkscape:version="0.48.4 r9939"
   sodipodi:docname="marker_red.svg"><metadata
     id="metadata18"><rdf:RDF><cc:Work
         rdf:about=""><dc:format>image/svg+xml</dc:format><dc:type
           rdf:resource="http://purl.org/dc/dcmitype/StillImage" /></cc:Work></rdf:RDF></metadata><defs
     id="defs16" /><sodipodi:namedview
     pagecolor="#ffffff"
     bordercolor="#666666"
     borderopacity="1"
     objecttolerance="10"
     gridtolerance="10"
     guidetolerance="10"
     inkscape:pageopacity="0"
     inkscape:pageshadow="2"
     inkscape:window-width="1855"
     inkscape:window-height="1056"
     id="namedview14"
     showgrid="false"
     fit-margin-top="0"
     fit-margin-left="0"
     fit-margin-right="0"
     fit-margin-bottom="0"
     inkscape:zoom="1.18"
     inkscape:cx="46.90625"
     inkscape:cy="61.375"
     inkscape:window-x="1665"
     inkscape:window-y="24"
     inkscape:window-maximized="1"
     inkscape:current-layer="svg2" /><g
     id="Ebene_1"
     transform="translate(-53.09375,-38.3125)"><g
       id="g5"><path
         stroke-miterlimit="10"
         d="m 132.825,102.062 c -0.098,-22.499 -17.619,-40.74 -39.362,-40.74 -21.743,0 -39.363,18.241 -39.363,40.74 0,29.122 39.298,58.068 39.298,58.068 0,0 39.555,-28.945 39.427,-58.068 z"
         id="path7"
         inkscape:connector-curvature="0"
         style="fill:#c0392b;stroke:#ffffff;stroke-width:2;stroke-miterlimit:10" /></g><path
       clip-rule="evenodd"
       d="m 109.013,108.906 c 0,0.609 0.5,1.109 1.111,1.109 0.609,0 1.11,-0.5 1.11,-1.109 0,-0.611 -0.501,-1.112 -1.11,-1.112 -0.611,0 -1.111,0.501 -1.111,1.112 z m 1.111,-7.776 c -0.478,0 -0.944,0.044 -1.399,0.134 l 1.677,5.441 c 1.089,0.146 1.943,1.067 1.943,2.201 0,1.22 -1,2.22 -2.221,2.22 -1.222,0 -2.222,-1 -2.222,-2.22 0,-0.856 0.487,-1.602 1.211,-1.967 l -1.646,-5.332 c -2.987,1.078 -5.119,3.932 -5.119,7.299 0,4.298 3.476,7.774 7.775,7.774 4.299,0 7.775,-3.477 7.775,-7.774 0.002,-4.3 -3.475,-7.776 -7.774,-7.776 z m -5.154,-7.743 -0.422,-0.032 h -16.75 l 4.688,13.363 0.41,-0.023 0.057,-0.011 c 0.344,0 0.688,0.066 1.033,0.199 l 0.378,0.156 10.817,-12.985 -0.211,-0.667 z m -18.316,0.712 -4.099,6.643 c 2.566,1.799 4.244,4.787 4.244,8.165 h 3.397 l 0.134,-0.367 c 0.156,-0.423 0.389,-0.789 0.7,-1.077 l 0.255,-0.257 -4.631,-13.107 z m -5.276,8.529 -2.943,4.778 c 0.355,0.398 0.588,0.922 0.588,1.5 h 5.554 c -0.001,-2.578 -1.267,-4.866 -3.199,-6.278 z m -3.466,6.278 c 0,-0.611 -0.5,-1.112 -1.111,-1.112 -0.609,0 -1.11,0.501 -1.11,1.112 0,0.609 0.501,1.109 1.11,1.109 0.611,0.001 1.111,-0.499 1.111,-1.109 z m -1.111,-7.776 c -4.299,0 -7.775,3.477 -7.775,7.776 0,4.298 3.477,7.774 7.775,7.774 3.92,0 7.143,-2.899 7.687,-6.665 h -5.774 c -0.379,0.666 -1.089,1.11 -1.912,1.11 -1.221,0 -2.221,-1 -2.221,-2.22 0,-1.223 1,-2.223 2.221,-2.223 0.168,0 0.334,0.021 0.489,0.057 l 2.978,-4.788 c -1.046,-0.522 -2.223,-0.821 -3.468,-0.821 z m 16.106,9.996 c 0.921,0 1.667,-0.743 1.667,-1.665 0,-0.922 -0.746,-1.667 -1.667,-1.667 -0.922,0 -1.666,0.745 -1.666,1.667 0,0.922 0.745,1.665 1.666,1.665 z m 17.217,7.775 c -5.521,0 -9.997,-4.477 -9.997,-9.995 0,-4.366 2.799,-8.065 6.697,-9.431 l -1.255,-4.088 -10.308,12.519 0.166,0.321 c 0.201,0.4 0.312,0.811 0.312,1.233 0,1.532 -1.255,2.777 -2.787,2.777 -1.167,0 -2.222,-0.745 -2.612,-1.855 l -0.132,-0.367 H 86.73 c -0.555,4.998 -4.786,8.886 -9.93,8.886 -5.521,0 -9.996,-4.477 -9.996,-9.995 0,-5.521 4.476,-9.998 9.996,-9.998 1.678,0 3.255,0.423 4.643,1.144 l 4.666,-7.509 -0.899,-2.819 -0.534,0.154 c -0.332,0.101 -0.654,0.155 -0.965,0.155 -2.145,0 -3.511,-2.055 -3.655,-2.288 -0.111,-0.178 -0.123,-0.566 -0.012,-0.744 0.122,-0.2 0.334,-0.311 0.578,-0.311 h 9.108 c 0.321,0 0.609,0.223 0.646,0.523 0.043,0.32 -0.201,0.743 -0.479,0.81 -0.154,0.033 -1.454,0.354 -3.021,0.943 l -0.488,0.201 0.977,3.075 h 17.217 l -1.332,-4.687 c -0.057,-0.178 -0.023,-0.366 0.1,-0.511 0.121,-0.156 0.32,-0.256 0.532,-0.256 1.433,0 2.066,-0.855 2.066,-1.698 0,-0.456 -0.178,-0.868 -0.5,-1.167 -0.39,-0.367 -0.944,-0.567 -1.566,-0.567 h -4.198 c -0.367,0 -0.655,-0.244 -0.655,-0.555 0,-0.31 0.288,-0.556 0.655,-0.556 h 4.198 c 1.322,0 2.1,0.467 2.522,0.855 0.556,0.533 0.865,1.232 0.865,1.989 0,1.21 -0.799,2.254 -2.022,2.677 l -0.509,0.166 3.086,10.396 0.246,0.787 c 0.665,-0.132 1.354,-0.21 2.055,-0.21 5.521,0 9.996,4.477 9.996,9.998 -10e-4,5.522 -4.476,9.998 -9.997,9.998 z"
       id="path9"
       inkscape:connector-curvature="0"
       style="fill:#ffffff;fill-rule:evenodd" /><circle
       stroke-miterlimit="10"
       cx="122.327"
       cy="63.155998"
       r="23.858999"
       id="circle11"
       sodipodi:cx="122.327"
       sodipodi:cy="63.155998"
       sodipodi:rx="23.858999"
       sodipodi:ry="23.858999"
       style="fill:#e81c24;stroke:#ffffff;stroke-width:2;stroke-miterlimit:10"
       d="m 146.186,63.155998 c 0,13.176962 -10.68204,23.858999 -23.859,23.858999 -13.17696,0 -23.858996,-10.682037 -23.858996,-23.858999 0,-13.176961 10.682036,-23.858999 23.858996,-23.858999 13.17696,0 23.859,10.682038 23.859,23.858999 z" /></g><g
     id="Detail"
     transform="translate(-53.09375,-38.3125)" /></svg>