<?xml version="1.0" encoding="UTF-8" standalone="no"?>
<!-- Generator: Adobe Illustrator 16.0.4, SVG Export Plug-In . SVG Version: 6.00 Build 0)  -->

<svg
   xmlns:dc="http://purl.org/dc/elements/1.1/"
   xmlns:cc="http://creativecommons.org/ns#"
   xmlns:rdf="http://www.w3.org/1999/02/22-rdf-syntax-ns#"
   xmlns:svg="http://www.w3.org/2000/svg"
   xmlns="http://www.w3.org/2000/svg"
   xmlns:sodipodi="http://sodipodi.sourceforge.net/DTD/sodipodi-0.dtd"
   xmlns:inkscape="http://www.inkscape.org/namespaces/inkscape"
   version="1.1"
   x="0px"
   y="0px"
   width="91.875"
   height="127"
   viewBox="0 0 91.875 127"
   enable-background="new 0 0 200 200"
   xml:space="preserve"
   id="svg2"
   inkscape:version="0.48.4 r9939"
   sodipodi:docname="marker_green.svg"><metadata
     id="metadata44"><rdf:RDF><cc:Work
         rdf:about=""><dc:format>image/svg+xml</dc:format><dc:type
           rdf:resource="http://purl.org/dc/dcmitype/StillImage" /></cc:Work></rdf:RDF></metadata><defs
     id="defs42" /><sodipodi:namedview
     pagecolor="#ffffff"
     bordercolor="#666666"
     borderopacity="1"
     objecttolerance="10"
     gridtolerance="10"
     guidetolerance="10"
     inkscape:pageopacity="0"
     inkscape:pageshadow="2"
     inkscape:window-width="640"
     inkscape:window-height="480"
     id="namedview40"
     showgrid="false"
     fit-margin-top="0"
     fit-margin-left="0"
     fit-margin-right="0"
     fit-margin-bottom="0"
     inkscape:zoom="1.18"
     inkscape:cx="37.4375"
     inkscape:cy="59.9375"
     inkscape:window-x="2187"
     inkscape:window-y="110"
     inkscape:window-maximized="0"
     inkscape:current-layer="svg2" /><g
     id="Ebene_1"
     transform="translate(-62.5625,-32.9375)"><rect
       y="-61.816002"
       width="200"
       height="78.228996"
       id="rect5"
       x="0"
       style="fill:none" /><text
       transform="translate(14.2944,-23.8169)"
       font-size="50"
       id="text7"
       style="font-size:50px;fill:#ffffff;font-family:OpenSans">CAR SH</text>
</g><g
     id="Detail"
     transform="translate(-62.5625,-32.9375)"><g
       id="g10"><path
         stroke-miterlimit="10"
         d="m 142.29,100.615 c -0.098,-22.499 -17.619,-40.74 -39.362,-40.74 -21.743,0 -39.363,18.241 -39.363,40.74 0,29.122 39.298,58.068 39.298,58.068 0,0 39.555,-28.946 39.427,-58.068 z"
         id="path12"
         inkscape:connector-curvature="0"
         style="fill:#8faf30;stroke:#ffffff;stroke-width:2;stroke-miterlimit:10" /></g><circle
       stroke-miterlimit="10"
       cx="129.584"
       cy="57.792999"
       r="23.858999"
       id="circle14"
       sodipodi:cx="129.584"
       sodipodi:cy="57.792999"
       sodipodi:rx="23.858999"
       sodipodi:ry="23.858999"
       style="fill:#8faf30;stroke:#ffffff;stroke-width:2;stroke-miterlimit:10"
       d="m 153.443,57.792999 c 0,13.176962 -10.68204,23.859 -23.859,23.859 -13.17696,0 -23.859,-10.682038 -23.859,-23.859 0,-13.176961 10.68204,-23.858999 23.859,-23.858999 13.17696,0 23.859,10.682038 23.859,23.858999 z" /><g
       id="g16"><g
         id="g18"><path
           d="m 86.945,106.581 c -1.715,0 -3.11,1.396 -3.11,3.111 0,1.714 1.396,3.109 3.11,3.109 1.716,0 3.111,-1.396 3.111,-3.109 0.001,-1.716 -1.395,-3.111 -3.111,-3.111 z m 0,5.332 c -1.226,0 -2.222,-0.995 -2.222,-2.221 0,-1.227 0.996,-2.223 2.222,-2.223 1.227,0 2.222,0.996 2.222,2.223 0,1.225 -0.995,2.221 -2.222,2.221 z"
           id="path20"
           inkscape:connector-curvature="0"
           style="fill:#ffffff" /><path
           d="m 120.075,103.634 c -0.699,0.147 -1.423,0.229 -2.165,0.229 -0.402,0 -0.799,-0.029 -1.19,-0.074 v 0.124 H 86.502 v -9.065 c 0,-1.866 1.128,-3.377 2.515,-3.377 h 18.692 c 0.119,-0.614 0.298,-1.207 0.521,-1.777 H 89.017 c -2.408,0 -4.293,2.266 -4.293,5.154 v 8.248 c -2.516,0.429 -4.444,2.621 -4.444,5.263 v 7.108 c 0,2.642 1.929,4.818 4.444,5.245 v 4.977 c 0,1.716 1.396,3.111 3.111,3.111 h 0.889 c 1.715,0 3.11,-1.396 3.11,-3.111 v -4.888 h 19.554 v 4.888 c 0,1.716 1.396,3.111 3.11,3.111 h 0.889 c 1.715,0 3.11,-1.396 3.11,-3.111 v -4.977 c 2.516,-0.427 4.444,-2.604 4.444,-5.245 v -7.108 c 0,-2.053 -1.168,-3.831 -2.866,-4.725 z m -30.018,22.055 c 0,0.737 -0.596,1.333 -1.333,1.333 h -0.889 c -0.738,0 -1.333,-0.596 -1.333,-1.333 v -4.888 h 3.555 v 4.888 z m 21.331,-6.664 H 91.834 90.057 v -2.224 c 0,-1.715 1.396,-3.11 3.11,-3.11 h 16.887 c 1.716,0 3.111,1.396 3.111,3.11 v 2.224 h -1.777 z m 5.332,6.664 c 0,0.737 -0.595,1.333 -1.333,1.333 h -0.889 c -0.737,0 -1.333,-0.596 -1.333,-1.333 v -4.888 h 3.555 v 4.888 z m 4.444,-10.222 c 0,1.965 -1.591,3.558 -3.556,3.558 h -3.555 v -2.668 c 0,-1.964 -1.591,-3.556 -3.555,-3.556 H 92.723 c -1.964,0 -3.556,1.592 -3.556,3.556 v 2.668 h -3.555 c -1.964,0 -3.556,-1.593 -3.556,-3.558 v -7.108 c 0,-1.966 1.592,-3.556 3.556,-3.556 h 0.89 30.218 0.889 c 1.965,0 3.556,1.59 3.556,3.556 v 7.108 z"
           id="path22"
           inkscape:connector-curvature="0"
           style="fill:#ffffff" /><path
           d="m 116.275,106.581 c -1.715,0 -3.11,1.396 -3.11,3.111 0,1.714 1.396,3.109 3.11,3.109 1.716,0 3.111,-1.396 3.111,-3.109 0.001,-1.716 -1.395,-3.111 -3.111,-3.111 z m 0,5.332 c -1.226,0 -2.222,-0.995 -2.222,-2.221 0,-1.227 0.996,-2.223 2.222,-2.223 1.227,0 2.222,0.996 2.222,2.223 0,1.225 -0.995,2.221 -2.222,2.221 z"
           id="path24"
           inkscape:connector-curvature="0"
           style="fill:#ffffff" /></g><g
         id="g26"><g
           id="g28"><path
             stroke-miterlimit="10"
             d="m 117.527,85.972 c -1.834,0 -3.669,0.698 -5.067,2.099 -2.556,2.556 -2.778,6.561 -0.667,9.367 l 1.434,1.434"
             id="path30"
             inkscape:connector-curvature="0"
             style="fill:none;stroke:#ffffff;stroke-width:2;stroke-miterlimit:10" /></g><g
           id="g32"><path
             stroke-miterlimit="10"
             d="m 118.004,100.784 c 1.834,0 3.669,-0.701 5.067,-2.101 2.556,-2.555 2.778,-6.56 0.667,-9.367 l -1.433,-1.433"
             id="path34"
             inkscape:connector-curvature="0"
             style="fill:none;stroke:#ffffff;stroke-width:2;stroke-miterlimit:10" /></g><polyline
           stroke-miterlimit="10"
           points="     113.227,96.245 113.227,98.872 110.6,98.872    "
           id="polyline36"
           style="fill:none;stroke:#ffffff;stroke-width:2;stroke-linejoin:bevel;stroke-miterlimit:10" /><polyline
           stroke-miterlimit="10"
           points="122.304,90.51      122.304,87.883 124.933,87.883    "
           id="polyline38"
           style="fill:none;stroke:#ffffff;stroke-width:2;stroke-linejoin:bevel;stroke-miterlimit:10" /></g></g></g></svg>