<?xml version="1.0" encoding="UTF-8" standalone="no"?>
<!-- Generator: Adobe Illustrator 16.0.4, SVG Export Plug-In . SVG Version: 6.00 Build 0)  -->

<svg
   xmlns:dc="http://purl.org/dc/elements/1.1/"
   xmlns:cc="http://creativecommons.org/ns#"
   xmlns:rdf="http://www.w3.org/1999/02/22-rdf-syntax-ns#"
   xmlns:svg="http://www.w3.org/2000/svg"
   xmlns="http://www.w3.org/2000/svg"
   xmlns:sodipodi="http://sodipodi.sourceforge.net/DTD/sodipodi-0.dtd"
   xmlns:inkscape="http://www.inkscape.org/namespaces/inkscape"
   version="1.1"
   x="0px"
   y="0px"
   width="94.09375"
   height="123.0625"
   viewBox="0 0 94.09375 123.0625"
   enable-background="new 0 0 200 200"
   xml:space="preserve"
   id="svg2"
   inkscape:version="0.48.4 r9939"
   sodipodi:docname="marker_orange.svg"><metadata
     id="metadata40"><rdf:RDF><cc:Work
         rdf:about=""><dc:format>image/svg+xml</dc:format><dc:type
           rdf:resource="http://purl.org/dc/dcmitype/StillImage" /></cc:Work></rdf:RDF></metadata><defs
     id="defs38" /><sodipodi:namedview
     pagecolor="#ffffff"
     bordercolor="#666666"
     borderopacity="1"
     objecttolerance="10"
     gridtolerance="10"
     guidetolerance="10"
     inkscape:pageopacity="0"
     inkscape:pageshadow="2"
     inkscape:window-width="640"
     inkscape:window-height="480"
     id="namedview36"
     showgrid="false"
     fit-margin-top="0"
     fit-margin-left="0"
     fit-margin-right="0"
     fit-margin-bottom="0"
     inkscape:zoom="1.18"
     inkscape:cx="35.125"
     inkscape:cy="51.46875"
     inkscape:window-x="2200"
     inkscape:window-y="144"
     inkscape:window-maximized="0"
     inkscape:current-layer="svg2" /><g
     id="Ebene_1"
     transform="translate(-64.875,-28.40625)" /><g
     id="Detail"
     transform="translate(-64.875,-28.40625)"><g
       id="g6"><path
         stroke-miterlimit="10"
         d="m 144.596,92.164 c -0.098,-22.499 -17.619,-40.74 -39.362,-40.74 -21.743,0 -39.364,18.241 -39.364,40.74 0,29.122 39.298,58.068 39.298,58.068 0,0 39.556,-28.946 39.428,-58.068 z"
         id="path8"
         inkscape:connector-curvature="0"
         style="fill:#8faf30;stroke:#ffffff;stroke-width:2;stroke-miterlimit:10" /></g><circle
       stroke-miterlimit="10"
       cx="134.097"
       cy="53.257"
       r="23.858999"
       id="circle10"
       sodipodi:cx="134.097"
       sodipodi:cy="53.257"
       sodipodi:rx="23.858999"
       sodipodi:ry="23.858999"
       style="fill:#f28e1e;stroke:#ffffff;stroke-width:2;stroke-miterlimit:10"
       d="m 157.956,53.257 c 0,13.176961 -10.68204,23.858999 -23.859,23.858999 -13.17696,0 -23.859,-10.682038 -23.859,-23.858999 0,-13.176961 10.68204,-23.858999 23.859,-23.858999 13.17696,0 23.859,10.682038 23.859,23.858999 z" /><g
       id="g12"><g
         id="g14"><path
           d="m 89.374,102.022 c -1.715,0 -3.11,1.396 -3.11,3.111 0,1.714 1.396,3.109 3.11,3.109 1.716,0 3.111,-1.396 3.111,-3.109 0,-1.716 -1.395,-3.111 -3.111,-3.111 z m 0,5.332 c -1.226,0 -2.222,-0.995 -2.222,-2.221 0,-1.227 0.996,-2.223 2.222,-2.223 1.227,0 2.222,0.996 2.222,2.223 0,1.226 -0.995,2.221 -2.222,2.221 z"
           id="path16"
           inkscape:connector-curvature="0"
           style="fill:#ffffff" /><path
           d="m 122.504,99.076 c -0.699,0.148 -1.423,0.23 -2.165,0.23 -0.402,0 -0.799,-0.03 -1.19,-0.075 v 0.124 H 88.931 V 90.29 c 0,-1.866 1.128,-3.377 2.515,-3.377 h 18.692 c 0.119,-0.615 0.298,-1.207 0.521,-1.777 H 91.445 c -2.408,0 -4.293,2.266 -4.293,5.154 v 8.248 c -2.516,0.428 -4.444,2.621 -4.444,5.262 v 7.109 c 0,2.641 1.929,4.818 4.444,5.245 v 4.977 c 0,1.717 1.396,3.111 3.111,3.111 h 0.889 c 1.715,0 3.11,-1.395 3.11,-3.111 v -4.888 h 19.554 v 4.888 c 0,1.717 1.396,3.111 3.11,3.111 h 0.889 c 1.715,0 3.11,-1.395 3.11,-3.111 v -4.977 c 2.516,-0.427 4.444,-2.604 4.444,-5.245 V 103.8 c 0.001,-2.052 -1.167,-3.831 -2.865,-4.724 z M 92.485,121.13 c 0,0.737 -0.596,1.333 -1.333,1.333 h -0.889 c -0.738,0 -1.333,-0.596 -1.333,-1.333 v -4.888 h 3.555 v 4.888 z m 21.331,-6.665 H 94.263 92.486 v -2.223 c 0,-1.715 1.396,-3.111 3.11,-3.111 h 16.887 c 1.716,0 3.111,1.396 3.111,3.111 v 2.223 h -1.778 z m 5.332,6.665 c 0,0.737 -0.595,1.333 -1.333,1.333 h -0.889 c -0.737,0 -1.333,-0.596 -1.333,-1.333 v -4.888 h 3.555 v 4.888 z m 4.445,-10.221 c 0,1.965 -1.591,3.557 -3.556,3.557 h -3.555 v -2.667 c 0,-1.964 -1.591,-3.556 -3.555,-3.556 H 95.151 c -1.964,0 -3.556,1.592 -3.556,3.556 v 2.667 H 88.04 c -1.964,0 -3.556,-1.592 -3.556,-3.557 V 103.8 c 0,-1.965 1.592,-3.555 3.556,-3.555 h 0.89 30.218 0.889 c 1.965,0 3.556,1.59 3.556,3.555 v 7.109 z"
           id="path18"
           inkscape:connector-curvature="0"
           style="fill:#ffffff" /><path
           d="m 118.704,102.022 c -1.715,0 -3.11,1.396 -3.11,3.111 0,1.714 1.396,3.109 3.11,3.109 1.716,0 3.111,-1.396 3.111,-3.109 0,-1.716 -1.395,-3.111 -3.111,-3.111 z m 0,5.332 c -1.226,0 -2.222,-0.995 -2.222,-2.221 0,-1.227 0.996,-2.223 2.222,-2.223 1.227,0 2.222,0.996 2.222,2.223 0,1.226 -0.995,2.221 -2.222,2.221 z"
           id="path20"
           inkscape:connector-curvature="0"
           style="fill:#ffffff" /></g><g
         id="g22"><g
           id="g24"><path
             stroke-miterlimit="10"
             d="m 119.956,81.414 c -1.834,0 -3.669,0.698 -5.067,2.1 -2.556,2.555 -2.778,6.56 -0.667,9.366 l 1.434,1.434"
             id="path26"
             inkscape:connector-curvature="0"
             style="fill:none;stroke:#ffffff;stroke-width:2;stroke-miterlimit:10" /></g><g
           id="g28"><path
             stroke-miterlimit="10"
             d="m 120.433,96.225 c 1.834,0 3.669,-0.701 5.067,-2.101 2.556,-2.555 2.778,-6.56 0.667,-9.367 l -1.433,-1.433"
             id="path30"
             inkscape:connector-curvature="0"
             style="fill:none;stroke:#ffffff;stroke-width:2;stroke-miterlimit:10" /></g><polyline
           stroke-miterlimit="10"
           points="     115.655,91.686 115.655,94.313 113.028,94.313    "
           id="polyline32"
           style="fill:none;stroke:#ffffff;stroke-width:2;stroke-linejoin:bevel;stroke-miterlimit:10" /><polyline
           stroke-miterlimit="10"
           points="     124.732,85.952 124.732,83.325 127.361,83.325    "
           id="polyline34"
           style="fill:none;stroke:#ffffff;stroke-width:2;stroke-linejoin:bevel;stroke-miterlimit:10" /></g></g></g></svg>