<?xml version="1.0" encoding="UTF-8" standalone="no"?>
<!-- Generator: Adobe Illustrator 16.0.4, SVG Export Plug-In . SVG Version: 6.00 Build 0)  -->

<svg
   xmlns:dc="http://purl.org/dc/elements/1.1/"
   xmlns:cc="http://creativecommons.org/ns#"
   xmlns:rdf="http://www.w3.org/1999/02/22-rdf-syntax-ns#"
   xmlns:svg="http://www.w3.org/2000/svg"
   xmlns="http://www.w3.org/2000/svg"
   xmlns:sodipodi="http://sodipodi.sourceforge.net/DTD/sodipodi-0.dtd"
   xmlns:inkscape="http://www.inkscape.org/namespaces/inkscape"
   version="1.1"
   x="0px"
   y="0px"
   width="94.09375"
   height="123.09375"
   viewBox="0 0 94.09375 123.09375"
   enable-background="new 0 0 200 200"
   xml:space="preserve"
   id="svg2"
   inkscape:version="0.48.4 r9939"
   sodipodi:docname="marker_red.svg"><metadata
     id="metadata40"><rdf:RDF><cc:Work
         rdf:about=""><dc:format>image/svg+xml</dc:format><dc:type
           rdf:resource="http://purl.org/dc/dcmitype/StillImage" /></cc:Work></rdf:RDF></metadata><defs
     id="defs38" /><sodipodi:namedview
     pagecolor="#ffffff"
     bordercolor="#666666"
     borderopacity="1"
     objecttolerance="10"
     gridtolerance="10"
     guidetolerance="10"
     inkscape:pageopacity="0"
     inkscape:pageshadow="2"
     inkscape:window-width="640"
     inkscape:window-height="480"
     id="namedview36"
     showgrid="false"
     fit-margin-top="0"
     fit-margin-left="0"
     fit-margin-right="0"
     fit-margin-bottom="0"
     inkscape:zoom="1.18"
     inkscape:cx="36.3125"
     inkscape:cy="64.6875"
     inkscape:window-x="2015"
     inkscape:window-y="135"
     inkscape:window-maximized="0"
     inkscape:current-layer="svg2" /><g
     id="Ebene_1"
     transform="translate(-63.6875,-41.59375)" /><g
     id="Detail"
     transform="translate(-63.6875,-41.59375)"><g
       id="g6"><path
         stroke-miterlimit="10"
         d="m 143.425,105.373 c -0.098,-22.499 -17.619,-40.74 -39.362,-40.74 -21.743,0 -39.363,18.241 -39.363,40.74 0,29.122 39.298,58.068 39.298,58.068 0,0 39.555,-28.946 39.427,-58.068 z"
         id="path8"
         inkscape:connector-curvature="0"
         style="fill:#8faf30;stroke:#ffffff;stroke-width:2;stroke-miterlimit:10" /></g><circle
       stroke-miterlimit="10"
       cx="132.927"
       cy="66.466003"
       r="23.858999"
       id="circle10"
       sodipodi:cx="132.927"
       sodipodi:cy="66.466003"
       sodipodi:rx="23.858999"
       sodipodi:ry="23.858999"
       style="fill:#e81c24;stroke:#ffffff;stroke-width:2;stroke-miterlimit:10"
       d="m 156.786,66.466003 c 0,13.176962 -10.68204,23.859 -23.859,23.859 -13.17696,0 -23.859,-10.682038 -23.859,-23.859 0,-13.176961 10.68204,-23.858999 23.859,-23.858999 13.17696,0 23.859,10.682038 23.859,23.858999 z" /><g
       id="g12"><g
         id="g14"><path
           d="m 88.204,115.231 c -1.715,0 -3.11,1.396 -3.11,3.111 0,1.714 1.396,3.109 3.11,3.109 1.716,0 3.111,-1.396 3.111,-3.109 0,-1.716 -1.396,-3.111 -3.111,-3.111 z m 0,5.332 c -1.226,0 -2.222,-0.995 -2.222,-2.221 0,-1.227 0.996,-2.223 2.222,-2.223 1.227,0 2.222,0.996 2.222,2.223 -0.001,1.226 -0.996,2.221 -2.222,2.221 z"
           id="path16"
           inkscape:connector-curvature="0"
           style="fill:#ffffff" /><path
           d="m 121.333,112.285 c -0.699,0.148 -1.423,0.23 -2.165,0.23 -0.402,0 -0.799,-0.03 -1.19,-0.075 v 0.124 H 87.76 v -9.065 c 0,-1.866 1.128,-3.377 2.515,-3.377 h 18.692 c 0.119,-0.615 0.298,-1.207 0.521,-1.777 H 90.275 c -2.408,0 -4.293,2.266 -4.293,5.154 v 8.248 c -2.516,0.428 -4.444,2.621 -4.444,5.262 v 7.109 c 0,2.641 1.929,4.818 4.444,5.245 v 4.977 c 0,1.717 1.396,3.111 3.111,3.111 h 0.889 c 1.715,0 3.11,-1.395 3.11,-3.111 v -4.888 h 19.554 v 4.888 c 0,1.717 1.396,3.111 3.11,3.111 h 0.889 c 1.715,0 3.11,-1.395 3.11,-3.111 v -4.977 c 2.516,-0.427 4.444,-2.604 4.444,-5.245 v -7.109 c 0.001,-2.052 -1.167,-3.831 -2.866,-4.724 z m -30.018,22.054 c 0,0.737 -0.596,1.333 -1.333,1.333 h -0.889 c -0.738,0 -1.333,-0.596 -1.333,-1.333 v -4.888 h 3.555 v 4.888 z m 21.331,-6.665 H 93.092 91.315 v -2.223 c 0,-1.715 1.396,-3.111 3.11,-3.111 h 16.887 c 1.716,0 3.111,1.396 3.111,3.111 v 2.223 h -1.777 z m 5.332,6.665 c 0,0.737 -0.595,1.333 -1.333,1.333 h -0.889 c -0.737,0 -1.333,-0.596 -1.333,-1.333 v -4.888 h 3.555 v 4.888 z m 4.444,-10.221 c 0,1.965 -1.591,3.557 -3.556,3.557 h -3.555 v -2.667 c 0,-1.964 -1.591,-3.556 -3.555,-3.556 H 93.981 c -1.964,0 -3.556,1.592 -3.556,3.556 v 2.667 H 86.87 c -1.964,0 -3.556,-1.592 -3.556,-3.557 v -7.109 c 0,-1.965 1.592,-3.555 3.556,-3.555 h 0.89 30.218 0.889 c 1.965,0 3.556,1.59 3.556,3.555 v 7.109 z"
           id="path18"
           inkscape:connector-curvature="0"
           style="fill:#ffffff" /><path
           d="m 117.534,115.231 c -1.715,0 -3.11,1.396 -3.11,3.111 0,1.714 1.396,3.109 3.11,3.109 1.716,0 3.111,-1.396 3.111,-3.109 0,-1.716 -1.395,-3.111 -3.111,-3.111 z m 0,5.332 c -1.226,0 -2.222,-0.995 -2.222,-2.221 0,-1.227 0.996,-2.223 2.222,-2.223 1.227,0 2.222,0.996 2.222,2.223 -0.001,1.226 -0.996,2.221 -2.222,2.221 z"
           id="path20"
           inkscape:connector-curvature="0"
           style="fill:#ffffff" /></g><g
         id="g22"><g
           id="g24"><path
             stroke-miterlimit="10"
             d="m 118.786,94.623 c -1.834,0 -3.669,0.698 -5.067,2.1 -2.556,2.555 -2.778,6.56 -0.667,9.366 l 1.434,1.434"
             id="path26"
             inkscape:connector-curvature="0"
             style="fill:none;stroke:#ffffff;stroke-width:2;stroke-miterlimit:10" /></g><g
           id="g28"><path
             stroke-miterlimit="10"
             d="m 119.262,109.434 c 1.834,0 3.669,-0.701 5.067,-2.101 2.556,-2.555 2.778,-6.56 0.667,-9.367 l -1.433,-1.433"
             id="path30"
             inkscape:connector-curvature="0"
             style="fill:none;stroke:#ffffff;stroke-width:2;stroke-miterlimit:10" /></g><polyline
           stroke-miterlimit="10"
           points="     114.485,104.895 114.485,107.522 111.858,107.522    "
           id="polyline32"
           style="fill:none;stroke:#ffffff;stroke-width:2;stroke-linejoin:bevel;stroke-miterlimit:10" /><polyline
           stroke-miterlimit="10"
           points="     123.562,99.161 123.562,96.534 126.191,96.534    "
           id="polyline34"
           style="fill:none;stroke:#ffffff;stroke-width:2;stroke-linejoin:bevel;stroke-miterlimit:10" /></g></g></g></svg>