<svg id="Ebene_1" data-name="Ebene 1" xmlns="http://www.w3.org/2000/svg" viewBox="0 0 100 100"><title>carpooling_dandp</title><path d="M88.6416,41.4945C88.5457,19.4073,71.3469,1.5,50.0008,1.5,28.6566,1.5,11.358,19.4073,11.358,41.4945,11.358,70.0835,49.9375,98.5,49.9375,98.5S88.77,70.0835,88.6416,41.4945Z" style="fill:#009a92;stroke:#fff;stroke-miterlimit:10;stroke-width:2px"/><path d="M41.111,52.9188c-2.2561-1.8538-4.9168-7.8267-5.6743-9.6018,1.1657-.3414,2.1694-.577,2.8466-.7206l.3766-.08v1.8994c0,1.7172,2.1635,3.0817,5.2611,3.318l1.6666-.0092c3.0766-.2112,5.2392-1.5757,5.2392-3.3174V42.5434l.3754.078c.5912.1228,1.4317.3149,2.4122.5866.3409-.285.6971-.5514,1.0626-.8059-1.61-.4837-2.9336-.7664-3.5973-.8946l-.2529-.0489V40.2735l.1158-.0935a7.6653,7.6653,0,0,0,.61-.5531,11.1806,11.1806,0,0,0,2.838-6.2614,4.7621,4.7621,0,0,1,.5536-2.0416,5.359,5.359,0,0,0,1.3149-4.0106,3.6409,3.6409,0,0,0-1.2512-2.1577l-.1057-.0883-.0058-.1376c-.0022-.0447-.004-.0885-.0065-.1329-.524-7.84-6.1233-8.9757-8.5309-8.9757a9.9493,9.9493,0,0,0-1.569.115l-.0466.007-.0467-.007a10.3671,10.3671,0,0,0-1.5392-.115h-.0289c-2.442,0-8.1607.8877-8.5382,9.1095l-.0064.1383-.1066.088a3.6507,3.6507,0,0,0-1.2706,2.1742A5.86,5.86,0,0,0,34.5285,31.32a3.5462,3.5462,0,0,1,.5365,1.7845l.0309.2491a11.1992,11.1992,0,0,0,2.8566,6.2843,8.0853,8.0853,0,0,0,.6011.5436l.1145.0935v1.184l-.2525.0489c-2.66.5138-15.9184,3.5065-15.7023,11.9775a.5362.5362,0,0,0,.534.5419H48.2224c.019-.3713.0452-.74.09-1.1038Zm8.6479-8.503c0,1.0758-2.06,2.2745-5.0155,2.2745s-5.0156-1.1987-5.0156-2.2745V41.0086l.4433.2055a9.9361,9.9361,0,0,0,4.355.9186h.4287a10.0028,10.0028,0,0,0,4.3608-.9186l.4433-.2055ZM35.7356,24.4525c.4784-6.2575,4.3057-7.5716,7.4329-7.5719a8.2827,8.2827,0,0,1,1.5008.1229.543.543,0,0,0,.223.0017,8.5029,8.5029,0,0,1,1.5112-.1246c2.5273,0,6.8738,1.533,7.4271,7.9824l-.2882.0179a17.6573,17.6573,0,0,1-10.29-2.5835.5435.5435,0,0,0-.71.0588c-1.7412,1.872-4.8047,2.327-6.4756,2.4315l-.358.0224Zm.2956,7.2277a.6481.6481,0,0,0-.1-.3649c-1.2352-1.4159-1.7812-2.69-1.6228-3.7872a2.543,2.543,0,0,1,.8763-1.6227l.0874-.0745h.1149c.7873,0,4.8443-.1121,7.41-2.3267l.1676-.1447.1919.11a18.8009,18.8009,0,0,0,9.2365,2.4962,10.9411,10.9411,0,0,0,1.6928-.0893l.1414-.0219.1091.0929a2.5447,2.5447,0,0,1,.8677,1.5812c.1578,1.0783-.4028,2.3876-1.6221,3.7847a.5332.5332,0,0,0-.1344.3589v.4427l-.2821,2.1392a9.6275,9.6275,0,0,1-2.3463,4.6363A7.8926,7.8926,0,0,1,45.3564,41.1c-.1307,0-.2611-.0032-.3921-.01l-.4071.0005a7.8926,7.8926,0,0,1-5.8162-2.1763C36.1192,36.3,36.0324,32.1454,36.0312,31.68ZM23.7723,52.9081l.0359-.3444c.3544-3.3712,3.3289-5.73,6.57-7.3211.6727,1.7516,2.2662,5.6021,3.9983,7.672Zm11.4436.007c-1.7894-1.8158-3.5687-6.12-4.2706-7.9421a32.3247,32.3247,0,0,1,3.8891-1.4746c.6834,1.6164,3.0791,7.05,5.3651,9.42Z" style="fill:#fff"/><path d="M63.3459,40.84a13.9435,13.9435,0,1,0,9.8594,4.0838A13.851,13.851,0,0,0,63.3459,40.84Zm0,27.1806A13.2374,13.2374,0,1,1,76.5831,54.7832,13.2526,13.2526,0,0,1,63.3459,68.02Z" style="fill:#fff"/><path d="M63.3459,43.3919A11.3914,11.3914,0,1,0,74.737,54.7832,11.4041,11.4041,0,0,0,63.3459,43.3919ZM53.1245,50.7112a11.0023,11.0023,0,0,1,20.4428,0l.2882.7211-.7421-.2294c-.5414-.1676-1.0826-.32-1.6081-.4535a33.1365,33.1365,0,0,0-16.3184-.0008c-.5305.1349-1.0717.2878-1.6083.4543l-.7427.23Zm-.7818,4.072a10.9835,10.9835,0,0,1,.3359-2.699l.0491-.1957.1915-.0649c.4831-.1626.97-.3141,1.4468-.45l.6078-.1738L53.93,55.63l-.3675-.096c-.3022-.079-.6082-.1459-.91-.1984l-.3021-.0528Zm8.8055,10.7823a10.9931,10.9931,0,0,1-8.717-9.3835l-.065-.5129.5065.1024a10.98,10.98,0,0,1,8.7172,9.384l.0652.513ZM64.8317,64.38c-.0649.3372-.1154.6831-.15,1.0278l-.03.3049-.3049.0275c-.3366.03-.673.0458-1,.0458-.3316,0-.6686-.0158-1.0017-.0462l-.3046-.0275-.0306-.3047c-.0347-.3476-.0854-.6933-.15-1.0276l-.0854-.4411h3.1438Zm-3.1632-.8292-.0794-.2644a11.4443,11.4443,0,0,0-6.98-7.4252l-.3083-.1136,1.0957-4.6517.2211-.0536a32.8024,32.8024,0,0,1,15.456,0l.2209.0542,1.0957,4.65-.3083.1132a11.4451,11.4451,0,0,0-6.9806,7.426l-.0794.2644ZM74.26,56.1815a10.9923,10.9923,0,0,1-8.7178,9.384l-.5069.103.0652-.513a10.98,10.98,0,0,1,8.718-9.3842l.5067-.1024Zm-.199-.8517c-.3207.0575-.6271.1241-.9325.2036l-.367.0956L71.718,51.2l.6078.1742c.4879.1392.9745.2909,1.447.4506l.1911.0645.05.1957a11.005,11.005,0,0,1,.3353,2.6986l-.0066.4552Z" style="fill:#fff"/><path d="M63.3457,51.7825a3.0007,3.0007,0,1,0,3,3.0007A3.0039,3.0039,0,0,0,63.3457,51.7825Zm0,5.295A2.2944,2.2944,0,1,1,65.64,54.7832,2.297,2.297,0,0,1,63.3457,57.0775Z" style="fill:#fff"/></svg>