<svg id="Ebene_1" data-name="Ebene 1" xmlns="http://www.w3.org/2000/svg" viewBox="0 0 100 100"><defs><style>.cls-1{fill:#a4c4e1;stroke:#fff;stroke-miterlimit:10;stroke-width:2px;}.cls-2{fill:#fff;}</style></defs><title>CarPooling_Icona_Utente</title><path class="cls-1" d="M88.64,41.49C88.55,19.41,71.35,1.5,50,1.5s-38.64,17.91-38.64,40c0,28.59,38.58,57,38.58,57S88.77,70.08,88.64,41.49Z"/><path class="cls-2" d="M41.11,52.92c-2.26-1.86-4.92-7.83-5.67-9.6,1.16-.34,2.17-.58,2.84-.72l.38-.08v1.9c0,1.71,2.16,3.08,5.26,3.31h1.67c3.07-.21,5.24-1.57,5.24-3.31V42.54l.37.08c.59.12,1.43.32,2.41.59.35-.29.7-.55,1.07-.81-1.61-.48-2.94-.76-3.6-.89l-.25,0V40.27l.11-.09a7.38,7.38,0,0,0,.61-.55,11.17,11.17,0,0,0,2.84-6.26,5,5,0,0,1,.55-2,5.32,5.32,0,0,0,1.32-4A3.63,3.63,0,0,0,55,25.16l-.11-.09v-.14a.57.57,0,0,1,0-.13c-.52-7.84-6.12-9-8.53-9a10.28,10.28,0,0,0-1.57.12H44.7a10,10,0,0,0-1.54-.12h0c-2.44,0-8.16.89-8.54,9.11v.14l-.1.09a3.62,3.62,0,0,0-1.27,2.17,5.84,5.84,0,0,0,1.32,4,3.58,3.58,0,0,1,.54,1.78l0,.25A11.23,11.23,0,0,0,38,39.64c.19.18.39.37.6.54l.12.09v1.19l-.25,0c-2.66.51-15.92,3.5-15.71,12a.54.54,0,0,0,.54.54h25q0-.56.09-1.11Zm8.65-8.5c0,1.07-2.06,2.27-5,2.27s-5-1.2-5-2.27V41l.44.2a10,10,0,0,0,4.36.92H45a10,10,0,0,0,4.37-.92l.44-.2Zm-14-20c.47-6.26,4.3-7.57,7.43-7.57a8.36,8.36,0,0,1,1.5.12.55.55,0,0,0,.22,0,8.64,8.64,0,0,1,1.51-.13c2.53,0,6.88,1.53,7.43,8l-.29,0A17.65,17.65,0,0,1,43.25,22.3a.55.55,0,0,0-.71.06c-1.74,1.87-4.8,2.32-6.47,2.43l-.36,0ZM36,31.68a.61.61,0,0,0-.1-.36c-1.23-1.42-1.78-2.69-1.62-3.79a2.55,2.55,0,0,1,.87-1.62l.09-.08h.12c.78,0,4.84-.11,7.41-2.33l.16-.14.2.11A18.81,18.81,0,0,0,52.39,26a11,11,0,0,0,1.7-.09l.14,0,.11.1a2.49,2.49,0,0,1,.86,1.58c.16,1.08-.4,2.39-1.62,3.78a.53.53,0,0,0-.13.36v.45l-.28,2.13a9.64,9.64,0,0,1-2.35,4.64,7.9,7.9,0,0,1-5.46,2.21h-.8a7.88,7.88,0,0,1-5.82-2.18C36.12,36.3,36,32.15,36,31.68ZM23.77,52.91l0-.35c.35-3.37,3.33-5.73,6.57-7.32.67,1.75,2.26,5.6,4,7.67Zm11.45,0C33.43,51.1,31.65,46.8,31,45a30.94,30.94,0,0,1,3.88-1.47c.69,1.61,3.08,7,5.37,9.42Z"/><path class="cls-2" d="M63.35,40.84a13.93,13.93,0,1,0,9.86,4.08A13.85,13.85,0,0,0,63.35,40.84Zm0,27.18A13.24,13.24,0,1,1,76.58,54.78,13.26,13.26,0,0,1,63.35,68Z"/><path class="cls-2" d="M63.35,43.39A11.39,11.39,0,1,0,74.74,54.78,11.41,11.41,0,0,0,63.35,43.39ZM53.12,50.71a11,11,0,0,1,20.45,0l.29.72-.75-.23c-.54-.16-1.08-.32-1.6-.45a33.15,33.15,0,0,0-16.32,0c-.53.13-1.07.29-1.61.45l-.74.23Zm-.78,4.07a11.16,11.16,0,0,1,.34-2.7l0-.19.19-.07c.48-.16,1-.31,1.45-.45l.6-.17-1,4.43-.37-.1c-.3-.08-.61-.14-.91-.19l-.3-.06Zm8.81,10.79a11,11,0,0,1-8.72-9.39l-.06-.51.5.1a11,11,0,0,1,8.72,9.39l.07.51Zm3.68-1.19c-.06.34-.11.68-.15,1l0,.3-.3,0c-.34,0-.68.05-1,.05s-.67,0-1-.05l-.3,0,0-.3c0-.35-.09-.7-.15-1l-.09-.44h3.15Zm-3.16-.83-.08-.26a11.43,11.43,0,0,0-7-7.43l-.31-.11,1.1-4.65.22-.06a32.81,32.81,0,0,1,15.45,0l.22.06,1.1,4.65-.31.11a11.46,11.46,0,0,0-7,7.43l-.08.26Zm12.59-7.37a11,11,0,0,1-8.72,9.39l-.5.1.06-.51a11,11,0,0,1,8.72-9.39l.51-.1Zm-.2-.85c-.32.06-.63.12-.93.2l-.37.1-1-4.43.61.17c.48.14,1,.29,1.44.45l.19.07.05.19a10.69,10.69,0,0,1,.34,2.7v.46Z"/><path class="cls-2" d="M63.35,51.78a3,3,0,1,0,3,3A3,3,0,0,0,63.35,51.78Zm0,5.3a2.3,2.3,0,1,1,2.29-2.3A2.3,2.3,0,0,1,63.35,57.08Z"/></svg>