<svg id="Ebene_1" data-name="Ebene 1" xmlns="http://www.w3.org/2000/svg" viewBox="0 0 100 100"><title>carpooling_driver</title><path d="M88.6414,41.4945C88.5456,19.4073,71.3467,1.5,50.0006,1.5c-21.3442,0-38.6423,17.9073-38.6423,39.9945,0,28.589,38.5791,57.0055,38.5791,57.0055S88.7679,70.0835,88.6414,41.4945Z" style="fill:#009a92;stroke:#fff;stroke-miterlimit:10;stroke-width:2px"/><path d="M50,17.2558a25.5311,25.5311,0,1,0,18.0529,7.4777A25.3615,25.3615,0,0,0,50,17.2558Zm0,49.7687A24.2381,24.2381,0,1,1,74.2377,42.7868,24.2657,24.2657,0,0,1,50,67.0245Z" style="fill:#fff"/><path d="M50,21.9288a20.858,20.858,0,1,0,20.8576,20.858A20.8813,20.8813,0,0,0,50,21.9288ZM31.2842,35.3307a20.1457,20.1457,0,0,1,37.4316,0l.5277,1.3205-1.3588-.42c-.9913-.3068-1.9823-.5864-2.9445-.83a60.6725,60.6725,0,0,0-29.88-.0016c-.9713.247-1.9622.527-2.9449.8319l-1.36.4209Zm-1.4316,7.4561a20.1115,20.1115,0,0,1,.6152-4.942l.09-.3583.3508-.119c.8845-.2977,1.7758-.575,2.649-.8242l1.1129-.3182-1.9118,8.1114-.6728-.1758c-.5534-.1447-1.1137-.267-1.6664-.3632l-.553-.0966ZM45.9759,62.53A20.1286,20.1286,0,0,1,30.0148,45.3479l-.119-.939.9273.1875A20.1044,20.1044,0,0,1,46.7847,61.7788l.1193.9394Zm6.7447-2.1706c-.1189.6175-.2114,1.2508-.275,1.8819l-.0557.5584-.5584.05c-.6163.0557-1.2322.0837-1.8315.0837-.6072,0-1.2243-.0288-1.8342-.0845l-.5576-.05-.0561-.5579c-.0636-.6364-.1564-1.2694-.275-1.8816l-.1564-.8076h5.7564Zm-5.792-1.5183-.1455-.4841a20.9543,20.9543,0,0,0-12.78-13.5958l-.5645-.208,2.0062-8.5175.405-.0981a60.0634,60.0634,0,0,1,28.3.0007l.4045.0993,2.0062,8.5148-.5644.2073A20.9561,20.9561,0,0,0,53.2146,58.3566l-.1455.4841ZM69.9845,45.3472A20.1274,20.1274,0,0,1,54.0218,62.53l-.9281.1886.1194-.9394A20.1047,20.1047,0,0,1,69.1761,44.596l.9277-.1875Zm-.3644-1.56c-.5872.1053-1.1482.2273-1.7073.3728l-.672.175-1.9111-8.11,1.1129.3189c.8932.255,1.7842.5326,2.6494.8251l.35.1181.0906.3584a20.15,20.15,0,0,1,.614,4.9412l-.0121.8334Z" style="fill:#fff"/><path d="M50,37.2923a5.4944,5.4944,0,1,0,5.4937,5.4945A5.5005,5.5005,0,0,0,50,37.2923Zm0,9.6955a4.2012,4.2012,0,1,1,4.2012-4.201A4.2057,4.2057,0,0,1,50,46.9878Z" style="fill:#fff"/></svg>