<svg id="Ebene_1" data-name="Ebene 1" xmlns="http://www.w3.org/2000/svg" viewBox="0 0 100 100"><title>CarPooling_Icona</title><path d="M88.64,41.5c-.09-22.09-17.3-40-38.64-40s-38.64,17.91-38.64,40c0,28.58,38.58,57,38.58,57S88.77,70.08,88.64,41.5Z" style="fill:#3193c5;stroke:#fff;stroke-miterlimit:10;stroke-width:2px"/><path d="M50,17.71a25.54,25.54,0,1,0,18,7.48A25.36,25.36,0,0,0,50,17.71Zm0,49.77A24.24,24.24,0,1,1,74.24,43.24,24.26,24.26,0,0,1,50,67.48Z" style="fill:#fff"/><path d="M50,22.38A20.86,20.86,0,1,0,70.86,43.24,20.89,20.89,0,0,0,50,22.38ZM31.28,35.79a20.15,20.15,0,0,1,37.44,0l.52,1.32-1.36-.42c-1-.31-2-.59-2.94-.83a60.58,60.58,0,0,0-29.88,0c-1,.25-2,.53-2.94.84l-1.36.42Zm-1.43,7.45a20,20,0,0,1,.62-4.94l.09-.36.35-.12c.88-.3,1.77-.57,2.65-.82l1.11-.32-1.91,8.11-.67-.17c-.56-.15-1.12-.27-1.67-.37l-.55-.09ZM46,63A20.14,20.14,0,0,1,30,45.8l-.11-.94.92.19a20.09,20.09,0,0,1,16,17.18l.12.94Zm6.74-2.17q-.18.93-.27,1.89l-.06.55-.56,0c-.61.06-1.23.09-1.83.09s-1.22,0-1.83-.09l-.56,0-.06-.55q-.09-1-.27-1.89l-.16-.8h5.76ZM46.93,59.3l-.15-.49A20.93,20.93,0,0,0,34,45.22L33.44,45l2-8.52.41-.1a60.17,60.17,0,0,1,28.3,0l.4.1,2,8.52-.56.2a21,21,0,0,0-12.79,13.6l-.14.49ZM70,45.8A20.11,20.11,0,0,1,54,63l-.93.19.12-.94a20.11,20.11,0,0,1,16-17.18l.92-.19Zm-.36-1.56c-.59.11-1.15.23-1.71.38l-.67.17-1.91-8.11,1.11.32c.9.25,1.79.53,2.65.82l.35.12.09.36a20,20,0,0,1,.62,4.94l0,.84Z" style="fill:#fff"/><path d="M50,37.75a5.5,5.5,0,1,0,5.49,5.49A5.49,5.49,0,0,0,50,37.75Zm0,9.69a4.2,4.2,0,1,1,4.2-4.2A4.2,4.2,0,0,1,50,47.44Z" style="fill:#fff"/></svg>