<svg id="Ebene_1" data-name="Ebene 1" xmlns="http://www.w3.org/2000/svg" viewBox="0 0 100 100"><title>CarPooling_Icona</title><path d="M88.64,41.49C88.55,19.41,71.35,1.5,50,1.5s-38.64,17.91-38.64,40c0,28.59,38.58,57,38.58,57S88.77,70.08,88.64,41.49Z" style="fill:#a4c4e1;stroke:#fff;stroke-miterlimit:10;stroke-width:2px"/><path d="M50,17.26a25.52,25.52,0,1,0,18,7.47A25.35,25.35,0,0,0,50,17.26ZM50,67A24.24,24.24,0,1,1,74.24,42.79,24.26,24.26,0,0,1,50,67Z" style="fill:#fff"/><path d="M50,21.93A20.86,20.86,0,1,0,70.86,42.79,20.89,20.89,0,0,0,50,21.93ZM31.28,35.33a20.15,20.15,0,0,1,37.44,0l.52,1.32-1.36-.42c-1-.31-2-.59-2.94-.83a60.69,60.69,0,0,0-29.88,0c-1,.25-2,.53-2.94.83l-1.36.42Zm-1.43,7.46a20.1,20.1,0,0,1,.62-4.95l.09-.35.35-.12c.88-.3,1.77-.58,2.65-.83l1.11-.31-1.91,8.11-.67-.18c-.56-.14-1.12-.27-1.67-.36l-.55-.1ZM46,62.53A20.15,20.15,0,0,1,30,45.35l-.11-.94.92.19a20.08,20.08,0,0,1,16,17.18l.12.94Zm6.74-2.17c-.12.62-.21,1.25-.27,1.88l-.06.56-.56.05c-.61.06-1.23.08-1.83.08s-1.22,0-1.83-.08l-.56-.05-.06-.56a18.9,18.9,0,0,0-.27-1.88l-.16-.81h5.76Zm-5.79-1.52-.15-.48A20.94,20.94,0,0,0,34,44.76l-.56-.21,2-8.51.41-.1a59.91,59.91,0,0,1,28.3,0l.4.1,2,8.51-.56.21a21,21,0,0,0-12.79,13.6l-.14.48ZM70,45.35A20.13,20.13,0,0,1,54,62.53l-.93.19.12-.94a20.1,20.1,0,0,1,16-17.18l.92-.19Zm-.36-1.56c-.59.1-1.15.22-1.71.37l-.67.18-1.91-8.11,1.11.31c.9.26,1.79.54,2.65.83l.35.12.09.36a20,20,0,0,1,.62,4.94l0,.83Z" style="fill:#fff"/><path d="M50,37.29a5.5,5.5,0,1,0,5.49,5.5A5.5,5.5,0,0,0,50,37.29ZM50,47a4.2,4.2,0,1,1,4.2-4.2A4.21,4.21,0,0,1,50,47Z" style="fill:#fff"/></svg>