<svg id="Ebene_1" data-name="Ebene 1" xmlns="http://www.w3.org/2000/svg" viewBox="0 0 65 65"><title>CarPooling_Icona_Autista</title><path d="M32.5,0a32.5,32.5,0,0,0-23,55.48,32.5,32.5,0,1,0,46-46A32.28,32.28,0,0,0,32.5,0Zm0,63.35A30.85,30.85,0,1,1,63.35,32.5,30.89,30.89,0,0,1,32.5,63.35Z"/><path d="M32.5,6A26.55,26.55,0,1,0,59.05,32.5,26.58,26.58,0,0,0,32.5,6ZM8.68,23a25.64,25.64,0,0,1,47.64,0L57,24.69l-1.73-.54c-1.27-.39-2.53-.74-3.75-1a77.27,77.27,0,0,0-38,0c-1.23.31-2.5.67-3.75,1L8,24.69ZM6.85,32.5a25.57,25.57,0,0,1,.79-6.29l.11-.46.45-.15c1.12-.38,2.26-.73,3.37-1.05l1.42-.4L10.55,34.47l-.85-.22c-.71-.19-1.42-.34-2.13-.46l-.7-.13ZM27.38,57.63A25.62,25.62,0,0,1,7.06,35.76l-.15-1.2,1.18.24A25.6,25.6,0,0,1,28.41,56.68l.15,1.19ZM36,54.87c-.15.78-.27,1.59-.35,2.39l-.07.72-.71.06c-.78.07-1.57.11-2.33.11s-1.56,0-2.33-.11L29.46,58l-.08-.71c-.08-.81-.2-1.61-.35-2.39l-.2-1h7.33Zm-7.37-1.93-.18-.62A26.7,26.7,0,0,0,12.14,35l-.72-.26L14,23.91l.52-.13a76.42,76.42,0,0,1,36,0l.52.13,2.55,10.84-.72.26A26.7,26.7,0,0,0,36.59,52.32l-.18.62ZM57.94,35.76A25.62,25.62,0,0,1,37.62,57.63l-1.18.24.15-1.19A25.6,25.6,0,0,1,56.91,34.8l1.18-.24Zm-.46-2c-.75.14-1.47.29-2.18.48l-.85.22L52,24.15l1.42.4c1.14.33,2.27.68,3.37,1.05l.45.15.11.46a25.57,25.57,0,0,1,.79,6.29l0,1.06Z"/><path d="M32.5,25.51a7,7,0,1,0,7,7A7,7,0,0,0,32.5,25.51Zm0,12.34a5.35,5.35,0,1,1,5.35-5.35A5.36,5.36,0,0,1,32.5,37.85Z"/></svg>