<svg id="Ebene_1" data-name="Ebene 1" xmlns="http://www.w3.org/2000/svg" viewBox="0 0 47.73 65"><title>CarPooling_Icona_Hub</title><path d="M55.87,6.49h0a17.23,17.23,0,0,1-7-1.29,18.11,18.11,0,0,0-7.37-1.36v0a18,18,0,0,0-7.33,1.37,17.27,17.27,0,0,1-7,1.32,17.34,17.34,0,0,1-7-1.32A17.86,17.86,0,0,0,13.74,3.8l-.55,0V1a1,1,0,0,0-.95-1H9.59a1,1,0,0,0-.95,1V64a1,1,0,0,0,.95,1h2.65a1,1,0,0,0,.95-1V33.5l.6,0a16.73,16.73,0,0,1,5.9,1.29,18.2,18.2,0,0,0,7,1.4h.44a17.84,17.84,0,0,0,7.27-1.36A17,17,0,0,1,41.5,33.5a16.94,16.94,0,0,1,7,1.32,18,18,0,0,0,7.37,1.39h0a.49.49,0,0,0,.49-.49V7A.49.49,0,0,0,55.87,6.49Zm-44.18,57H10.14v-62h1.55Zm7.69-29.81-.8-.28a15.35,15.35,0,0,0-4.84-.84l-.55,0V26.31l.6,0a15.06,15.06,0,0,1,5.21,1l.38.15Zm0-7.19-.8-.28a15.65,15.65,0,0,0-4.84-.84l-.55,0V19.12l.6,0a15.06,15.06,0,0,1,5.21,1l.38.15Zm0-7.19-.8-.28a15.65,15.65,0,0,0-4.84-.84l-.55,0V11.93l.6,0A15.3,15.3,0,0,1,19,13l.38.15Zm0-7.19-.8-.28A15.65,15.65,0,0,0,13.74,11l-.55,0V4.75l.6,0a15.3,15.3,0,0,1,5.21,1l.38.15Zm7.31,23.13-.62,0a17,17,0,0,1-5.33-1l-.4-.14V27.9l.79.25a17.51,17.51,0,0,0,5,.85h.59Zm0-7.19-.62,0a16.49,16.49,0,0,1-5.33-1l-.4-.14V20.71l.79.26a17.49,17.49,0,0,0,5,.84l.59,0Zm0-7.19-.62,0a16.7,16.7,0,0,1-5.33-1l-.4-.15V13.53l.79.25a17.49,17.49,0,0,0,5,.84l.59,0Zm0-7.19-.62,0a16.7,16.7,0,0,1-5.33-1l-.4-.15V6.34l.79.25a17.86,17.86,0,0,0,5,.85h.59ZM33.87,34l-.4.14a16.7,16.7,0,0,1-5.19,1l-.62,0V29l.58,0a17.75,17.75,0,0,0,4.84-.84l.79-.26Zm0-7.19-.4.14a16.7,16.7,0,0,1-5.19,1l-.62,0V21.83l.58,0A17.38,17.38,0,0,0,33.08,21l.79-.26Zm0-7.19-.4.15a17,17,0,0,1-5.19,1l-.62,0V14.64l.58,0a17.38,17.38,0,0,0,4.84-.84l.79-.26Zm0-7.19-.4.15a16.4,16.4,0,0,1-5.19,1l-.62,0V7.45h.58a17.76,17.76,0,0,0,4.84-.85l.79-.25ZM41,32.53l-.57,0a15.35,15.35,0,0,0-4.84.84l-.8.28V27.53l.38-.15a15.06,15.06,0,0,1,5.21-1l.62,0Zm0-7.19-.57,0a15.65,15.65,0,0,0-4.84.84l-.8.28V20.34l.38-.15a15.06,15.06,0,0,1,5.21-1l.62,0Zm0-7.18-.57,0a15.65,15.65,0,0,0-4.84.84l-.8.28V13.15l.38-.15a15.3,15.3,0,0,1,5.21-1l.62,0ZM41,11l-.57,0a15.65,15.65,0,0,0-4.84.84l-.8.28V6l.38-.15a15.3,15.3,0,0,1,5.21-1l.62,0Zm7.18,22.69-.78-.26a17.38,17.38,0,0,0-4.85-.84l-.58,0V26.32l.62,0a15.73,15.73,0,0,1,5.2,1l.39.14Zm0-7.19-.78-.26a17.38,17.38,0,0,0-4.85-.84l-.58,0V19.13l.62,0a15.73,15.73,0,0,1,5.2,1l.39.14Zm0-7.19L47.44,19a17.76,17.76,0,0,0-4.85-.84l-.58,0V11.94l.62,0a15.68,15.68,0,0,1,5.2,1l.39.15Zm0-7.19-.78-.25A17.52,17.52,0,0,0,42.59,11L42,11V4.75l.62,0a16.26,16.26,0,0,1,5.2,1l.39.15ZM55.4,35.24l-.62,0a15.74,15.74,0,0,1-5.21-1L49.19,34V27.88l.8.28a15.5,15.5,0,0,0,4.83.84l.58,0Zm0-7.19-.62,0a15.79,15.79,0,0,1-5.21-1l-.38-.14V20.69L50,21a15.5,15.5,0,0,0,4.83.84l.58,0Zm0-7.19-.62,0a15.79,15.79,0,0,1-5.21-1l-.38-.14V13.5l.8.28a15.21,15.21,0,0,0,4.83.84l.58,0Zm0-7.19h-.62a16.26,16.26,0,0,1-5.21-1l-.38-.15V6.32l.8.28a15.81,15.81,0,0,0,4.83.84l.58,0Z" transform="translate(-8.64)"/></svg>