<svg id="Ebene_1" data-name="Ebene 1" xmlns="http://www.w3.org/2000/svg" viewBox="0 0 100 100"><title>CarPooling_Icona</title><path d="M88.64,41.49C88.55,19.41,71.35,1.5,50,1.5s-38.64,17.91-38.64,40c0,28.59,38.58,57,38.58,57S88.77,70.08,88.64,41.49Z" style="fill:#3193c5;stroke:#fff;stroke-miterlimit:10;stroke-width:2px"/><path d="M69.61,24.26h0a12.92,12.92,0,0,1-5.3-1,13.73,13.73,0,0,0-5.56-1v0a13.5,13.5,0,0,0-5.54,1,13,13,0,0,1-5.31,1,12.84,12.84,0,0,1-5.32-1,13.5,13.5,0,0,0-4.78-1h-.42V20.08a.72.72,0,0,0-.72-.72h-2a.73.73,0,0,0-.72.72V67.72a.73.73,0,0,0,.72.73h2a.73.73,0,0,0,.72-.73V44.66l.46,0a12.53,12.53,0,0,1,4.45,1,13.72,13.72,0,0,0,5.31,1.05h.34a13.61,13.61,0,0,0,5.49-1,12.77,12.77,0,0,1,5.33-1,12.71,12.71,0,0,1,5.29,1,13.73,13.73,0,0,0,5.56,1.05h0a.37.37,0,0,0,.37-.37V24.63A.38.38,0,0,0,69.61,24.26Zm-33.36,43H35.08V20.5h1.17Zm5.8-22.51-.6-.21A11.8,11.8,0,0,0,37.8,44l-.42,0v-4.7l.46,0a11.44,11.44,0,0,1,3.93.79l.28.11Zm0-5.43-.6-.21a11.8,11.8,0,0,0-3.65-.63l-.42,0V33.8l.46,0a11.69,11.69,0,0,1,3.93.79l.28.11Zm0-5.42-.6-.22a12.12,12.12,0,0,0-3.65-.63l-.42,0v-4.7l.46,0a11.69,11.69,0,0,1,3.93.79l.28.11Zm0-5.43-.6-.21a11.73,11.73,0,0,0-3.65-.64h-.42V23h.46a11.69,11.69,0,0,1,3.93.79l.28.12ZM47.58,46h-.47a12.6,12.6,0,0,1-4-.79l-.3-.1V40.43l.6.19a13.29,13.29,0,0,0,3.75.64h.45Zm0-5.43h-.47a12.92,12.92,0,0,1-4-.78l-.3-.11V35l.6.19a12.94,12.94,0,0,0,3.75.64h.45Zm0-5.42-.47,0a12.87,12.87,0,0,1-4-.78l-.3-.11V29.58l.6.19a13.59,13.59,0,0,0,3.75.64h.45Zm0-5.43-.47,0a12.59,12.59,0,0,1-4-.78l-.3-.11V24.15l.6.19a13.65,13.65,0,0,0,3.75.64h.45ZM53,45.06l-.29.11a12.55,12.55,0,0,1-3.92.79l-.48,0V41.27h.44a13,13,0,0,0,3.66-.64l.59-.19Zm0-5.42-.29.11a12.83,12.83,0,0,1-3.92.78l-.48,0v-4.7l.44,0a13,13,0,0,0,3.66-.64L53,35Zm0-5.43-.29.11a12.54,12.54,0,0,1-3.92.78l-.48,0v-4.7h.44a13.33,13.33,0,0,0,3.66-.64l.59-.2Zm0-5.43-.29.11a12.54,12.54,0,0,1-3.92.78l-.48,0V25h.44a13.33,13.33,0,0,0,3.66-.64l.59-.19Zm5.42,15.15L58,44a11.74,11.74,0,0,0-3.65.63l-.61.21V40.15L54,40a11.33,11.33,0,0,1,3.93-.79l.47,0Zm0-5.43-.43,0a11.74,11.74,0,0,0-3.65.63l-.61.21V34.72l.29-.11a11.63,11.63,0,0,1,3.93-.79l.47,0Zm0-5.43-.43,0a12.12,12.12,0,0,0-3.65.63l-.61.22V29.29l.29-.11a11.57,11.57,0,0,1,3.93-.79l.47,0Zm0-5.42H58a11.73,11.73,0,0,0-3.65.64l-.61.21V23.87l.29-.12A11.38,11.38,0,0,1,57.94,23l.47,0Zm5.42,17.13-.59-.2A13.32,13.32,0,0,0,59.58,44l-.44,0V39.24h.47a12.26,12.26,0,0,1,3.93.78l.29.12Zm0-5.43-.59-.19a13,13,0,0,0-3.66-.64l-.44,0V33.81h.47a12,12,0,0,1,3.93.79l.29.11Zm0-5.43-.59-.19a13,13,0,0,0-3.66-.64h-.44v-4.7h.47a12,12,0,0,1,3.93.79l.29.11Zm0-5.43-.59-.19a13.39,13.39,0,0,0-3.66-.64h-.44V23l.47,0a12,12,0,0,1,3.93.78l.29.11ZM69.25,46h-.46a12,12,0,0,1-3.93-.79l-.3-.11V40.41l.61.22a12,12,0,0,0,3.65.63l.43,0Zm0-5.43h-.46a12,12,0,0,1-3.93-.79l-.3-.11V35l.61.21a11.68,11.68,0,0,0,3.65.63l.43,0Zm0-5.42-.46,0a12,12,0,0,1-3.93-.78l-.3-.11V29.56l.61.21a11.91,11.91,0,0,0,3.65.64h.43Zm0-5.43-.46,0a12,12,0,0,1-3.93-.78l-.3-.11V24.13l.61.21a11.67,11.67,0,0,0,3.65.64h.43Z" style="fill:#fff"/></svg>