<svg id="Ebene_1" data-name="Ebene 1" xmlns="http://www.w3.org/2000/svg" viewBox="0 0 100 100"><title>carpooling_hub_off</title><path d="M88.6414,41.4946C88.5455,19.4073,71.3467,1.5,50.0006,1.5S11.3583,19.4073,11.3583,41.4946c0,28.5889,38.579,57.0054,38.579,57.0054S88.7679,70.0835,88.6414,41.4946Z" style="fill:#97d3d1;stroke:#fff;stroke-miterlimit:10;stroke-width:2px"/><path d="M69.6117,24.2625H69.611a12.9356,12.9356,0,0,1-5.3034-.9772,13.7244,13.7244,0,0,0-5.5608-1.0243v-.0328a13.6013,13.6013,0,0,0-5.54,1.0409,13.0258,13.0258,0,0,1-5.3081.996,13.0526,13.0526,0,0,1-5.3215-1A13.4116,13.4116,0,0,0,37.798,22.233l-.42-.0167V20.0844a.7211.7211,0,0,0-.7175-.723h-2a.7211.7211,0,0,0-.7175.723V67.723a.7212.7212,0,0,0,.7175.7232h2a.7212.7212,0,0,0,.7175-.7232V44.6585l.4573.02a12.7261,12.7261,0,0,1,4.4571.9771,13.6181,13.6181,0,0,0,5.3115,1.0579l.3356-.0055a13.4613,13.4613,0,0,0,5.49-1.0317A12.8809,12.8809,0,0,1,58.7586,44.66a12.8065,12.8065,0,0,1,5.2865.9967,13.6654,13.6654,0,0,0,5.5685,1.0482h0a.37.37,0,0,0,.37-.3676V24.6271A.3718.3718,0,0,0,69.6117,24.2625ZM36.2457,67.3046h-1.17V20.5029h1.17Zm5.8074-22.5118-.6032-.2121a11.7941,11.7941,0,0,0-3.6511-.6353l-.42-.0163V39.23l.4576.02a11.4491,11.4491,0,0,1,3.931.7872l.2861.1132Zm0-5.4292-.6032-.2112a11.8062,11.8062,0,0,0-3.6515-.635l-.42-.0163V33.8017l.4573.02a11.4342,11.4342,0,0,1,3.9313.7869l.2861.1132Zm0-5.4276-.6032-.2113a11.8087,11.8087,0,0,0-3.6511-.6349l-.42-.0164v-4.7l.4576.02a11.4491,11.4491,0,0,1,3.931.7872l.2861.1132Zm0-5.428-.6032-.212a11.8041,11.8041,0,0,0-3.6511-.6346l-.42-.0164v-4.7l.4573.02a11.4353,11.4353,0,0,1,3.9313.7876l.2861.1132Zm5.5221,17.464-.4672-.0144a12.76,12.76,0,0,1-4.0287-.7832l-.2964-.1091V40.4318l.5921.1907a13.3092,13.3092,0,0,0,3.7581.6386l.4421.0107Zm0-5.4288-.4672-.0144a12.7531,12.7531,0,0,1-4.0287-.7828l-.2964-.1091V35.0035l.5921.191a13.3084,13.3084,0,0,0,3.7581.6382l.4421.0107Zm0-5.428-.4672-.0144a12.76,12.76,0,0,1-4.0287-.7828l-.2964-.1091V29.5751l.5921.1913a13.3169,13.3169,0,0,0,3.7585.6387l.4417.0107Zm0-5.428-.4672-.0144a12.7412,12.7412,0,0,1-4.0287-.7828l-.2964-.1092V24.1471l.5921.1906a13.3045,13.3045,0,0,0,3.7581.639l.4421.0107Zm5.4195,15.3773-.2957.1095a12.674,12.674,0,0,1-3.9232.7836l-.4709.0184V41.2748l.4391-.0137a13.1787,13.1787,0,0,0,3.6578-.6383l.5929-.1924Zm0-5.428-.2957.11a12.66,12.66,0,0,1-3.9236.7828l-.47.0181v-4.7l.4388-.0137a13.1837,13.1837,0,0,0,3.6577-.6382l.5933-.1925Zm0-5.428-.2957.1095a12.6811,12.6811,0,0,1-3.9232.7828l-.4709.0181v-4.7l.4388-.014a13.19,13.19,0,0,0,3.6577-.6387l.5933-.1924Zm0-5.4284-.2957.11a12.6659,12.6659,0,0,1-3.9232.7832l-.4709.0181v-4.7l.4388-.014a13.215,13.215,0,0,0,3.6581-.6383l.5929-.1924Zm5.42,15.1487-.4358.017a11.8043,11.8043,0,0,0-3.6508.6349l-.6032.2121V40.15l.2861-.1132a11.4486,11.4486,0,0,1,3.9306-.7872l.4731-.0206Zm0-5.4283-.4358.0169a11.8,11.8,0,0,0-3.6508.635l-.6032.212V34.7218l.2861-.1132a11.427,11.427,0,0,1,3.931-.7869l.4727-.02Zm0-5.4273-.4358.0166a11.8011,11.8011,0,0,0-3.6508.6349l-.6032.212v-4.643l.2861-.1132a11.4486,11.4486,0,0,1,3.9306-.7872l.4731-.0206Zm0-5.428-.4358.0166a11.7964,11.7964,0,0,0-3.6508.6349l-.6032.2113V23.8657l.2861-.1132a11.426,11.426,0,0,1,3.931-.7872l.4727-.02Zm5.42,17.1317-.5929-.1921a13.2206,13.2206,0,0,0-3.6585-.6386l-.4388-.014V39.2357l.4668.0144a12.0532,12.0532,0,0,1,3.9314.7846l.292.111Zm0-5.4284-.5929-.1924a13.2009,13.2009,0,0,0-3.6585-.6387l-.4388-.014V33.8077l.4668.014a12.0492,12.0492,0,0,1,3.9314.7843l.292.111Zm0-5.4284-.5929-.1921a13.2226,13.2226,0,0,0-3.6585-.6382l-.4388-.014V28.3789l.4668.0144a12.05,12.05,0,0,1,3.9314.785l.292.111Zm0-5.4283L63.2416,28.3a13.1906,13.1906,0,0,0-3.6581-.6379l-.4392-.0137V22.9513l.4668.014a12.0213,12.0213,0,0,1,3.9318.7846l.2916.111Zm5.4192,17.48-.4668-.014a12.0357,12.0357,0,0,1-3.931-.7854l-.2917-.111V40.4141l.6033.2121a11.803,11.803,0,0,0,3.65.6349l.4358.017Zm0-5.428-.4668-.014a12.046,12.046,0,0,1-3.9306-.7847l-.2921-.111V34.9865l.6033.212a11.7992,11.7992,0,0,0,3.65.635l.4358.0169Zm0-5.4284-.4668-.014a12.046,12.046,0,0,1-3.9306-.7847l-.2921-.111V29.5581l.6033.212a11.7992,11.7992,0,0,0,3.65.635l.4358.0169Zm0-5.428-.4668-.014a12.0346,12.0346,0,0,1-3.9306-.7847l-.2921-.111v-4.647l.6033.2112a11.8115,11.8115,0,0,0,3.6507.6354l.4355.0169Z" style="fill:#fff"/></svg>