<svg id="Ebene_1" data-name="Ebene 1" xmlns="http://www.w3.org/2000/svg" viewBox="0 0 100 100"><title>CarPooling_Icona</title><path d="M88.64,41.49C88.55,19.41,71.35,1.5,50,1.5s-38.64,17.91-38.64,40c0,28.59,38.58,57,38.58,57S88.77,70.08,88.64,41.49Z" style="fill:#a4c4e1;stroke:#fff;stroke-miterlimit:10;stroke-width:2px"/><path d="M69.61,23.5h0a12.89,12.89,0,0,1-5.3-1,13.76,13.76,0,0,0-5.56-1v0a13.5,13.5,0,0,0-5.54,1,13.05,13.05,0,0,1-5.31,1,12.87,12.87,0,0,1-5.32-1,13.5,13.5,0,0,0-4.78-1h-.42V19.32a.72.72,0,0,0-.72-.72h-2a.72.72,0,0,0-.72.72V67a.72.72,0,0,0,.72.72h2a.72.72,0,0,0,.72-.72V43.9l.46,0a12.78,12.78,0,0,1,4.45,1A13.51,13.51,0,0,0,47.6,46h.34a13.41,13.41,0,0,0,5.49-1,13,13,0,0,1,5.33-1,12.71,12.71,0,0,1,5.29,1,13.76,13.76,0,0,0,5.56,1h0a.36.36,0,0,0,.37-.36V23.87A.38.38,0,0,0,69.61,23.5Zm-33.36,43H35.08V19.74h1.17ZM42.05,44l-.6-.21a12,12,0,0,0-3.65-.64h-.42v-4.7l.46,0a11.2,11.2,0,0,1,3.93.79l.28.11Zm0-5.43-.6-.21a11.8,11.8,0,0,0-3.65-.63l-.42,0V33l.46,0a11.2,11.2,0,0,1,3.93.79l.28.11Zm0-5.43-.6-.21a12.12,12.12,0,0,0-3.65-.63l-.42,0v-4.7l.46,0a11.69,11.69,0,0,1,3.93.79l.28.11Zm0-5.42-.6-.22a12.12,12.12,0,0,0-3.65-.63l-.42,0v-4.7l.46,0a11.69,11.69,0,0,1,3.93.79l.28.11Zm5.53,17.46h-.47a12.88,12.88,0,0,1-4-.79l-.3-.11V39.67l.6.19a13.29,13.29,0,0,0,3.75.64h.45Zm0-5.43h-.47a12.66,12.66,0,0,1-4-.79l-.3-.1V34.24l.6.19a12.94,12.94,0,0,0,3.75.64h.45Zm0-5.43h-.47a12.87,12.87,0,0,1-4-.78l-.3-.11V28.81l.6.2a13.22,13.22,0,0,0,3.75.63h.45Zm0-5.42-.47,0a12.59,12.59,0,0,1-4-.78l-.3-.11V23.39l.6.19a13.65,13.65,0,0,0,3.75.64h.45ZM53,44.3l-.29.11a12.84,12.84,0,0,1-3.92.79H48.3v-4.7h.44a13,13,0,0,0,3.66-.64l.59-.19Zm0-5.42-.29.1a12.55,12.55,0,0,1-3.92.79l-.48,0v-4.7l.44,0a13,13,0,0,0,3.66-.64l.59-.19Zm0-5.43-.29.11a12.83,12.83,0,0,1-3.92.78l-.48,0v-4.7l.44,0A13.32,13.32,0,0,0,52.4,29l.59-.2ZM53,28l-.29.11a12.54,12.54,0,0,1-3.92.78l-.48,0v-4.7h.44a13.33,13.33,0,0,0,3.66-.64l.59-.2Zm5.42,15.15H58a12,12,0,0,0-3.65.64l-.61.21V39.39l.29-.11a11.1,11.1,0,0,1,3.93-.79l.47,0Zm0-5.43-.43,0a11.74,11.74,0,0,0-3.65.63l-.61.21V34l.29-.11a11.38,11.38,0,0,1,3.93-.79l.47,0Zm0-5.43-.43,0a12.12,12.12,0,0,0-3.65.63l-.61.22V28.53l.29-.11a11.57,11.57,0,0,1,3.93-.79l.47,0Zm0-5.43-.43,0a11.73,11.73,0,0,0-3.65.64l-.61.21V23.1L54,23a11.57,11.57,0,0,1,3.93-.79l.47,0ZM63.83,44l-.59-.2a13.33,13.33,0,0,0-3.66-.64h-.44v-4.7l.47,0a12,12,0,0,1,3.93.78l.29.11Zm0-5.43-.59-.2a13.32,13.32,0,0,0-3.66-.63l-.44,0V33.05h.47a12.26,12.26,0,0,1,3.93.78l.29.12Zm0-5.43L63.24,33a13,13,0,0,0-3.66-.64l-.44,0V27.62h.47a12,12,0,0,1,3.93.79l.29.11Zm0-5.43-.59-.19a13,13,0,0,0-3.66-.64h-.44v-4.7h.47a12,12,0,0,1,3.93.79l.29.11Zm5.42,17.48h-.46a12,12,0,0,1-3.93-.79l-.3-.11V39.65l.61.21a11.6,11.6,0,0,0,3.65.64l.43,0Zm0-5.43h-.46A12,12,0,0,1,64.86,39l-.3-.11V34.23l.61.21a11.68,11.68,0,0,0,3.65.63l.43,0Zm0-5.43h-.46a12,12,0,0,1-3.93-.78l-.3-.12V28.8l.61.21a11.68,11.68,0,0,0,3.65.63l.43,0Zm0-5.42-.46,0a12,12,0,0,1-3.93-.78l-.3-.11V23.37l.61.21a12,12,0,0,0,3.65.64h.43Z" style="fill:#fff"/></svg>