<svg id="Ebene_1" data-name="Ebene 1" xmlns="http://www.w3.org/2000/svg" viewBox="0 0 65 65"><title>CarPooling_Icona</title><path d="M32.5,30.19a5.83,5.83,0,1,1,5.83-5.83A5.84,5.84,0,0,1,32.5,30.19Zm0-9.41a3.58,3.58,0,1,0,3.58,3.58A3.59,3.59,0,0,0,32.5,20.78Z"/><path d="M32.47,58.23l-.85-1c-.69-.81-16.7-19.84-16.7-32.29,0-10,7.88-18.16,17.58-18.16S50,14.92,50.08,24.93h0C50.14,37.38,34,56.42,33.33,57.22ZM32.5,9C24,9,17.17,16.16,17.17,24.93c0,10.06,12,25.64,15.31,29.79C35.83,50.57,47.88,35,47.83,24.94h0C47.8,16.16,40.92,9,32.5,9Z"/></svg>