<svg id="Ebene_1" data-name="Ebene 1" xmlns="http://www.w3.org/2000/svg" viewBox="0 0 65 65"><title>CarPooling_Icona_Stella1</title><path d="M45.9844,54.25a.9982.9982,0,0,1-.4654-.1152L32.5,47.291,19.481,54.1348A1,1,0,0,1,18.03,53.0811L20.5161,38.584,9.9839,28.3174a1,1,0,0,1,.5547-1.7051l14.5552-2.1152L31.603,11.3076a1.041,1.041,0,0,1,1.794,0l6.5092,13.1895,14.5552,2.1152a1,1,0,0,1,.5547,1.7051L44.4839,38.584,46.97,53.0811a1.0007,1.0007,0,0,1-.9858,1.1689ZM32.5,45.1611a.9923.9923,0,0,1,.4653.1153l11.6909,6.1455L42.4233,38.4043a1.0019,1.0019,0,0,1,.2876-.8848l9.458-9.22L39.0986,26.4a1,1,0,0,1-.7534-.5469L32.5,14.01,26.6548,25.8535a1,1,0,0,1-.7534.5469L12.8311,28.3l9.458,9.22a1.0019,1.0019,0,0,1,.2876.8848L20.3438,51.4219l11.6909-6.1455A.9923.9923,0,0,1,32.5,45.1611Z"/></svg>