<svg id="Ebene_1" data-name="Ebene 1" xmlns="http://www.w3.org/2000/svg" viewBox="0 0 65 65"><title>CarPooling_Icona_Passaggero</title><path d="M41.84,42.21l-.37-.07V40.39l.17-.14c.29-.23.58-.5.9-.81a16.5,16.5,0,0,0,4.18-9.24,7,7,0,0,1,.82-3,7.93,7.93,0,0,0,1.94-5.91,5.39,5.39,0,0,0-1.85-3.19L47.48,18v-.2a1.34,1.34,0,0,1,0-.2C46.69,6,38.43,4.33,34.88,4.33a13.86,13.86,0,0,0-2.32.17h-.13a14.46,14.46,0,0,0-2.27-.17h-.05c-3.6,0-12,1.31-12.59,13.43V18l-.16.13a5.38,5.38,0,0,0-1.87,3.2,8.62,8.62,0,0,0,1.95,5.88,5.34,5.34,0,0,1,.79,2.64l.05.36a16.49,16.49,0,0,0,4.21,9.27,9.89,9.89,0,0,0,.89.8l.16.14v1.75l-.37.07C19.24,43-.31,47.38,0,59.87a.79.79,0,0,0,.79.8H64.21a.79.79,0,0,0,.79-.78C65.31,47.38,45.76,43,41.84,42.21ZM19.21,17.06c.7-9.23,6.35-11.17,11-11.17a12.52,12.52,0,0,1,2.21.18.73.73,0,0,0,.33,0,13,13,0,0,1,2.23-.18c3.73,0,10.14,2.26,11,11.77l-.43,0a26.09,26.09,0,0,1-15.18-3.81.78.78,0,0,0-1,.09c-2.57,2.76-7.09,3.43-9.55,3.58l-.53,0Zm.44,10.66a1,1,0,0,0-.15-.54c-1.82-2.09-2.63-4-2.4-5.59a3.78,3.78,0,0,1,1.3-2.39l.13-.11h.17c1.16,0,7.14-.17,10.92-3.43l.25-.22.28.17a27.74,27.74,0,0,0,13.63,3.68,16.31,16.31,0,0,0,2.49-.13l.21,0,.16.13a3.78,3.78,0,0,1,1.28,2.33c.23,1.59-.59,3.53-2.39,5.59a.78.78,0,0,0-.2.53v.65l-.42,3.15a14.12,14.12,0,0,1-3.46,6.84,11.64,11.64,0,0,1-8.05,3.26l-.58,0h-.6a11.61,11.61,0,0,1-8.58-3.21C19.78,34.53,19.65,28.4,19.65,27.72ZM39.89,41.47v5c0,1.59-3,3.35-7.4,3.35S25.1,48.09,25.1,46.5v-5l.65.31a14.7,14.7,0,0,0,6.42,1.35h.64a14.83,14.83,0,0,0,6.43-1.35ZM18.44,59c-2.64-2.67-5.26-9-6.3-11.71a47,47,0,0,1,5.74-2.17c1,2.38,4.54,10.39,7.91,13.89ZM1.62,58.52c.52-5,4.91-8.46,9.69-10.8C12.3,50.3,14.65,56,17.2,59H1.57ZM27.14,59c-3.33-2.73-7.25-11.54-8.37-14.16,1.72-.51,3.2-.85,4.2-1.06l.55-.12v2.8c0,2.53,3.19,4.54,7.76,4.89h2.46c4.54-.31,7.73-2.33,7.73-4.89V43.74l.55.11c4.74,1,20.29,5,21.35,14.7l.05.51Z"/></svg>