<svg id="Ebene_1" data-name="Ebene 1" xmlns="http://www.w3.org/2000/svg" viewBox="0 0 100 100"><title>UI_BusMeran_CarPooling</title><path d="M88.6416,41.4945C88.5457,19.4073,71.3469,1.5,50.0008,1.5,28.6566,1.5,11.358,19.4073,11.358,41.4945,11.358,70.0835,49.9375,98.5,49.9375,98.5S88.77,70.0835,88.6416,41.4945Z" style="fill:#009a92;stroke:#fff;stroke-miterlimit:10;stroke-width:2px"/><path d="M26.4927,61.2236a.0859.0859,0,0,1-.0835-.0918c-.2261-8.874,13.9238-12.0566,16.7627-12.6045l.6811-.1328V46.4492l-.3095-.251c-.2178-.1787-.43-.37-.6182-.5595a11.7389,11.7389,0,0,1-2.9815-6.5762l-.0341-.2764a4.31,4.31,0,0,0-.6817-2.1884A5.8941,5.8941,0,0,1,37.88,32.5811a3.4749,3.4749,0,0,1,1.2085-2.0362l.2876-.2383.018-.3711c.3926-8.5595,6.31-9.4834,8.8355-9.4834a11.0183,11.0183,0,0,1,1.64.1192l.0752.0117.1265-.0039a10.6386,10.6386,0,0,1,1.5913-.1279c2.0234.0009,8.3476.6748,8.9272,9.3476l.022.5039.2852.2383a3.4645,3.4645,0,0,1,1.1963,2.0606,5.36,5.36,0,0,1-1.3209,3.97,5.3536,5.3536,0,0,0-.7236,2.4873,11.7323,11.7323,0,0,1-2.979,6.585,7.8182,7.8182,0,0,1-.61.5507l-.313.2539v1.9463l.6811.1328c2.8394.5479,16.9888,3.7315,16.7627,12.6a.0878.0878,0,0,1-.0835.0966Zm46.9912-.1953-.1026-.9326c-.8247-7.56-12.6254-10.585-16.2226-11.3311l-1.0117-.2119v2.6534c0,1.6035-2.2134,2.9189-5.2627,3.1279l-1.791.01c-3.0245-.2325-5.2491-1.5489-5.2491-3.128V48.5205l-1.0161.2168c-.71.1514-1.834.4121-3.1484.7969l-.54.1582.0015.0029-.1274.04A35.3557,35.3557,0,0,0,34.7,51.3711l-.1377.0635-.002-.0049-.2866.1377-.2046.1025c-4.6015,2.2588-7.1118,5.085-7.46,8.4014l-.0967.93,13.22.0078,6.1123.0039ZM44.0117,51.2158c0,1.6465,2.6846,2.9863,5.9839,2.9863s5.9834-1.34,5.9834-2.9863V46.707l-1.1948.5547a10.4593,10.4593,0,0,1-4.3711.96h-.8672a10.3855,10.3855,0,0,1-4.3389-.96l-1.1953-.5537Zm6.2251-3.1367c.1279.0068.2783.0107.4287.0107a9.0686,9.0686,0,0,0,6.3194-2.5546,11.0613,11.0613,0,0,0,2.7089-5.3321l.3135-2.3711.0044-.5488c1.4561-1.7041,2.11-3.2734,1.9151-4.6025a3.2808,3.2808,0,0,0-1.1182-2.0371l-.2949-.252-.3819.0605a11.5426,11.5426,0,0,1-1.7729.0918,20.0492,20.0492,0,0,1-9.85-2.663l-.5171-.2979-.4517.3906c-2.67,2.3047-6.9448,2.4219-7.7744,2.4219h-.3115l-.2358.2031A3.2719,3.2719,0,0,0,38.09,32.69c-.1924,1.3339.4375,2.8544,1.8736,4.5087a.6125.6125,0,0,0,.0068.1192c.0005.5039.0967,5.2334,3.1089,8.2373A9.1847,9.1847,0,0,0,49.3755,48.09c.1426,0,.2856-.0039.4287-.0107ZM48.0088,27.418a.1179.1179,0,0,1,.07.0244A19.8628,19.8628,0,0,0,58.4834,30.39c.3857,0,.7734-.0107,1.1611-.0332l.8286-.0507-.0439-.5108c-.5815-6.7793-5.0063-9.1845-8.6187-9.1845h-.0068a10.0286,10.0286,0,0,0-1.73.1425,11.04,11.04,0,0,0-1.6972-.1435l-.1094.001c-2.9653,0-8.0376,1.1357-8.6187,8.74l-.0732.9639.9644-.0606c1.9013-.1191,5.393-.6426,7.415-2.8164Z" style="fill:#838c92"/><path d="M51.6744,19.9513a10.9363,10.9363,0,0,0-1.6279.1262l-.051.0076-.051-.0076a11.3245,11.3245,0,0,0-1.6829-.1258H48.23c-2.67,0-8.9225.9705-9.3352,9.96l-.007.1512-.1166.0963a3.9907,3.9907,0,0,0-1.3891,2.3771,6.4064,6.4064,0,0,0,1.445,4.3608,3.8788,3.8788,0,0,1,.5867,1.9511l.0336.2723a12.2461,12.2461,0,0,0,3.1233,6.871c.2.2008.4251.4046.6572.5943l.1253.1022v1.2945l-.2762.0535c-2.9087.5618-17.4042,3.8338-17.168,13.0955a.5863.5863,0,0,0,.5839.5925H73.5071a.5846.5846,0,0,0,.5839-.5838c.2362-9.27-14.26-12.5424-17.1677-13.1042l-.2765-.0535V46.6866l.1266-.1022A8.363,8.363,0,0,0,57.44,45.98a12.223,12.223,0,0,0,3.1029-6.8458,5.2079,5.2079,0,0,1,.6053-2.2322,5.8591,5.8591,0,0,0,1.4377-4.385,3.9806,3.9806,0,0,0-1.3681-2.3591l-.1155-.0966-.0064-.15c-.0023-.0488-.0043-.0968-.007-.1452-.5729-8.5719-6.6949-9.8136-9.3272-9.8136l-.0876,0ZM40.117,29.78l.03-.3908c.5231-6.8417,4.7077-8.2785,8.1267-8.2788.0335,0,.0672-.0006.1007-.0006a9.1,9.1,0,0,1,1.54.135.6543.6543,0,0,0,.13.0136.5577.5577,0,0,0,.1143-.0118,9.3224,9.3224,0,0,1,1.5749-.1366l.0773,0c2.7632,0,7.5154,1.676,8.12,8.7274l-.3151.02q-.5681.0327-1.1337.0327a19.2927,19.2927,0,0,1-10.117-2.8574.6231.6231,0,0,0-.357-.1145.5756.5756,0,0,0-.42.1789c-1.9037,2.0466-5.2532,2.5441-7.08,2.6583l-.3914.0245Zm9.2608,17.81a8.6372,8.6372,0,0,1-5.945-2.39c-2.8665-2.8575-2.9614-7.4-2.9627-7.9089a.7068.7068,0,0,0-.1093-.3988c-1.35-1.5482-1.9474-2.9408-1.7742-4.1408a2.78,2.78,0,0,1,.9581-1.7742l.0956-.0814h.1256c.8607,0,5.2965-.1226,8.1013-2.5439l.1832-.1582.21.1207A20.5547,20.5547,0,0,0,58.359,31.0438a11.9672,11.9672,0,0,0,1.8508-.0976l.1546-.024.1192.1015a2.7819,2.7819,0,0,1,.9487,1.7289c.1726,1.1789-.44,2.6105-1.7735,4.138a.583.583,0,0,0-.1469.3924v.484l-.3084,2.3388a10.527,10.527,0,0,1-2.5653,5.0692A8.63,8.63,0,0,1,50.6657,47.59h-.01c-.14,0-.2788-.0036-.4187-.0108l-.445.0005q-.2071.01-.4142.01Zm1.0352,1.1313a10.9373,10.9373,0,0,0,4.5816-1.0059l.4846-.2247v3.7252c0,1.1763-2.2521,2.4869-5.4837,2.4869s-5.4838-1.3106-5.4838-2.4869V47.49l.4848.2247a10.8756,10.8756,0,0,0,4.546,1.0066q.1079,0,.2155-.0022h.4687c.062.0011.1243.0015.1863.0015ZM72.9258,60.5286l-26.9017-.0163c-2.4667-2.0269-5.3758-8.5573-6.2039-10.4981,1.2745-.3733,2.3718-.6308,3.1123-.7879l.4117-.0874v2.0766c0,1.8776,2.3655,3.37,5.7522,3.6278l1.8222-.01c3.3637-.2308,5.7282-1.7226,5.7282-3.6269V49.1684l.41.0853c3.5137.73,15.0395,3.6739,15.8273,10.8966l.0413.3783Zm-27.8984-.017-5.4487-.0033c-1.9564-1.9854-3.9018-6.691-4.6693-8.6835a35.35,35.35,0,0,1,4.2522-1.6123c.7472,1.7674,3.3665,7.7083,5.8658,10.2991Zm-6.3665-.0038-11.594-.0072.0393-.3766c.3874-3.6859,3.64-6.2652,7.1833-8.0044.7355,1.9151,2.4777,6.125,4.3714,8.3882Z" style="fill:#fff"/></svg>