<svg id="Ebene_1" data-name="Ebene 1" xmlns="http://www.w3.org/2000/svg" viewBox="0 0 100 100"><title>UI_BusMeran_CarPooling</title><path d="M88.6416,41.4945C88.5457,19.4073,71.3469,1.5,50.0008,1.5,28.6566,1.5,11.358,19.4073,11.358,41.4945,11.358,70.0835,49.9375,98.5,49.9375,98.5S88.77,70.0835,88.6416,41.4945Z" style="fill:#97d3d1;stroke:#fff;stroke-miterlimit:10;stroke-width:2px"/><path d="M26.4927,61.2234a.0859.0859,0,0,1-.0835-.0918c-.2261-8.874,13.9238-12.0566,16.7627-12.6045l.6811-.1328V46.4519l-.3081-.2529a8.0451,8.0451,0,0,1-.62-.5606,11.7383,11.7383,0,0,1-2.9815-6.5761l-.0341-.2754a4.3025,4.3025,0,0,0-.6822-2.19A5.8972,5.8972,0,0,1,37.88,32.5808a3.4747,3.4747,0,0,1,1.2085-2.0361l.2876-.2383.018-.37c.3926-8.56,6.31-9.4844,8.8355-9.4844a10.8414,10.8414,0,0,1,1.6391.12l.0708.0108.1226-.0029a10.6905,10.6905,0,0,1,1.6025-.128c2.0215,0,8.3457.6739,8.9253,9.3467l.022.5049.2852.2383a3.4568,3.4568,0,0,1,1.1963,2.06,5.3583,5.3583,0,0,1-1.3209,3.97,5.3616,5.3616,0,0,0-.7236,2.4873,11.732,11.732,0,0,1-2.979,6.5849,8.1923,8.1923,0,0,1-.6113.5528l-.312.2509v1.9473l.6811.1328c2.8394.5479,16.9888,3.7315,16.7627,12.6006a.0878.0878,0,0,1-.0835.0957Zm46.9907-.1943-.1021-.9336c-.8242-7.5567-12.625-10.583-16.2226-11.3311l-1.0117-.21v2.6513c0,1.6035-2.2134,2.919-5.2627,3.128l-1.791.01c-3.0245-.2324-5.2491-1.5488-5.2491-3.1279V48.52l-1.0161.2168c-.7051.15-1.8237.41-3.1484.7978l-.54.1582.0014.003-.1269.039A35.5023,35.5023,0,0,0,34.7,51.3709l-.1382.0634L34.56,51.43l-.4908.24c-4.6015,2.2588-7.1118,5.0849-7.46,8.4l-.0967.93,19.332.0107ZM44.0117,51.2156c0,1.6465,2.6846,2.9863,5.9839,2.9863s5.9834-1.34,5.9834-2.9863V46.7068l-1.1948.5547a10.4593,10.4593,0,0,1-4.3711.96h-.8672a10.3855,10.3855,0,0,1-4.3389-.96l-1.1953-.5537ZM39.9639,37.198c-.0074,0,.0029.0449.0068.1192.0005.5039.0967,5.2334,3.1089,8.2373A9.1825,9.1825,0,0,0,49.3784,48.09c.146,0,.292-.0029.438-.0107h.4214c.1245.0078.2764.0107.4277.0107a9.0682,9.0682,0,0,0,6.3194-2.5547,11.0617,11.0617,0,0,0,2.7089-5.331l.3135-2.3711.0044-.55c1.4561-1.7041,2.11-3.2735,1.9151-4.6026a3.2737,3.2737,0,0,0-1.1187-2.0361l-.2935-.25-.38.0576a11.6009,11.6009,0,0,1-1.7759.0918,20.0374,20.0374,0,0,1-9.85-2.6631l-.5181-.2959-.4507.39c-2.6714,2.3047-6.9448,2.4219-7.7744,2.4219h-.31l-.2354.2A3.2747,3.2747,0,0,0,38.09,32.69C37.8979,34.0252,38.5278,35.5447,39.9639,37.198Zm8.0434-9.78a.1244.1244,0,0,1,.0713.0254A19.8788,19.8788,0,0,0,58.4805,30.39c.3867,0,.7754-.0117,1.164-.0342l.8286-.0508-.0439-.5107c-.5815-6.7793-5.0063-9.1846-8.6187-9.1846h-.0068a10.1216,10.1216,0,0,0-1.73.1426,11.1391,11.1391,0,0,0-1.6977-.1435l-.1094.0009c-2.9653,0-8.0371,1.1358-8.6187,8.74l-.0732.9648.9644-.0605c1.9008-.1192,5.3925-.6436,7.415-2.8174Z" style="fill:#838c92"/><path d="M51.6743,19.9513a10.936,10.936,0,0,0-1.6278.1261l-.051.0077-.051-.0077a11.3378,11.3378,0,0,0-1.6829-.1257H48.23c-2.67,0-8.9225.9706-9.3352,9.96l-.007.1513-.1166.0962a3.9906,3.9906,0,0,0-1.3891,2.3772,6.4062,6.4062,0,0,0,1.445,4.3607,3.8794,3.8794,0,0,1,.5867,1.951l.0336.2724a12.2458,12.2458,0,0,0,3.1233,6.8709,8.8533,8.8533,0,0,0,.6572.5944l.1253.1023v1.2944l-.2762.0535c-2.9087.5618-17.4042,3.8338-17.168,13.0956a.5863.5863,0,0,0,.5839.5924H73.5071a.5846.5846,0,0,0,.5839-.5838c.2362-9.27-14.26-12.5424-17.1677-13.1042l-.2765-.0535V46.6867l.1266-.1023A8.363,8.363,0,0,0,57.44,45.98a12.2233,12.2233,0,0,0,3.1029-6.8458,5.2079,5.2079,0,0,1,.6053-2.2322,5.8591,5.8591,0,0,0,1.4377-4.385,3.9806,3.9806,0,0,0-1.3681-2.3591l-.1155-.0966-.0064-.15c-.0023-.0488-.0043-.0968-.007-.1452-.5729-8.5719-6.6949-9.8136-9.3272-9.8136l-.0877,0ZM40.117,29.78l.03-.3909c.5231-6.8417,4.7077-8.2784,8.1267-8.2787.0338,0,.0676-.0006.1014-.0006a9.0917,9.0917,0,0,1,1.54.135.6552.6552,0,0,0,.13.0136.5709.5709,0,0,0,.1142-.0117,9.314,9.314,0,0,1,1.5741-.1366l.0781,0c2.7632,0,7.5154,1.6761,8.12,8.7274l-.3151.02q-.5681.0327-1.1336.0327a19.2937,19.2937,0,0,1-10.1171-2.8574.6226.6226,0,0,0-.3571-.1145.5758.5758,0,0,0-.42.1788c-1.9037,2.0467-5.2532,2.5442-7.08,2.6585l-.3914.0244Zm9.2606,17.81a8.6369,8.6369,0,0,1-5.9448-2.39c-2.8665-2.8574-2.9614-7.4-2.9627-7.9088a.708.708,0,0,0-.1093-.399c-1.35-1.5481-1.9474-2.9406-1.7742-4.1407a2.78,2.78,0,0,1,.9581-1.7742l.0956-.0814h.1256c.8607,0,5.2965-.1227,8.1013-2.5438l.1832-.1584.21.1209A20.5534,20.5534,0,0,0,58.359,31.0437a11.9793,11.9793,0,0,0,1.8508-.0975l.1546-.0241.1192.1016a2.7819,2.7819,0,0,1,.9487,1.7289c.1726,1.1789-.44,2.6105-1.7735,4.1379a.5834.5834,0,0,0-.1469.3925v.484l-.3084,2.3389a10.5259,10.5259,0,0,1-2.5653,5.069A8.6294,8.6294,0,0,1,50.6657,47.59h-.0068c-.1406,0-.2809-.0036-.4219-.0108l-.445.0005c-.1381.0068-.2765.01-.4144.01Zm1.0358,1.1314a10.934,10.934,0,0,0,4.5812-1.006l.4846-.2247v3.7252c0,1.1762-2.2521,2.4869-5.4837,2.4869s-5.4838-1.3107-5.4838-2.4869V47.49l.4848.2247a10.874,10.874,0,0,0,4.546,1.0066q.1079,0,.2155-.0022h.4687c.0621.0011.1246.0016.1867.0016ZM72.9258,60.5286l-26.9017-.0164c-2.4667-2.0268-5.3758-8.5571-6.2039-10.498,1.2745-.3733,2.3718-.6308,3.1123-.7879l.4117-.0874v2.0766c0,1.8777,2.3655,3.37,5.7522,3.6278l1.8222-.01c3.3637-.2309,5.7282-1.7227,5.7282-3.627V49.1684l.41.0853c3.5137.73,15.0395,3.6739,15.8273,10.8966l.0413.3783Zm-27.8984-.017-5.4487-.0033c-1.9564-1.9855-3.9018-6.691-4.6693-8.6834a35.3515,35.3515,0,0,1,4.2522-1.6124c.7472,1.7674,3.3665,7.7083,5.8658,10.2991Zm-6.3665-.0038-11.594-.0072.0393-.3766c.3874-3.6859,3.64-6.2652,7.1833-8.0044.7355,1.9151,2.4777,6.125,4.3714,8.3882Z" style="fill:#fff"/></svg>