<svg id="Ebene_1" data-name="Ebene 1" xmlns="http://www.w3.org/2000/svg" viewBox="0 0 100 100"><title>CarPooling_Icona</title><path d="M88.64,41.49C88.55,19.41,71.35,1.5,50,1.5s-38.64,17.91-38.64,40c0,28.59,38.58,57,38.58,57S88.77,70.08,88.64,41.49Z" style="fill:#3193c5;stroke:#fff;stroke-miterlimit:10;stroke-width:2px"/><path d="M26.49,61.22a.09.09,0,0,1-.08-.09c-.23-8.87,13.92-12.05,16.76-12.6l.68-.14V46.45l-.31-.25a8.27,8.27,0,0,1-.61-.56,11.74,11.74,0,0,1-3-6.58l0-.27a4.3,4.3,0,0,0-.68-2.19,5.9,5.9,0,0,1-1.35-4,3.5,3.5,0,0,1,1.21-2l.29-.23v-.37c.4-8.56,6.31-9.49,8.84-9.49a10.91,10.91,0,0,1,1.64.12h.2a10.29,10.29,0,0,1,1.59-.13c2,0,8.35.68,8.93,9.35l0,.5.29.24a3.43,3.43,0,0,1,1.19,2.06,5.32,5.32,0,0,1-1.32,4,5.39,5.39,0,0,0-.72,2.49,11.76,11.76,0,0,1-3,6.58,7.57,7.57,0,0,1-.61.55l-.31.26v1.94l.68.14c2.84.55,17,3.73,16.76,12.6a.08.08,0,0,1-.08.09Zm47-.19-.1-.93c-.82-7.56-12.62-10.59-16.22-11.34l-1-.21v2.66c0,1.6-2.22,2.91-5.27,3.12H49.09c-3-.23-5.25-1.55-5.25-3.12v-2.7l-1,.22c-.71.15-1.84.41-3.15.79l-.54.16h0l-.13,0a34.88,34.88,0,0,0-4.31,1.63l-.14.06h0l-.29.14-.2.1c-4.6,2.26-7.11,5.08-7.46,8.4l-.1.93H45.84ZM44,51.22c0,1.64,2.69,3,6,3s6-1.34,6-3V46.71l-1.2.55a10.39,10.39,0,0,1-4.37,1h-.86a10.33,10.33,0,0,1-4.34-1L44,46.71Zm6.23-3.14h.43A9.08,9.08,0,0,0,57,45.54a11,11,0,0,0,2.71-5.34L60,37.83v-.55c1.46-1.7,2.11-3.27,1.92-4.6a3.31,3.31,0,0,0-1.12-2l-.3-.25-.38.06a11.73,11.73,0,0,1-1.77.09,20,20,0,0,1-9.85-2.66l-.52-.3-.45.39c-2.67,2.31-6.94,2.43-7.77,2.43h-.32l-.23.2a3.25,3.25,0,0,0-1.13,2.09C37.9,34,38.53,35.54,40,37.2a.55.55,0,0,1,0,.12c0,.5.1,5.23,3.11,8.23a9.16,9.16,0,0,0,6.3,2.54h.86ZM48,27.42a.12.12,0,0,1,.07,0,19.8,19.8,0,0,0,10.4,2.95c.39,0,.78,0,1.16,0l.83-.05,0-.52c-.58-6.77-5-9.18-8.62-9.18h0a10.54,10.54,0,0,0-1.73.14,11.65,11.65,0,0,0-1.69-.14h-.11c-3,0-8,1.14-8.62,8.74l-.07,1,1-.06c1.9-.12,5.39-.64,7.41-2.81Z" style="fill:#838c92"/><path d="M51.67,20a11,11,0,0,0-1.62.13h-.11A10.47,10.47,0,0,0,48.26,20h0c-2.67,0-8.92,1-9.34,10v.15l-.12.1a4,4,0,0,0-1.39,2.38,6.38,6.38,0,0,0,1.45,4.36,3.78,3.78,0,0,1,.58,2l0,.27A12.28,12.28,0,0,0,42.57,46c.2.2.43.41.66.6l.12.1V48l-.27.06c-2.91.56-17.41,3.83-17.17,13.09a.58.58,0,0,0,.58.59h47a.58.58,0,0,0,.58-.58C74.33,51.87,59.83,48.6,56.92,48L56.65,48V46.69l.12-.11a7.09,7.09,0,0,0,.67-.6,12.16,12.16,0,0,0,3.1-6.85,5.2,5.2,0,0,1,.61-2.23,5.88,5.88,0,0,0,1.44-4.38,4,4,0,0,0-1.37-2.36l-.12-.1v-.15a.71.71,0,0,1,0-.14c-.57-8.58-6.7-9.82-9.33-9.82ZM40.12,29.78l0-.39c.52-6.84,4.7-8.28,8.12-8.28h.1a9.8,9.8,0,0,1,1.54.13l.13,0h.12a9.26,9.26,0,0,1,1.57-.14h.08c2.76,0,7.52,1.68,8.12,8.73l-.31,0q-.57,0-1.14,0A19.26,19.26,0,0,1,48.37,27a.72.72,0,0,0-.36-.11.56.56,0,0,0-.42.18c-1.91,2-5.25,2.54-7.08,2.66l-.39,0Zm9.26,17.81a8.65,8.65,0,0,1-6-2.39c-2.86-2.86-3-7.4-3-7.91a.68.68,0,0,0-.11-.4c-1.35-1.55-2-2.94-1.77-4.14A2.73,2.73,0,0,1,39.54,31l.1-.08h.13c.86,0,5.29-.13,8.1-2.55l.18-.16.21.12A20.48,20.48,0,0,0,58.36,31,12.94,12.94,0,0,0,60.21,31l.15,0,.12.1a2.78,2.78,0,0,1,1,1.73c.17,1.18-.44,2.61-1.77,4.14a.58.58,0,0,0-.15.39v.49l-.31,2.34a10.48,10.48,0,0,1-2.56,5.06,8.61,8.61,0,0,1-6,2.42H49.38Zm1,1.13a10.77,10.77,0,0,0,4.58-1l.49-.22v3.73c0,1.17-2.25,2.48-5.48,2.48s-5.49-1.31-5.49-2.48V47.49l.49.22a10.78,10.78,0,0,0,4.54,1h.87ZM72.93,60.53,46,60.51c-2.46-2-5.37-8.55-6.2-10.5,1.27-.37,2.37-.63,3.11-.78l.41-.09v2.08c0,1.87,2.37,3.36,5.76,3.62h1.82c3.36-.23,5.73-1.72,5.73-3.62v-2l.41.08c3.51.73,15,3.68,15.82,10.9l.05.38Zm-27.9,0H39.58c-2-2-3.9-6.69-4.67-8.69a36.66,36.66,0,0,1,4.25-1.61c.75,1.77,3.37,7.71,5.87,10.3Zm-6.37,0H27.07l0-.38c.38-3.68,3.64-6.26,7.18-8,.73,1.91,2.48,6.12,4.37,8.39Z" style="fill:#fff"/></svg>