<svg id="Ebene_1" data-name="Ebene 1" xmlns="http://www.w3.org/2000/svg" viewBox="0 0 65 65"><title>CarPooling_Icona</title><path d="M32.51,53.9A21.4,21.4,0,1,1,47.64,17.36h0A21.41,21.41,0,0,1,32.51,53.9Zm0-40.55A19.15,19.15,0,1,0,46.05,19,19.12,19.12,0,0,0,32.5,13.35Z"/><polygon points="37.59 39.18 31.38 32.96 31.38 19.41 33.63 19.41 33.63 32.03 39.19 37.59 37.59 39.18"/><rect x="14.19" y="31.37" width="2.62" height="2.25"/><rect x="48.2" y="31.37" width="2.62" height="2.25"/><rect x="31.38" y="48.19" width="2.25" height="2.62"/><rect x="31.38" y="14.18" width="2.25" height="2.62"/></svg>