<?xml version="1.0" encoding="utf-8"?>
<!-- Generator: Adobe Illustrator 16.0.4, SVG Export Plug-In . SVG Version: 6.00 Build 0)  -->
<!DOCTYPE svg PUBLIC "-//W3C//DTD SVG 1.1//EN" "http://www.w3.org/Graphics/SVG/1.1/DTD/svg11.dtd">
<svg version="1.1" xmlns="http://www.w3.org/2000/svg" xmlns:xlink="http://www.w3.org/1999/xlink" x="0px" y="0px" width="200px"
	 height="200px" viewBox="0 0 200 200" enable-background="new 0 0 200 200" xml:space="preserve">
<g id="Ebene_1">
	<path fill-rule="evenodd" clip-rule="evenodd" d="M118.709,107.366c0,0.938,0.769,1.707,1.709,1.707
		c0.938,0,1.707-0.769,1.707-1.707s-0.77-1.708-1.707-1.708C119.478,105.658,118.709,106.428,118.709,107.366z M120.418,95.411
		c-0.734,0-1.452,0.067-2.152,0.205l2.578,8.367c1.675,0.224,2.989,1.642,2.989,3.383c0,1.878-1.538,3.415-3.415,3.415
		c-1.879,0-3.416-1.537-3.416-3.415c0-1.314,0.75-2.461,1.861-3.022l-2.529-8.199c-4.594,1.658-7.871,6.046-7.871,11.222
		c0,6.609,5.344,11.955,11.955,11.955c6.609,0,11.955-5.346,11.955-11.955C132.373,100.756,127.027,95.411,120.418,95.411z
		 M112.492,83.505l-0.648-0.049H86.089l7.207,20.546l0.632-0.035l0.086-0.017c0.528,0,1.059,0.102,1.589,0.307l0.581,0.24
		l16.633-19.967L112.492,83.505z M84.329,84.6l-6.302,10.214c3.945,2.766,6.525,7.36,6.525,12.553h5.225l0.205-0.563
		c0.24-0.65,0.598-1.213,1.077-1.656l0.392-0.395L84.329,84.6z M76.217,97.715l-4.524,7.347c0.546,0.612,0.903,1.417,0.903,2.305
		h8.539C81.135,103.403,79.188,99.886,76.217,97.715z M70.889,107.366c0-0.938-0.769-1.708-1.709-1.708
		c-0.938,0-1.707,0.77-1.707,1.708s0.77,1.707,1.707,1.707C70.12,109.073,70.889,108.305,70.889,107.366z M69.18,95.411
		c-6.609,0-11.955,5.345-11.955,11.955c0,6.609,5.346,11.955,11.955,11.955c6.027,0,10.982-4.459,11.819-10.248h-8.88
		c-0.582,1.024-1.674,1.708-2.939,1.708c-1.877,0-3.415-1.537-3.415-3.415c0-1.879,1.538-3.416,3.415-3.416
		c0.258,0,0.514,0.033,0.752,0.085l4.578-7.36C72.903,95.871,71.094,95.411,69.18,95.411z M93.945,110.781
		c1.416,0,2.562-1.144,2.562-2.561c0-1.418-1.146-2.562-2.562-2.562c-1.418,0-2.562,1.145-2.562,2.562
		C91.383,109.638,92.527,110.781,93.945,110.781z M120.418,122.736c-8.49,0-15.371-6.883-15.371-15.37
		c0-6.712,4.303-12.399,10.297-14.5l-1.929-6.284l-15.85,19.246l0.256,0.496c0.309,0.615,0.479,1.247,0.479,1.896
		c0,2.355-1.93,4.27-4.286,4.27c-1.794,0-3.416-1.145-4.016-2.853l-0.203-0.564h-5.348c-0.853,7.686-7.359,13.663-15.268,13.663
		c-8.488,0-15.37-6.883-15.37-15.37c0-8.488,6.882-15.371,15.37-15.371c2.58,0,5.005,0.649,7.139,1.759l7.174-11.547l-1.382-4.335
		l-0.821,0.238c-0.512,0.153-1.007,0.238-1.484,0.238c-3.297,0-5.397-3.159-5.62-3.519c-0.171-0.273-0.188-0.871-0.018-1.145
		c0.188-0.308,0.514-0.478,0.888-0.478h14.006c0.494,0,0.938,0.343,0.992,0.805c0.066,0.493-0.309,1.144-0.736,1.245
		c-0.238,0.052-2.236,0.546-4.645,1.451l-0.752,0.309l1.502,4.729h26.473l-2.048-7.207c-0.087-0.272-0.035-0.562,0.153-0.784
		c0.186-0.24,0.493-0.395,0.818-0.395c2.203,0,3.178-1.314,3.178-2.611c0-0.701-0.273-1.334-0.77-1.794
		c-0.599-0.564-1.452-0.872-2.408-0.872h-6.455c-0.564,0-1.008-0.377-1.008-0.854s0.443-0.854,1.008-0.854h6.455
		c2.033,0,3.229,0.717,3.878,1.314c0.854,0.82,1.331,1.896,1.331,3.059c0,1.861-1.229,3.466-3.109,4.115l-0.783,0.256l4.746,15.986
		l0.378,1.211c1.022-0.203,2.083-0.323,3.159-0.323c8.488,0,15.37,6.883,15.37,15.371
		C135.788,115.854,128.906,122.736,120.418,122.736z"/>
</g>
<g id="Detail">
</g>
</svg>
