<?xml version="1.0" encoding="UTF-8" standalone="no"?>
<!-- Generator: Adobe Illustrator 16.0.4, SVG Export Plug-In . SVG Version: 6.00 Build 0)  -->

<svg
   xmlns:dc="http://purl.org/dc/elements/1.1/"
   xmlns:cc="http://creativecommons.org/ns#"
   xmlns:rdf="http://www.w3.org/1999/02/22-rdf-syntax-ns#"
   xmlns:svg="http://www.w3.org/2000/svg"
   xmlns="http://www.w3.org/2000/svg"
   xmlns:sodipodi="http://sodipodi.sourceforge.net/DTD/sodipodi-0.dtd"
   xmlns:inkscape="http://www.inkscape.org/namespaces/inkscape"
   version="1.1"
   x="0px"
   y="0px"
   width="69.563004"
   height="69.561996"
   viewBox="0 0 69.563004 69.561996"
   enable-background="new 0 0 200 200"
   xml:space="preserve"
   id="svg2"
   inkscape:version="0.48.4 r9939"
   sodipodi:docname="Bus.svg"><metadata
     id="metadata12"><rdf:RDF><cc:Work
         rdf:about=""><dc:format>image/svg+xml</dc:format><dc:type
           rdf:resource="http://purl.org/dc/dcmitype/StillImage" /><dc:title></dc:title></cc:Work></rdf:RDF></metadata><defs
     id="defs10" /><sodipodi:namedview
     pagecolor="#ffffff"
     bordercolor="#666666"
     borderopacity="1"
     objecttolerance="10"
     gridtolerance="10"
     guidetolerance="10"
     inkscape:pageopacity="0"
     inkscape:pageshadow="2"
     inkscape:window-width="640"
     inkscape:window-height="480"
     id="namedview8"
     showgrid="false"
     fit-margin-top="0"
     fit-margin-left="0"
     fit-margin-right="0"
     fit-margin-bottom="0"
     inkscape:zoom="1.18"
     inkscape:cx="34.781"
     inkscape:cy="38.06"
     inkscape:window-x="2065"
     inkscape:window-y="298"
     inkscape:window-maximized="0"
     inkscape:current-layer="svg2" /><g
     id="Ebene_1"
     transform="translate(-65.219,-68.498)"><path
       clip-rule="evenodd"
       d="m 86.957,77.193 h 26.086 V 74.295 H 86.957 v 2.898 z m 0,-4.347 h 26.086 c 0.797,0 1.45,0.652 1.45,1.449 v 2.898 c 0,0.797 -0.653,1.449 -1.45,1.449 H 86.957 c -0.797,0 -1.449,-0.652 -1.449,-1.449 v -2.898 c 0,-0.797 0.652,-1.449 1.449,-1.449 z m -7.245,40.578 c -1.595,0 -2.899,1.306 -2.899,2.898 0,1.592 1.305,2.898 2.899,2.898 1.593,0 2.897,-1.306 2.897,-2.898 0,-1.592 -1.304,-2.898 -2.897,-2.898 z m 0,7.246 c -2.406,0 -4.348,-1.941 -4.348,-4.348 0,-2.407 1.941,-4.348 4.348,-4.348 2.405,0 4.348,1.941 4.348,4.348 0,2.407 -1.943,4.348 -4.348,4.348 z m 40.577,-7.246 c -1.593,0 -2.898,1.306 -2.898,2.898 0,1.592 1.306,2.898 2.898,2.898 1.594,0 2.899,-1.306 2.899,-2.898 0,-1.592 -1.305,-2.898 -2.899,-2.898 z m 0,7.246 c -2.406,0 -4.348,-1.941 -4.348,-4.348 0,-2.407 1.941,-4.348 4.348,-4.348 2.407,0 4.348,1.941 4.348,4.348 0,2.407 -1.942,4.348 -4.348,4.348 z m 13.043,-33.332 c 0,-0.797 -0.652,-1.449 -1.448,-1.449 h -1.45 v 14.492 h 1.45 c 0.796,0 1.448,-0.652 1.448,-1.449 V 87.338 z m -5.796,18.84 H 72.465 v 11.594 c 0,3.203 2.594,5.797 5.797,5.797 h 10.146 23.187 10.145 c 3.203,0 5.798,-2.594 5.798,-5.797 v -11.594 z m 0,-24.637 H 72.465 v 23.188 h 55.071 V 81.541 z m 0,-4.348 c 0,-3.203 -2.595,-5.797 -5.798,-5.797 H 78.262 c -3.203,0 -5.797,2.594 -5.797,5.797 v 2.898 h 55.071 v -2.898 z m -47.824,55.795 c 0,1.203 0.97,2.174 2.174,2.174 h 1.448 c 1.203,0 2.174,-0.971 2.174,-2.174 v -6.521 h -5.796 v 6.521 z m 34.781,0 c 0,1.203 0.97,2.174 2.174,2.174 h 1.448 c 1.203,0 2.174,-0.971 2.174,-2.174 v -6.521 h -5.796 v 6.521 z M 69.566,85.889 h -1.449 c -0.797,0 -1.448,0.652 -1.448,1.449 v 11.594 c 0,0.797 0.651,1.449 1.448,1.449 h 1.449 V 85.889 z m 63.041,15.941 h -2.174 v 15.941 c 0,4.304 -3.145,7.854 -7.245,8.551 v 6.666 c 0,2.797 -2.276,5.072 -5.073,5.072 h -1.448 c -2.797,0 -5.073,-2.275 -5.073,-5.072 v -6.521 H 88.407 v 6.521 c 0,2.797 -2.276,5.072 -5.073,5.072 h -1.448 c -2.797,0 -5.073,-2.275 -5.073,-5.072 v -6.666 c -4.102,-0.696 -7.246,-4.247 -7.246,-8.551 V 101.83 h -2.174 c -1.203,0 -2.174,-0.971 -2.174,-2.174 V 86.613 c 0,-1.203 0.971,-2.174 2.174,-2.174 h 2.174 v -7.246 c 0,-4.798 3.898,-8.695 8.695,-8.695 h 43.477 c 4.797,0 8.695,3.897 8.695,8.695 v 7.246 h 2.174 c 1.203,0 2.174,0.971 2.174,2.174 v 13.043 c -0.001,1.203 -0.971,2.174 -2.175,2.174 z"
       id="path5"
       inkscape:connector-curvature="0"
       style="fill-rule:evenodd" /></g><g
     id="Detail"
     transform="translate(-65.219,-68.498)" /></svg>