<?xml version="1.0" encoding="UTF-8" standalone="no"?>
<!-- Generator: Adobe Illustrator 16.0.4, SVG Export Plug-In . SVG Version: 6.00 Build 0)  -->

<svg
   xmlns:dc="http://purl.org/dc/elements/1.1/"
   xmlns:cc="http://creativecommons.org/ns#"
   xmlns:rdf="http://www.w3.org/1999/02/22-rdf-syntax-ns#"
   xmlns:svg="http://www.w3.org/2000/svg"
   xmlns="http://www.w3.org/2000/svg"
   xmlns:sodipodi="http://sodipodi.sourceforge.net/DTD/sodipodi-0.dtd"
   xmlns:inkscape="http://www.inkscape.org/namespaces/inkscape"
   version="1.1"
   x="0px"
   y="0px"
   width="200px"
   height="200px"
   viewBox="0 0 200 200"
   enable-background="new 0 0 200 200"
   xml:space="preserve"
   id="svg2"
   inkscape:version="0.48.4 r9939"
   sodipodi:docname="Carpooling.svg"><metadata
     id="metadata34"><rdf:RDF><cc:Work
         rdf:about=""><dc:format>image/svg+xml</dc:format><dc:type
           rdf:resource="http://purl.org/dc/dcmitype/StillImage" /></cc:Work></rdf:RDF></metadata><defs
     id="defs32" /><sodipodi:namedview
     pagecolor="#ffffff"
     bordercolor="#666666"
     borderopacity="1"
     objecttolerance="10"
     gridtolerance="10"
     guidetolerance="10"
     inkscape:pageopacity="0"
     inkscape:pageshadow="2"
     inkscape:window-width="1855"
     inkscape:window-height="1056"
     id="namedview30"
     showgrid="false"
     inkscape:zoom="1.668772"
     inkscape:cx="223.97893"
     inkscape:cy="26.06024"
     inkscape:window-x="1665"
     inkscape:window-y="24"
     inkscape:window-maximized="1"
     inkscape:current-layer="svg2" /><g
     id="Ebene_1"><g
       id="g5"><path
         d="M123.332,96.6c-1.033,0.219-2.102,0.338-3.2,0.338c-0.596,0-1.181-0.042-1.76-0.108v0.182H73.694V83.608    c0-2.759,1.668-4.993,3.719-4.993h27.636c0.177-0.909,0.441-1.784,0.77-2.628H77.413c-3.562,0-6.348,3.351-6.348,7.621v12.195    c-3.719,0.632-6.57,3.876-6.57,7.779v10.513c0,3.904,2.852,7.122,6.57,7.754v7.358c0,2.536,2.063,4.6,4.6,4.6h1.314    c2.535,0,4.599-2.063,4.599-4.6v-7.228h28.91v7.228c0,2.536,2.063,4.6,4.6,4.6h1.313c2.536,0,4.6-2.063,4.6-4.6v-7.358    c3.719-0.632,6.57-3.85,6.57-7.754v-10.513C127.571,100.55,125.845,97.92,123.332,96.6z M78.95,129.208    c0,1.091-0.881,1.971-1.971,1.971h-1.314c-1.091,0-1.971-0.88-1.971-1.971v-7.228h5.256V129.208z M110.488,119.353h-28.91H78.95    v-3.285c0-2.536,2.063-4.6,4.6-4.6h24.967c2.537,0,4.6,2.063,4.6,4.6v3.285H110.488z M118.373,129.208    c0,1.091-0.88,1.971-1.972,1.971h-1.313c-1.091,0-1.972-0.88-1.972-1.971v-7.228h5.257V129.208z M124.943,114.096    c0,2.904-2.353,5.257-5.257,5.257h-5.256v-3.942c0-2.904-2.352-5.257-5.256-5.257H82.892c-2.904,0-5.257,2.353-5.257,5.257v3.942    h-5.256c-2.904,0-5.257-2.353-5.257-5.257v-10.513c0-2.904,2.353-5.256,5.257-5.256h1.314h44.679h1.313    c2.904,0,5.257,2.352,5.257,5.256V114.096z"
         id="path7" /><path
         d="M117.715,100.955c-2.535,0-4.6,2.063-4.6,4.6c0,2.535,2.064,4.599,4.6,4.599c2.536,0,4.6-2.063,4.6-4.599    C122.315,103.019,120.251,100.955,117.715,100.955z M117.715,108.84c-1.812,0-3.285-1.472-3.285-3.285s1.473-3.286,3.285-3.286    c1.813,0,3.285,1.473,3.285,3.286S119.529,108.84,117.715,108.84z"
         id="path9" /><path
         d="M74.35,100.955c-2.535,0-4.6,2.063-4.6,4.6c0,2.535,2.064,4.599,4.6,4.599c2.536,0,4.6-2.063,4.6-4.599    C78.95,103.019,76.886,100.955,74.35,100.955z M74.35,108.84c-1.812,0-3.285-1.472-3.285-3.285s1.473-3.286,3.285-3.286    c1.813,0,3.285,1.473,3.285,3.286S76.164,108.84,74.35,108.84z"
         id="path11" /></g><g
       id="g13"><g
         id="g15"><rect
           x="119.212"
           y="74.405"
           width="2"
           height="14.321"
           id="rect17" /></g><g
         id="g19"><rect
           x="113.052"
           y="80.566"
           width="14.321"
           height="2"
           id="rect21" /></g></g><g
       id="g23"><g
         id="g25"><path
           d="M120.212,94.897c-7.351,0-13.331-5.98-13.331-13.331c0-7.352,5.98-13.332,13.331-13.332     c7.351,0,13.332,5.98,13.332,13.332C133.544,88.917,127.563,94.897,120.212,94.897z M120.212,70.234     c-6.248,0-11.331,5.083-11.331,11.332c0,6.248,5.083,11.331,11.331,11.331c6.249,0,11.332-5.083,11.332-11.331     C131.544,75.318,126.461,70.234,120.212,70.234z"
           id="path27" /></g></g></g><g
     id="Detail" /></svg>