<?xml version="1.0" encoding="utf-8"?>
<!-- Generator: Adobe Illustrator 16.0.4, SVG Export Plug-In . SVG Version: 6.00 Build 0)  -->
<!DOCTYPE svg PUBLIC "-//W3C//DTD SVG 1.1//EN" "http://www.w3.org/Graphics/SVG/1.1/DTD/svg11.dtd">
<svg version="1.1" xmlns="http://www.w3.org/2000/svg" xmlns:xlink="http://www.w3.org/1999/xlink" x="0px" y="0px" width="200px"
	 height="200px" viewBox="0 0 200 200" enable-background="new 0 0 200 200" xml:space="preserve">
<g id="Ebene_1">
	<g>
		<path d="M117.715,104.208c-2.535,0-4.6,2.063-4.6,4.6c0,2.535,2.064,4.599,4.6,4.599c2.536,0,4.6-2.063,4.6-4.599
			C122.315,106.271,120.251,104.208,117.715,104.208z M117.715,112.093c-1.812,0-3.285-1.472-3.285-3.285s1.473-3.286,3.285-3.286
			c1.813,0,3.285,1.473,3.285,3.286S119.529,112.093,117.715,112.093z"/>
		<path d="M123.332,99.853c-1.033,0.219-2.102,0.338-3.2,0.338c-0.596,0-1.181-0.042-1.76-0.108v0.182H73.694V86.861
			c0-2.759,1.668-4.993,3.719-4.993h27.636c0.177-0.909,0.441-1.784,0.77-2.628H77.413c-3.562,0-6.348,3.351-6.348,7.621v12.195
			c-3.719,0.632-6.57,3.876-6.57,7.779v10.513c0,3.904,2.852,7.122,6.57,7.754v7.358c0,2.536,2.063,4.6,4.6,4.6h1.314
			c2.535,0,4.599-2.063,4.599-4.6v-7.228h28.91v7.228c0,2.536,2.063,4.6,4.6,4.6h1.313c2.536,0,4.6-2.063,4.6-4.6v-7.358
			c3.719-0.632,6.57-3.85,6.57-7.754v-10.513C127.571,103.803,125.845,101.173,123.332,99.853z M78.95,132.461
			c0,1.091-0.881,1.971-1.971,1.971h-1.314c-1.091,0-1.971-0.88-1.971-1.971v-7.228h5.256V132.461z M110.488,122.605h-28.91H78.95
			v-3.285c0-2.536,2.063-4.6,4.6-4.6h24.967c2.537,0,4.6,2.063,4.6,4.6v3.285H110.488z M118.373,132.461
			c0,1.091-0.88,1.971-1.972,1.971h-1.313c-1.091,0-1.972-0.88-1.972-1.971v-7.228h5.257V132.461z M124.943,117.349
			c0,2.904-2.353,5.257-5.257,5.257h-5.256v-3.942c0-2.904-2.352-5.257-5.256-5.257H82.892c-2.904,0-5.257,2.353-5.257,5.257v3.942
			h-5.256c-2.904,0-5.257-2.353-5.257-5.257v-10.513c0-2.904,2.353-5.256,5.257-5.256h1.314h44.679h1.313
			c2.904,0,5.257,2.352,5.257,5.256V117.349z"/>
		<path d="M74.35,104.208c-2.535,0-4.6,2.063-4.6,4.6c0,2.535,2.064,4.599,4.6,4.599c2.536,0,4.6-2.063,4.6-4.599
			C78.95,106.271,76.886,104.208,74.35,104.208z M74.35,112.093c-1.812,0-3.285-1.472-3.285-3.285s1.473-3.286,3.285-3.286
			c1.813,0,3.285,1.473,3.285,3.286S76.164,112.093,74.35,112.093z"/>
	</g>
	<g>
		<path d="M110.288,91.292l0.516,0.519h-1.48v2h3.884l1-1v-3.885h-2v1.47l-0.362-0.362c-2.806-3.787-2.409-9.143,0.936-12.486
			c1.811-1.812,4.22-2.811,6.785-2.811v-2c-3.099,0-6.011,1.206-8.199,3.396C107.307,80.194,106.843,86.711,110.288,91.292z"/>
		<path d="M129.549,78.082l-0.515-0.519h1.48v-2h-3.886l-1,1v3.885h2v-1.472l0.363,0.363c2.806,3.788,2.409,9.144-0.935,12.486
			c-1.812,1.813-4.222,2.812-6.785,2.812v2c3.098,0,6.01-1.207,8.199-3.397C132.53,89.181,132.994,82.664,129.549,78.082z"/>
	</g>
</g>
<g id="Detail">
</g>
</svg>
