<?xml version="1.0" encoding="utf-8"?>
<!-- Generator: Adobe Illustrator 16.0.4, SVG Export Plug-In . SVG Version: 6.00 Build 0)  -->
<!DOCTYPE svg PUBLIC "-//W3C//DTD SVG 1.1//EN" "http://www.w3.org/Graphics/SVG/1.1/DTD/svg11.dtd">
<svg version="1.1" xmlns="http://www.w3.org/2000/svg" xmlns:xlink="http://www.w3.org/1999/xlink" x="0px" y="0px" width="200px"
	 height="200px" viewBox="0 0 200 200" enable-background="new 0 0 200 200" xml:space="preserve">
<g id="Ebene_1">
	<g>
		<path d="M140.978,72.704H59.022c-1.933,0-3.5-1.567-3.5-3.5s1.567-3.5,3.5-3.5h81.956c1.933,0,3.5,1.567,3.5,3.5
			S142.911,72.704,140.978,72.704z"/>
	</g>
	<g>
		<path d="M140.978,97.708H59.022c-1.933,0-3.5-1.567-3.5-3.5s1.567-3.5,3.5-3.5h81.956c1.933,0,3.5,1.567,3.5,3.5
			S142.911,97.708,140.978,97.708z"/>
	</g>
	<g>
		<path d="M140.978,122.71H59.022c-1.933,0-3.5-1.567-3.5-3.5s1.567-3.5,3.5-3.5h81.956c1.933,0,3.5,1.567,3.5,3.5
			S142.911,122.71,140.978,122.71z"/>
	</g>
	<rect x="-1.813" y="-65.246" fill="none" width="196.49" height="65.247"/>
	<text transform="matrix(1 0 0 1 39.9131 -27.2461)" fill="#FFFFFF" font-family="'OpenSans'" font-size="50">NAVI</text>
</g>
<g id="Detail">
</g>
</svg>
