<?xml version="1.0" encoding="utf-8"?>
<!-- Generator: Adobe Illustrator 16.0.4, SVG Export Plug-In . SVG Version: 6.00 Build 0)  -->
<!DOCTYPE svg PUBLIC "-//W3C//DTD SVG 1.1//EN" "http://www.w3.org/Graphics/SVG/1.1/DTD/svg11.dtd">
<svg version="1.1" xmlns="http://www.w3.org/2000/svg" xmlns:xlink="http://www.w3.org/1999/xlink" x="0px" y="0px" width="200px"
	 height="200px" viewBox="0 0 200 200" enable-background="new 0 0 200 200" xml:space="preserve">
<g id="Ebene_1">
	<g>
		<g>
			<path d="M104.23,111.353c-0.474,0-0.927-0.271-1.137-0.729l-7.758-16.929c-0.138-0.301-0.151-0.645-0.036-0.956
				c0.116-0.311,0.35-0.562,0.651-0.701l5.496-2.519c3.578-1.639,6.627-2.095,9.082-1.367c2.517,0.746,4.53,2.729,5.981,5.894
				c1.446,3.166,1.496,6.116,0.148,8.771c-1.311,2.596-3.905,4.756-7.93,6.603l-3.979,1.821
				C104.581,111.316,104.404,111.353,104.23,111.353z M98.128,93.79l6.716,14.657l2.843-1.301c3.439-1.578,5.708-3.415,6.74-5.459
				c1.001-1.971,0.938-4.129-0.191-6.601c-1.137-2.479-2.624-4.006-4.418-4.538c-1.857-0.55-4.336-0.127-7.331,1.244L98.128,93.79z"
				/>
		</g>
		<g>
			<path d="M100.502,135.154H80.467c-5.26,0-9.54-4.279-9.54-9.54V78.911c0-5.261,4.28-9.541,9.54-9.541h39.065
				c5.26,0,9.54,4.28,9.54,9.541V89.55c0,0.597-0.421,1.109-1.006,1.226c-0.585,0.116-1.17-0.197-1.398-0.748
				c-0.132-0.319-0.268-0.639-0.417-0.961c-2.565-5.604-6.062-8.925-10.691-10.158c-4.663-1.248-10.373-0.34-16.987,2.689
				l-17.079,7.825l20.145,43.961c0.177,0.387,0.146,0.837-0.084,1.195C101.325,134.938,100.928,135.154,100.502,135.154z
				 M80.467,71.87c-3.882,0-7.04,3.159-7.04,7.041v46.703c0,3.882,3.158,7.04,7.04,7.04h18.087L78.7,89.327
				c-0.138-0.301-0.151-0.645-0.036-0.956c0.116-0.311,0.35-0.562,0.651-0.701l18.216-8.346c7.164-3.281,13.443-4.231,18.673-2.832
				c4.211,1.122,7.687,3.788,10.368,7.943v-5.524c0-3.882-3.158-7.041-7.04-7.041H80.467z"/>
		</g>
		<g>
			<path d="M119.533,135.154h-4.399c-0.489,0-0.933-0.285-1.136-0.729l-6.365-13.894c-0.288-0.627-0.012-1.369,0.616-1.657
				l5.184-2.375c6.53-2.99,10.997-6.789,13.276-11.289c0.262-0.517,0.844-0.785,1.406-0.651c0.562,0.134,0.959,0.637,0.959,1.216
				v19.84C129.073,130.875,124.793,135.154,119.533,135.154z M115.936,132.654h3.597c3.882,0,7.04-3.158,7.04-7.04v-15.639
				c-2.771,3.432-6.823,6.38-12.101,8.797l-4.047,1.854L115.936,132.654z"/>
		</g>
	</g>
</g>
<g id="Detail">
</g>
</svg>
