<?xml version="1.0" encoding="utf-8"?>
<!-- Generator: Adobe Illustrator 16.0.4, SVG Export Plug-In . SVG Version: 6.00 Build 0)  -->
<!DOCTYPE svg PUBLIC "-//W3C//DTD SVG 1.1//EN" "http://www.w3.org/Graphics/SVG/1.1/DTD/svg11.dtd">
<svg version="1.1" xmlns="http://www.w3.org/2000/svg" xmlns:xlink="http://www.w3.org/1999/xlink" x="0px" y="0px" width="200px"
	 height="200px" viewBox="0 0 200 200" enable-background="new 0 0 200 200" xml:space="preserve">
<g id="Ebene_1">
	<path fill-rule="evenodd" clip-rule="evenodd" d="M88.871,103.968c-0.624-1.461-2.028-4.266-2.47-5.165l-0.213-0.504l-13.972,2.959
		l0.214,0.822c0.092,0.351,0.198,0.839,0.35,1.401l0.121,0.595l0.031,0.016c0.686,2.543,1.875,6.154,3.396,7.543
		c1.145,1.066,2.667,1.797,4.756,2.039c0.428-0.012,2.652,0.033,5.076-0.82c2.193-0.764,3.306-1.829,3.565-3.093
		C90.153,107.674,89.679,105.874,88.871,103.968z M82.976,69.409c-1.359-1.706-4.65-2.91-7.742-2.91l-0.457,0.016
		c-1.965,0.076-3.932,0.609-5.543,1.752c-2.258,1.586-3.445,4.085-3.919,7.04c-0.914,5.775-0.625,7.667,1.522,14.033
		c0.73,2.15,3.001,6.143,4.299,8.336c0.059,0.168,0.334,1.006,0.654,2.119l13.866-2.941c-0.181-0.55-0.335-1.035-0.44-1.357
		c-0.307-1.734-0.762-4.996-0.154-6.536c0.898-2.255,1.996-5.866,1.996-9.311C87.044,74.881,85.886,73.021,82.976,69.409z
		 M87.151,115.75c-2.682,0.943-5.09,0.973-5.883,0.989h-0.09l-0.215,0.015l-0.229-0.031c-2.574-0.305-4.74-1.248-6.446-2.816
		c-2.942-2.715-4.54-9.814-4.968-11.919l-0.428-2.147c-1.264-2.118-4.007-6.841-4.922-9.508c-2.221-6.584-2.682-8.961-1.646-15.514
		c0.657-4.054,2.395-7.115,5.168-9.066c1.98-1.402,4.465-2.193,7.16-2.3l0.58-0.017c3.414,0,7.849,1.252,10.088,4.039
		c3.232,4.022,4.754,6.537,4.754,12.175c0,4.252-1.372,8.366-2.193,10.454c-0.244,0.731,0.016,3.597,0.516,5.896l0.017,0.091
		l0.519,1.007c0.079,0.153,1.949,3.841,2.713,5.667c0.868,2.045,1.676,4.543,1.036,7.619
		C92.177,112.838,90.32,114.635,87.151,115.75z M124.284,95.115c-0.473-2.957-1.66-5.455-3.914-7.039
		c-1.615-1.143-3.584-1.676-5.547-1.754l-0.457-0.016c-3.096,0-6.385,1.205-7.743,2.912c-2.909,3.61-4.067,5.471-4.081,10.238
		c0,3.445,1.097,7.057,1.996,9.312c0.607,1.538,0.152,4.8-0.154,6.537c-0.107,0.32-0.26,0.809-0.441,1.355l13.865,2.942
		c0.32-1.112,0.598-1.951,0.658-2.119c1.295-2.193,3.564-6.187,4.295-8.335C124.909,102.781,125.199,100.892,124.284,95.115z
		 M100.728,123.777c-0.809,1.906-1.281,3.703-0.854,5.792c0.258,1.266,1.37,2.331,3.565,3.094c2.421,0.854,4.647,0.809,5.073,0.823
		c2.088-0.245,3.614-0.977,4.756-2.043c1.523-1.387,2.712-4.999,3.397-7.544l0.032-0.015l0.119-0.592
		c0.15-0.565,0.259-1.053,0.352-1.402l0.215-0.823l-13.974-2.957l-0.214,0.503C102.752,119.512,101.353,122.315,100.728,123.777z
		 M125.627,110.143c-0.914,2.666-3.657,7.389-4.922,9.506l-0.429,2.15c-0.425,2.101-2.025,9.203-4.967,11.916
		c-1.707,1.57-3.871,2.513-6.445,2.818l-0.229,0.031l-0.211-0.016h-0.094c-0.793-0.016-3.199-0.047-5.883-0.99
		c-3.167-1.113-5.027-2.912-5.531-5.365c-0.639-3.078,0.168-5.576,1.039-7.619c0.76-1.826,2.632-5.514,2.709-5.668l0.52-1.006
		l0.018-0.092c0.501-2.301,0.76-5.164,0.516-5.897c-0.822-2.086-2.193-6.201-2.193-10.454c0-5.637,1.522-8.149,4.752-12.174
		c2.24-2.787,6.676-4.037,10.09-4.037l0.576,0.015c2.699,0.107,5.184,0.899,7.164,2.301c2.773,1.95,4.512,5.013,5.164,9.065
		C128.308,101.181,127.851,103.559,125.627,110.143z"/>
</g>
<g id="Detail">
</g>
</svg>
