<?xml version="1.0" encoding="UTF-8" standalone="no"?>
<!-- Created with Inkscape (http://www.inkscape.org/) -->

<svg
   xmlns:dc="http://purl.org/dc/elements/1.1/"
   xmlns:cc="http://creativecommons.org/ns#"
   xmlns:rdf="http://www.w3.org/1999/02/22-rdf-syntax-ns#"
   xmlns:svg="http://www.w3.org/2000/svg"
   xmlns="http://www.w3.org/2000/svg"
   xmlns:sodipodi="http://sodipodi.sourceforge.net/DTD/sodipodi-0.dtd"
   xmlns:inkscape="http://www.inkscape.org/namespaces/inkscape"
   id="svg2"
   version="1.1"
   inkscape:version="0.48.4 r9939"
   width="177.8365"
   height="138.12926"
   xml:space="preserve"
   sodipodi:docname="IDM_VR_RGB.pdf"><metadata
     id="metadata8"><rdf:RDF><cc:Work
         rdf:about=""><dc:format>image/svg+xml</dc:format><dc:type
           rdf:resource="http://purl.org/dc/dcmitype/StillImage" /><dc:title></dc:title></cc:Work></rdf:RDF></metadata><defs
     id="defs6"><clipPath
       clipPathUnits="userSpaceOnUse"
       id="clipPath24"><path
         d="m 0,170.021 217.917,0 L 217.917,0 0,0 0,170.021 z"
         id="path26"
         inkscape:connector-curvature="0" /></clipPath></defs><sodipodi:namedview
     pagecolor="#ffffff"
     bordercolor="#666666"
     borderopacity="1"
     objecttolerance="10"
     gridtolerance="10"
     guidetolerance="10"
     inkscape:pageopacity="0"
     inkscape:pageshadow="2"
     inkscape:window-width="1855"
     inkscape:window-height="1056"
     id="namedview4"
     showgrid="false"
     fit-margin-top="0"
     fit-margin-left="0"
     fit-margin-right="0"
     fit-margin-bottom="0"
     inkscape:zoom="1.1104511"
     inkscape:cx="89.64187"
     inkscape:cy="69.574127"
     inkscape:window-x="1665"
     inkscape:window-y="24"
     inkscape:window-maximized="1"
     inkscape:current-layer="g10" /><g
     id="g10"
     inkscape:groupmode="layer"
     inkscape:label="IDM_VR_RGB"
     transform="matrix(1.25,0,0,-1.25,-46.55625,174.81825)"><path
       d="m 52.371,129.776 -13.101,0 0,10.075 13.101,0 0,-10.075 z"
       style="fill:#a9bf00;fill-opacity:1;fill-rule:nonzero;stroke:none"
       id="path12"
       inkscape:connector-curvature="0" /><path
       d="m 52.371,86.632 -13.101,0 0,36.127 13.101,0 0,-36.127 z"
       style="fill:#707173;fill-opacity:1;fill-rule:nonzero;stroke:none"
       id="path14"
       inkscape:connector-curvature="0" /><g
       id="g16"
       transform="translate(166.3867,86.6084)"><path
         d="m 0,0 13.101,0 -19.366,53.207 -13.1,0 L 0,0 z"
         style="fill:#707173;fill-opacity:1;fill-rule:nonzero;stroke:none"
         id="path18"
         inkscape:connector-curvature="0" /></g><g
       id="g20"><g
         id="g22"
         clip-path="url(#clipPath24)"><g
           id="g28"
           transform="translate(121.375,139.8076)"><path
             d="m 0,0 0.003,0.008 -0.006,0 -13.095,0 -0.006,0 L -13.101,0 -16.59,-9.586 c -4.828,6.038 -13.152,9.633 -25.316,9.633 l -20.087,0 0,-10.078 13.111,0 0,0.006 5.254,0 c 13.183,0 19.267,-4.999 19.267,-16.129 0,-11.13 -6.176,-16.936 -18.806,-16.936 l -5.715,0 0,26.041 -0.004,0 -13.1,0 -0.007,0 0,-36.107 0.007,0 0,-0.006 13.1,0 0,0.006 6.501,0 c 15.699,0 25.11,6.592 28.926,16.254 l 0.029,0.006 6.879,18.9 12.813,-35.203 13.1,0 L 0,0 z"
             style="fill:#707173;fill-opacity:1;fill-rule:nonzero;stroke:none"
             id="path30"
             inkscape:connector-curvature="0" /></g><g
           id="g32"
           transform="translate(140.7314,86.6084)"><path
             d="m 0,0 -13.101,0 19.366,53.207 13.1,0 L 0,0 z"
             style="fill:#a9bf00;fill-opacity:1;fill-rule:nonzero;stroke:none"
             id="path34"
             inkscape:connector-curvature="0" /></g><g
           id="g36"
           transform="translate(47.542,35.5996)"><path
             d="m 0,0 -1.425,3.975 c -0.524,1.424 -0.749,2.499 -0.899,2.874 l -0.051,0 C -2.5,6.448 -2.774,5.324 -3.249,3.975 L -4.674,0 0,0 z m -3.949,10.697 3.399,0 6.524,-16.645 -3.849,0 -1.125,3.124 -6.648,0 -1.1,-3.124 -3.549,0 6.348,16.645 z"
             style="fill:#707173;fill-opacity:1;fill-rule:nonzero;stroke:none"
             id="path38"
             inkscape:connector-curvature="0" /></g><g
           id="g40"
           transform="translate(56.5186,46.2969)"><path
             d="m 0,0 3.55,0 0,-13.796 6.198,0 0,-2.85 -9.748,0 L 0,0 z"
             style="fill:#707173;fill-opacity:1;fill-rule:nonzero;stroke:none"
             id="path42"
             inkscape:connector-curvature="0" /></g><g
           id="g44"
           transform="translate(71.0928,43.3984)"><path
             d="m 0,0 -4.598,0 0,2.898 12.721,0 0,-2.898 -4.573,0 0,-13.747 -3.55,0 L 0,0 z"
             style="fill:#707173;fill-opacity:1;fill-rule:nonzero;stroke:none"
             id="path46"
             inkscape:connector-curvature="0" /></g><g
           id="g48"
           transform="translate(94.3662,37.9492)"><path
             d="m 0,0 c 0,3.1 -1.45,5.799 -4.774,5.799 -3.349,0 -4.924,-2.6 -4.924,-5.698 0,-3.125 1.524,-5.849 4.848,-5.849 C -1.5,-5.748 0,-3.099 0,0 m -13.447,0 c 0,4.524 3.024,8.648 8.597,8.648 5.575,0 8.574,-4.074 8.574,-8.547 0,-4.525 -2.925,-8.699 -8.498,-8.699 -5.574,0 -8.673,4.099 -8.673,8.598"
             style="fill:#707173;fill-opacity:1;fill-rule:nonzero;stroke:none"
             id="path50"
             inkscape:connector-curvature="0" /></g><g
           id="g52"
           transform="translate(115.7412,35.5996)"><path
             d="m 0,0 -1.425,3.975 c -0.524,1.424 -0.75,2.499 -0.899,2.874 l -0.05,0 C -2.499,6.448 -2.774,5.324 -3.249,3.975 L -4.674,0 0,0 z m -3.949,10.697 3.399,0 6.524,-16.645 -3.85,0 -1.124,3.124 -6.648,0 -1.1,-3.124 -3.549,0 6.348,16.645 z"
             style="fill:#707173;fill-opacity:1;fill-rule:nonzero;stroke:none"
             id="path54"
             inkscape:connector-curvature="0" /></g><g
           id="g56"
           transform="translate(129.8418,32.4756)"><path
             d="m 0,0 c 3.749,0 5.648,1.925 5.648,5.624 0,3.724 -1.824,5.373 -5.773,5.373 l -1.524,0 L -1.649,0 0,0 z m -5.174,13.821 5.025,0 c 6.547,0 9.522,-3.299 9.522,-8.097 0,-4.799 -3.024,-8.548 -9.647,-8.548 l -4.9,0 0,16.645 z"
             style="fill:#707173;fill-opacity:1;fill-rule:nonzero;stroke:none"
             id="path58"
             inkscape:connector-curvature="0" /></g><path
           d="m 142.993,46.297 3.524,0 0,-16.646 -3.524,0 0,16.646 z"
           style="fill:#707173;fill-opacity:1;fill-rule:nonzero;stroke:none"
           id="path60"
           inkscape:connector-curvature="0" /><g
           id="g62"
           transform="translate(150.4688,37.999)"><path
             d="m 0,0 c 0,4.524 3.299,8.599 9.072,8.599 2.499,0 4.174,-0.55 5.474,-1.5 L 12.972,4.475 c -1.026,0.749 -2.25,1.199 -3.975,1.199 -3.549,0 -5.248,-2.4 -5.248,-5.573 0,-3.2 1.524,-5.874 5.023,-5.874 1.35,0 2.374,0.275 2.95,0.65 l 0,3.299 -3.075,0 0,2.724 6.449,0 0,-7.948 C 13.921,-7.848 11.997,-8.647 8.798,-8.647 3.074,-8.647 0,-4.499 0,0"
             style="fill:#707173;fill-opacity:1;fill-rule:nonzero;stroke:none"
             id="path64"
             inkscape:connector-curvature="0" /></g><g
           id="g66"
           transform="translate(169.7422,46.2969)"><path
             d="m 0,0 9.598,0 0,-2.898 -6.123,0 0,-3.749 5.398,0 0,-2.75 -5.398,0 0,-4.349 6.297,0 0,-2.9 -9.772,0 L 0,0 z"
             style="fill:#707173;fill-opacity:1;fill-rule:nonzero;stroke:none"
             id="path68"
             inkscape:connector-curvature="0" /></g><g
           id="g70"
           transform="translate(39.4414,54.708)"><path
             d="M 0,0 1.591,2.597 C 1.987,2.306 3.339,1.271 5.38,1.271 c 1.776,0 2.81,0.902 2.81,2.042 0,1.563 -1.882,2.014 -3.949,3.047 -2.174,1.061 -3.791,2.412 -3.791,5.275 0,3.021 2.545,4.903 5.699,4.903 2.889,0 4.426,-0.928 5.168,-1.484 L 9.807,12.431 C 9.196,12.828 7.872,13.517 6.36,13.517 4.93,13.517 4.002,12.881 4.002,11.688 4.002,10.31 5.407,9.859 7.263,9.011 9.595,7.951 11.794,6.758 11.794,3.498 11.794,0.291 9.382,-1.75 5.46,-1.75 2.597,-1.75 0.769,-0.637 0,0"
             style="fill:#707173;fill-opacity:1;fill-rule:nonzero;stroke:none"
             id="path72"
             inkscape:connector-curvature="0" /></g><g
           id="g74"
           transform="translate(64.8828,74.2148)"><path
             d="M 0,0 C 0,1.007 0.821,1.882 1.962,1.882 3.101,1.882 3.923,1.007 3.923,0 3.923,-1.061 3.101,-1.908 1.962,-1.908 0.821,-1.908 0,-1.061 0,0 m -5.565,0 c 0,1.007 0.821,1.882 1.961,1.882 1.139,0 1.96,-0.875 1.96,-1.882 0,-1.061 -0.821,-1.908 -1.96,-1.908 -1.14,0 -1.961,0.847 -1.961,1.908 m -2.625,-14.101 0,10.815 3.738,0 0,-10.496 c 0,-3.022 1.086,-4.4 3.869,-4.4 2.624,0 3.711,1.59 3.711,4.161 l 0,10.735 3.445,0 0,-10.47 c 0,-4.823 -2.412,-7.501 -7.236,-7.501 -5.115,0 -7.527,2.545 -7.527,7.156"
             style="fill:#707173;fill-opacity:1;fill-rule:nonzero;stroke:none"
             id="path76"
             inkscape:connector-curvature="0" /></g><g
           id="g78"
           transform="translate(83.8037,56.2715)"><path
             d="m 0,0 c 3.975,0 5.989,2.041 5.989,5.964 0,3.948 -1.934,5.698 -6.122,5.698 l -1.617,0 L -1.75,0 0,0 z m -5.487,14.657 5.327,0 c 6.945,0 10.098,-3.499 10.098,-8.588 0,-5.089 -3.207,-9.064 -10.231,-9.064 l -5.194,0 0,17.652 z"
             style="fill:#707173;fill-opacity:1;fill-rule:nonzero;stroke:none"
             id="path80"
             inkscape:connector-curvature="0" /></g><g
           id="g82"
           transform="translate(102.3799,67.8535)"><path
             d="m 0,0 -4.877,0 0,3.075 13.49,0 0,-3.075 -4.849,0 0,-14.577 -3.764,0 L 0,0 z"
             style="fill:#707173;fill-opacity:1;fill-rule:nonzero;stroke:none"
             id="path84"
             inkscape:connector-curvature="0" /></g><path
           d="m 116.291,70.929 3.736,0 0,-17.652 -3.736,0 0,17.652 z"
           style="fill:#707173;fill-opacity:1;fill-rule:nonzero;stroke:none"
           id="path86"
           inkscape:connector-curvature="0" /><g
           id="g88"
           transform="translate(133.0654,63.1895)"><path
             d="m 0,0 c 1.988,0 2.916,0.9 2.916,2.438 0,1.617 -0.928,2.438 -3.075,2.438 l -1.881,0 L -2.04,0 0,0 z m -5.777,7.739 5.883,0 c 4.135,0 6.52,-1.776 6.52,-5.089 0,-2.889 -1.961,-4.346 -4.107,-4.745 l 0,-0.052 c 0.476,-0.345 1.113,-1.034 2.067,-2.518 l 3.445,-5.248 -4.108,0 -3.234,5.036 c -1.377,2.041 -1.669,2.227 -2.491,2.227 l -0.238,0 0,-7.263 -3.737,0 0,17.652 z"
             style="fill:#707173;fill-opacity:1;fill-rule:nonzero;stroke:none"
             id="path90"
             inkscape:connector-curvature="0" /></g><g
           id="g92"
           transform="translate(159.0908,62.0762)"><path
             d="m 0,0 c 0,3.286 -1.537,6.148 -5.063,6.148 -3.551,0 -5.221,-2.755 -5.221,-6.043 0,-3.312 1.617,-6.202 5.141,-6.202 C -1.591,-6.097 0,-3.287 0,0 m -14.26,0 c 0,4.797 3.207,9.17 9.117,9.17 5.912,0 9.092,-4.32 9.092,-9.065 0,-4.796 -3.101,-9.223 -9.012,-9.223 -5.911,0 -9.197,4.347 -9.197,9.118"
             style="fill:#707173;fill-opacity:1;fill-rule:nonzero;stroke:none"
             id="path94"
             inkscape:connector-curvature="0" /></g><g
           id="g96"
           transform="translate(168.999,70.9287)"><path
             d="m 0,0 3.764,0 0,-14.631 6.573,0 0,-3.021 L 0,-17.652 0,0 z"
             style="fill:#707173;fill-opacity:1;fill-rule:nonzero;stroke:none"
             id="path98"
             inkscape:connector-curvature="0" /></g></g></g></g></svg>