<?xml version="1.0" encoding="UTF-8" standalone="no"?>
<svg
   xmlns:dc="http://purl.org/dc/elements/1.1/"
   xmlns:cc="http://creativecommons.org/ns#"
   xmlns:rdf="http://www.w3.org/1999/02/22-rdf-syntax-ns#"
   xmlns:svg="http://www.w3.org/2000/svg"
   xmlns="http://www.w3.org/2000/svg"
   viewBox="0 0 378.66666 66.666664"
   height="66.666664"
   width="378.66666"
   xml:space="preserve"
   id="svg2"
   version="1.1"><metadata
     id="metadata8"><rdf:RDF><cc:Work
         rdf:about=""><dc:format>image/svg+xml</dc:format><dc:type
           rdf:resource="http://purl.org/dc/dcmitype/StillImage" /><dc:title></dc:title></cc:Work></rdf:RDF></metadata><defs
     id="defs6" /><g
     transform="matrix(1.3333333,0,0,-1.3333333,0,66.666667)"
     id="g10"><g
       transform="scale(0.1)"
       id="g12"><path
         id="path14"
         style="fill:#000000;fill-opacity:1;fill-rule:nonzero;stroke:none"
         d="m 367.703,413.539 h 0.996 C 387.582,460.25 439.262,500 523.734,500 620.133,500 657.898,429.445 657.898,335.027 V 15.0234 H 558.516 V 325.094 c 0,48.695 -12.918,93.418 -65.59,93.418 -67.578,0 -114.289,-61.617 -114.289,-140.129 V 15.0234 H 279.258 V 325.094 c 0,48.695 -12.918,93.418 -65.59,93.418 -67.578,0 -114.2891,-61.617 -114.2891,-140.129 V 15.0234 H 0 V 479.133 c 22.8555,8.945 55.6563,17.89 89.4453,17.89 v -96.402 h 2.9766 C 105.344,451.305 159.008,500 244.477,500 c 66.582,0 105.343,-33.789 123.226,-86.461" /><path
         id="path16"
         style="fill:#000000;fill-opacity:1;fill-rule:nonzero;stroke:none"
         d="m 859.621,192.914 c 10.934,-69.562 46.707,-108.3242 112.301,-108.3242 73.538,0 106.338,22.8552 130.188,37.7652 C 1112.05,105.461 1119,78.6289 1119,44.8398 1100.12,30.9219 1051.42,3.10156 966.949,3.10156 830.797,3.10156 755.27,92.5391 755.27,242.605 c 0,153.043 95.406,254.418 224.601,254.418 94.419,0 154.039,-52.671 154.039,-134.168 0,-92.421 -60.62,-145.097 -274.289,-169.941 z m -1.988,70.563 c 137.144,19.875 176.897,49.687 176.897,97.39 0,38.762 -25.84,56.649 -61.62,56.649 -67.574,0 -110.308,-57.645 -115.277,-154.039" /><path
         id="path18"
         style="fill:#000000;fill-opacity:1;fill-rule:nonzero;stroke:none"
         d="M 1236.26,15.0234 V 479.133 c 22.86,8.945 55.65,17.89 89.44,17.89 v -76.527 h 2.98 c 18.88,43.727 68.58,79.504 164.98,78.512 0,-35.778 -3.98,-59.629 -12.92,-94.414 -5.97,0.996 -15.9,2.984 -35.78,2.984 -76.53,0 -109.32,-34.785 -109.32,-111.308 V 15.0234 h -99.38" /><path
         id="path20"
         style="fill:#000000;fill-opacity:1;fill-rule:nonzero;stroke:none"
         d="M 1897.13,319.133 V 15.0234 h -89.44 v 66.586 h -2.98 C 1793.77,46.8242 1757,3.10156 1672.53,3.10156 c -80.5,0 -131.18,50.68364 -131.18,128.19944 0,85.469 47.7,134.164 256.4,149.07 v 28.817 c 0,53.667 -11.93,111.308 -82.48,111.308 -53.66,0 -97.4,-17.887 -122.24,-34.781 -17.89,21.863 -27.82,46.707 -31.81,74.535 27.83,15.898 89.45,39.75 168.95,39.75 128.2,0 166.96,-77.516 166.96,-180.867 z m -99.38,-108.328 c -131.19,-8.946 -157.02,-31.801 -157.02,-71.559 0,-35.773 16.9,-57.6366 60.62,-57.6366 55.65,0 96.4,37.7656 96.4,86.4606 v 42.735" /><path
         id="path22"
         style="fill:#000000;fill-opacity:1;fill-rule:nonzero;stroke:none"
         d="M 2407.93,335.027 V 15.0234 h -99.39 V 325.094 c 0,48.695 -13.91,93.418 -70.55,93.418 -70.57,0 -119.26,-61.617 -119.26,-140.129 V 15.0234 h -99.39 V 479.133 c 22.87,8.945 55.66,17.89 89.45,17.89 v -96.402 h 2.99 c 17.88,54.656 70.55,99.379 157.02,99.379 99.37,0 139.13,-70.555 139.13,-164.973" /><path
         id="path24"
         style="fill:#000000;fill-opacity:1;fill-rule:nonzero;stroke:none"
         d="m 2836.65,88.9023 c 3.42,-17.0429 -1.13,-52.289 -9.09,-73.8789 h -308.63 c -7.95,15.9141 -6.8,52.2891 3.42,73.8789 z m -2.01,231.2107 c 0,106.25 -61.71,174.125 -156.15,174.125 -98.65,0 -170.15,-67.152 -170.15,-174.125 0,-106.023 60.83,-177.472 156.16,-177.472 98.84,0 170.14,70.695 170.14,177.472 z m -85.84,0 c 0,-74.84 -31.54,-108.465 -77.3,-108.465 -45.74,0 -77.31,34.266 -77.31,108.465 0,73.383 31.44,106.461 77.31,106.461 45.85,0 77.3,-33.078 77.3,-106.461" /></g></g></svg>