<?xml version="1.0" encoding="utf-8"?>
<!-- Generator: Adobe Illustrator 16.0.4, SVG Export Plug-In . SVG Version: 6.00 Build 0)  -->
<!DOCTYPE svg PUBLIC "-//W3C//DTD SVG 1.1//EN" "http://www.w3.org/Graphics/SVG/1.1/DTD/svg11.dtd">
<svg version="1.1" xmlns="http://www.w3.org/2000/svg" xmlns:xlink="http://www.w3.org/1999/xlink" x="0px" y="0px" width="200px"
	 height="200px" viewBox="0 0 200 200" enable-background="new 0 0 200 200" xml:space="preserve">
<g id="Ebene_1">
	<g>
		<g>
			<g>
				<path fill="#5C6369" d="M97.5,45.823c29.922,0,54.176,24.256,54.176,54.178c0,29.918-24.254,54.176-54.176,54.176
					c-29.919,0-54.175-24.258-54.175-54.176C43.325,70.079,67.581,45.823,97.5,45.823z"/>
				<path fill="#FFFFFF" d="M97.5,155.176c-30.424,0-55.175-24.751-55.175-55.176c0-30.425,24.751-55.178,55.175-55.178
					S152.676,69.575,152.676,100C152.676,130.425,127.924,155.176,97.5,155.176z M97.5,46.823
					c-29.321,0-53.175,23.855-53.175,53.178c0,29.321,23.854,53.176,53.175,53.176c29.321,0,53.176-23.854,53.176-53.176
					C150.676,70.678,126.821,46.823,97.5,46.823z"/>
			</g>
		</g>
	</g>
	<g>
		<g>
			<rect x="96" y="116" fill="#FFFFFF" width="3" height="16"/>
		</g>
		<g>
			<rect x="96" y="68" fill="#FFFFFF" width="3" height="16"/>
		</g>
		<g>
			<rect x="65.5" y="98.5" fill="#FFFFFF" width="16" height="3"/>
		</g>
		<g>
			<rect x="113.5" y="98.5" fill="#FFFFFF" width="16" height="3"/>
		</g>
		<g>
			<path fill="#FFFFFF" d="M97.5,125.5C83.439,125.5,72,114.061,72,100s11.439-25.5,25.5-25.5S123,85.938,123,100
				S111.561,125.5,97.5,125.5z M97.5,77.5C85.094,77.5,75,87.593,75,100s10.093,22.5,22.5,22.5c12.407,0,22.5-10.093,22.5-22.5
				S109.907,77.5,97.5,77.5z"/>
		</g>
		<g>
			<circle fill="#FFFFFF" cx="97.5" cy="100" r="10.967"/>
		</g>
	</g>
</g>
<g id="Detail">
</g>
</svg>
