<?xml version="1.0" encoding="UTF-8" standalone="no"?>
<!-- Generator: Adobe Illustrator 16.0.4, SVG Export Plug-In . SVG Version: 6.00 Build 0)  -->

<svg
   xmlns:dc="http://purl.org/dc/elements/1.1/"
   xmlns:cc="http://creativecommons.org/ns#"
   xmlns:rdf="http://www.w3.org/1999/02/22-rdf-syntax-ns#"
   xmlns:svg="http://www.w3.org/2000/svg"
   xmlns="http://www.w3.org/2000/svg"
   xmlns:sodipodi="http://sodipodi.sourceforge.net/DTD/sodipodi-0.dtd"
   xmlns:inkscape="http://www.inkscape.org/namespaces/inkscape"
   version="1.1"
   x="0px"
   y="0px"
   width="63"
   height="63"
   viewBox="0 0 63 63"
   enable-background="new 0 0 200 200"
   xml:space="preserve"
   id="svg2"
   inkscape:version="0.48.4 r9939"
   sodipodi:docname="Plus.svg"><metadata
     id="metadata34"><rdf:RDF><cc:Work
         rdf:about=""><dc:format>image/svg+xml</dc:format><dc:type
           rdf:resource="http://purl.org/dc/dcmitype/StillImage" /></cc:Work></rdf:RDF></metadata><defs
     id="defs32" /><sodipodi:namedview
     pagecolor="#ffffff"
     bordercolor="#666666"
     borderopacity="1"
     objecttolerance="10"
     gridtolerance="10"
     guidetolerance="10"
     inkscape:pageopacity="0"
     inkscape:pageshadow="2"
     inkscape:window-width="640"
     inkscape:window-height="480"
     id="namedview30"
     showgrid="false"
     fit-margin-top="0"
     fit-margin-left="0"
     fit-margin-right="0"
     fit-margin-bottom="0"
     inkscape:zoom="1.18"
     inkscape:cx="32.245"
     inkscape:cy="91.00122"
     inkscape:window-x="2395"
     inkscape:window-y="329"
     inkscape:window-maximized="0"
     inkscape:current-layer="g5" /><g
     id="Ebene_1"
     transform="translate(-68.5,-64.704)"><g
       id="g5"><g
         id="g7"><g
           id="g9"><circle
             cx="100"
             cy="96.204002"
             r="30.5"
             id="circle11"
             d="m 130.5,96.204002 c 0,16.844688 -13.65532,30.499998 -30.5,30.499998 -16.844685,0 -30.5,-13.65531 -30.5,-30.499998 0,-16.844684 13.655315,-30.5 30.5,-30.5 16.84468,0 30.5,13.655316 30.5,30.5 z"
             sodipodi:cx="100"
             sodipodi:cy="96.204002"
             sodipodi:rx="30.5"
             sodipodi:ry="30.5"
             style="fill:#5c6369" /><path
             d="m 100,127.704 c -17.369,0 -31.5,-14.131 -31.5,-31.5 0,-17.369 14.131,-31.5 31.5,-31.5 17.369,0 31.5,14.131 31.5,31.5 0,17.369 -14.131,31.5 -31.5,31.5 z m 0,-61 c -16.267,0 -29.5,13.233 -29.5,29.5 0,16.267 13.233,29.5 29.5,29.5 16.267,0 29.5,-13.233 29.5,-29.5 0,-16.267 -13.233,-29.5 -29.5,-29.5 z"
             id="path13"
             inkscape:connector-curvature="0"
             style="fill:#ffffff" /></g></g><g
         id="g15"><g
           id="g17"><rect
             x="97.5"
             y="78.492996"
             width="5"
             height="35.422001"
             id="rect19"
             style="fill:#ffffff" /></g><g
           id="g21"><rect
             x="82.289001"
             y="93.704002"
             width="35.419998"
             height="5"
             id="rect23"
             style="fill:#ffffff" /></g></g></g><rect
       x="-0.745"
       y="-65.246002"
       width="196.49001"
       height="65.247002"
       id="rect25"
       style="fill:none" /><text
       transform="translate(44.0576,-27.2461)"
       font-size="50"
       id="text27"
       style="font-size:50px;fill:#ffffff;font-family:OpenSans">MAP</text>
</g><g
     id="Detail"
     transform="translate(-68.5,-64.704)" /></svg>