<?xml version="1.0" encoding="utf-8"?>
<!-- Generator: Adobe Illustrator 16.0.4, SVG Export Plug-In . SVG Version: 6.00 Build 0)  -->
<!DOCTYPE svg PUBLIC "-//W3C//DTD SVG 1.1//EN" "http://www.w3.org/Graphics/SVG/1.1/DTD/svg11.dtd">
<svg version="1.1" xmlns="http://www.w3.org/2000/svg" xmlns:xlink="http://www.w3.org/1999/xlink" x="0px" y="0px" width="200px"
	 height="200px" viewBox="0 0 200 200" enable-background="new 0 0 200 200" xml:space="preserve">
<g id="Ebene_1">
</g>
<g id="Detail">
	<g>
		<g>
			<path fill="#1F2020" d="M103.504,126.16c-5.769,0-11.191-2.247-15.27-6.326c-8.419-8.419-8.419-22.118,0-30.537
				c4.078-4.079,9.501-6.326,15.269-6.326c5.768,0,11.191,2.247,15.27,6.326c8.418,8.418,8.418,22.117,0,30.537
				C114.696,123.914,109.273,126.16,103.504,126.16z M103.504,84.971c-5.234,0-10.154,2.039-13.855,5.74
				c-7.639,7.64-7.639,20.07,0,27.709c3.701,3.702,8.621,5.74,13.855,5.74s10.155-2.039,13.855-5.74
				c7.638-7.64,7.638-20.07,0-27.709C113.658,87.01,108.737,84.971,103.504,84.971z"/>
		</g>
		<g>
			<polygon fill="#1F2020" points="108.776,111.251 102.504,104.98 102.504,91.278 104.504,91.278 104.504,104.151 110.19,109.837 
							"/>
		</g>
		<g>
			<rect x="84.904" y="103.565" fill="#1F2020" width="2.656" height="2"/>
		</g>
		<g>
			<rect x="119.449" y="103.565" fill="#1F2020" width="2.656" height="2"/>
		</g>
		<g>
			<rect x="102.504" y="120.509" fill="#1F2020" width="2" height="2.657"/>
		</g>
		<g>
			<rect x="102.504" y="85.965" fill="#1F2020" width="2" height="2.656"/>
		</g>
	</g>
</g>
</svg>
