<?xml version="1.0" encoding="UTF-8" standalone="no"?>
<!-- Generator: Adobe Illustrator 16.0.4, SVG Export Plug-In . SVG Version: 6.00 Build 0)  -->

<svg
   xmlns:dc="http://purl.org/dc/elements/1.1/"
   xmlns:cc="http://creativecommons.org/ns#"
   xmlns:rdf="http://www.w3.org/1999/02/22-rdf-syntax-ns#"
   xmlns:svg="http://www.w3.org/2000/svg"
   xmlns="http://www.w3.org/2000/svg"
   xmlns:sodipodi="http://sodipodi.sourceforge.net/DTD/sodipodi-0.dtd"
   xmlns:inkscape="http://www.inkscape.org/namespaces/inkscape"
   version="1.1"
   x="0px"
   y="0px"
   width="43.166752"
   height="43.188999"
   viewBox="0 0 43.166752 43.188999"
   enable-background="new 0 0 200 200"
   xml:space="preserve"
   id="svg2"
   inkscape:version="0.48.4 r9939"
   sodipodi:docname="Clock.svg"><metadata
     id="metadata36"><rdf:RDF><cc:Work
         rdf:about=""><dc:format>image/svg+xml</dc:format><dc:type
           rdf:resource="http://purl.org/dc/dcmitype/StillImage" /></cc:Work></rdf:RDF></metadata><defs
     id="defs34" /><sodipodi:namedview
     pagecolor="#ffffff"
     bordercolor="#666666"
     borderopacity="1"
     objecttolerance="10"
     gridtolerance="10"
     guidetolerance="10"
     inkscape:pageopacity="0"
     inkscape:pageshadow="2"
     inkscape:window-width="1855"
     inkscape:window-height="1056"
     id="namedview32"
     showgrid="false"
     fit-margin-top="0"
     fit-margin-left="0"
     fit-margin-right="0"
     fit-margin-bottom="0"
     inkscape:zoom="1.18"
     inkscape:cx="18.08025"
     inkscape:cy="26.16"
     inkscape:window-x="1665"
     inkscape:window-y="24"
     inkscape:window-maximized="1"
     inkscape:current-layer="svg2" /><g
     id="Ebene_1"
     transform="translate(-81.91975,-82.971)" /><g
     id="Detail"
     transform="translate(-81.91975,-82.971)"><g
       id="g6"><g
         id="g8"><path
           d="m 103.504,126.16 c -5.769,0 -11.191,-2.247 -15.27,-6.326 -8.419,-8.419 -8.419,-22.118 0,-30.537 4.078,-4.079 9.501,-6.326 15.269,-6.326 5.768,0 11.191,2.247 15.27,6.326 8.418,8.418 8.418,22.117 0,30.537 -4.077,4.08 -9.5,6.326 -15.269,6.326 z m 0,-41.189 c -5.234,0 -10.154,2.039 -13.855,5.74 -7.639,7.64 -7.639,20.07 0,27.709 3.701,3.702 8.621,5.74 13.855,5.74 5.234,0 10.155,-2.039 13.855,-5.74 7.638,-7.64 7.638,-20.07 0,-27.709 -3.701,-3.701 -8.622,-5.74 -13.855,-5.74 z"
           id="path10"
           inkscape:connector-curvature="0"
           style="fill:#1f2020" /></g><g
         id="g12"><polygon
           points="104.504,91.278 104.504,104.151 110.19,109.837 108.776,111.251 102.504,104.98 102.504,91.278 "
           id="polygon14"
           style="fill:#1f2020" /></g><g
         id="g16"><rect
           x="84.903999"
           y="103.565"
           width="2.6559999"
           height="2"
           id="rect18"
           style="fill:#1f2020" /></g><g
         id="g20"><rect
           x="119.449"
           y="103.565"
           width="2.6559999"
           height="2"
           id="rect22"
           style="fill:#1f2020" /></g><g
         id="g24"><rect
           x="102.504"
           y="120.509"
           width="2"
           height="2.6570001"
           id="rect26"
           style="fill:#1f2020" /></g><g
         id="g28"><rect
           x="102.504"
           y="85.964996"
           width="2"
           height="2.6559999"
           id="rect30"
           style="fill:#1f2020" /></g></g></g></svg>