<?xml version="1.0" encoding="utf-8"?>
<!-- Generator: Adobe Illustrator 16.0.4, SVG Export Plug-In . SVG Version: 6.00 Build 0)  -->
<!DOCTYPE svg PUBLIC "-//W3C//DTD SVG 1.1//EN" "http://www.w3.org/Graphics/SVG/1.1/DTD/svg11.dtd">
<svg version="1.1" xmlns="http://www.w3.org/2000/svg" xmlns:xlink="http://www.w3.org/1999/xlink" x="0px" y="0px" width="200px"
	 height="200px" viewBox="0 0 200 200" enable-background="new 0 0 200 200" xml:space="preserve">
<g id="Ebene_1">
</g>
<g id="Detail">
	<g>
		<g>
			<path fill="#D35400" stroke="#FFFFFF" stroke-width="2" stroke-miterlimit="10" d="M104.197,48.121
				c29.922,0,54.176,24.256,54.176,54.178c0,29.918-24.254,54.176-54.176,54.176c-29.92,0-54.176-24.258-54.176-54.176
				C50.021,72.376,74.277,48.121,104.197,48.121z"/>
		</g>
	</g>
	<g>
		<polygon fill="none" stroke="#FFFFFF" stroke-width="3" stroke-miterlimit="10" points="113.221,74.361 107.813,72.615 
			105.193,80.724 99.205,80.781 95.545,73.626 86.007,78.507 89.667,85.662 86.119,90.486 78.008,87.865 74.515,98.681 
			82.625,101.3 82.681,107.289 75.527,110.949 80.407,120.488 87.562,116.828 92.386,120.376 89.766,128.486 95.173,130.234 
			100.58,131.98 103.2,123.869 109.189,123.814 112.85,130.968 122.388,126.085 118.728,118.933 122.275,114.109 130.387,116.728 
			133.88,105.914 125.77,103.292 125.714,97.304 132.867,93.644 127.987,84.105 120.833,87.767 116.008,84.218 118.628,76.107 		"/>
		<circle fill="none" stroke="#FFFFFF" stroke-width="3" stroke-miterlimit="10" cx="104.197" cy="102.297" r="5.682"/>
	</g>
</g>
</svg>
