<?xml version="1.0" encoding="UTF-8" standalone="no"?>
<!-- Generator: Adobe Illustrator 16.0.4, SVG Export Plug-In . SVG Version: 6.00 Build 0)  -->

<svg
   xmlns:dc="http://purl.org/dc/elements/1.1/"
   xmlns:cc="http://creativecommons.org/ns#"
   xmlns:rdf="http://www.w3.org/1999/02/22-rdf-syntax-ns#"
   xmlns:svg="http://www.w3.org/2000/svg"
   xmlns="http://www.w3.org/2000/svg"
   xmlns:sodipodi="http://sodipodi.sourceforge.net/DTD/sodipodi-0.dtd"
   xmlns:inkscape="http://www.inkscape.org/namespaces/inkscape"
   version="1.1"
   x="0px"
   y="0px"
   width="56.108002"
   height="34.868999"
   viewBox="0 0 56.108002 34.868999"
   enable-background="new 0 0 200 200"
   xml:space="preserve"
   id="svg2"
   inkscape:version="0.48.4 r9939"
   sodipodi:docname="Mountain.svg"><metadata
     id="metadata20"><rdf:RDF><cc:Work
         rdf:about=""><dc:format>image/svg+xml</dc:format><dc:type
           rdf:resource="http://purl.org/dc/dcmitype/StillImage" /></cc:Work></rdf:RDF></metadata><defs
     id="defs18" /><sodipodi:namedview
     pagecolor="#ffffff"
     bordercolor="#666666"
     borderopacity="1"
     objecttolerance="10"
     gridtolerance="10"
     guidetolerance="10"
     inkscape:pageopacity="0"
     inkscape:pageshadow="2"
     inkscape:window-width="1855"
     inkscape:window-height="1056"
     id="namedview16"
     showgrid="false"
     fit-margin-top="0"
     fit-margin-left="0"
     fit-margin-right="0"
     fit-margin-bottom="0"
     inkscape:zoom="1.18"
     inkscape:cx="26.312"
     inkscape:cy="33.869"
     inkscape:window-x="1665"
     inkscape:window-y="24"
     inkscape:window-maximized="1"
     inkscape:current-layer="svg2" /><g
     id="Ebene_1"
     transform="translate(-73.688,-99)" /><g
     id="Detail"
     transform="translate(-73.688,-99)"><g
       id="g6"><g
         id="g8"><path
           d="M 116.232,133.823 H 74.821 c -0.404,0 -0.766,-0.209 -0.967,-0.56 -0.11,-0.191 -0.166,-0.416 -0.166,-0.668 0,-2.076 5.284,-11.908 8.855,-17.899 C 88.751,104.281 93.118,99 95.521,99 c 5.103,0 21.867,29.817 21.867,33.564 0,0.267 -0.06,0.503 -0.177,0.702 -0.206,0.349 -0.572,0.557 -0.979,0.557 z m -40.384,-2 h 39.353 c -0.779,-2.267 -3.937,-8.633 -8.487,-16.175 C 100.275,104.976 96.492,101.041 95.52,101 c -3.137,0 -17.958,25.076 -19.672,30.823 z"
           id="path10"
           inkscape:connector-curvature="0"
           style="fill:#1f2020" /></g><g
         id="g12"><path
           d="m 117.149,133.869 c -1.032,0 -2.099,0 -2.28,-0.971 -0.097,-0.518 0.158,-0.854 0.467,-1.076 -1.326,-2.955 -5.949,-12.619 -10.022,-18.72 -0.342,-0.513 -0.234,-1.104 0.428,-2.341 0.384,-0.718 2.403,-4.302 4.424,-4.302 4.58,0 19.629,23.179 19.63,26.091 0,0.836 -0.602,1.273 -1.197,1.273 l 0,0 c -0.015,0 -9.887,0.046 -11.45,0.046 z m -9.953,-21.548 c 4.672,7.102 9.77,18.126 10.338,19.548 1.878,-0.004 7.713,-0.03 10.061,-0.041 -1.779,-4.584 -14.702,-23.25 -17.43,-23.369 -0.719,0.121 -2.546,2.751 -2.969,3.862 z"
           id="path14"
           inkscape:connector-curvature="0"
           style="fill:#1f2020" /></g></g></g></svg>