<?xml version="1.0" encoding="utf-8"?>
<!-- Generator: Adobe Illustrator 16.0.4, SVG Export Plug-In . SVG Version: 6.00 Build 0)  -->
<!DOCTYPE svg PUBLIC "-//W3C//DTD SVG 1.1//EN" "http://www.w3.org/Graphics/SVG/1.1/DTD/svg11.dtd">
<svg version="1.1" xmlns="http://www.w3.org/2000/svg" xmlns:xlink="http://www.w3.org/1999/xlink" x="0px" y="0px" width="200px"
	 height="200px" viewBox="0 0 200 200" enable-background="new 0 0 200 200" xml:space="preserve">
<g id="Ebene_1">
</g>
<g id="Detail">
	<g>
		<g>
			<path fill="#1F2020" d="M116.232,133.823H74.821c-0.404,0-0.766-0.209-0.967-0.56c-0.11-0.191-0.166-0.416-0.166-0.668
				c0-2.076,5.284-11.908,8.855-17.899C88.751,104.281,93.118,99,95.521,99c5.103,0,21.867,29.817,21.867,33.564
				c0,0.267-0.06,0.503-0.177,0.702C117.005,133.615,116.639,133.823,116.232,133.823z M75.848,131.823h39.353
				c-0.779-2.267-3.937-8.633-8.487-16.175C100.275,104.976,96.492,101.041,95.52,101C92.383,101,77.562,126.076,75.848,131.823z"/>
		</g>
		<g>
			<path fill="#1F2020" d="M117.149,133.869c-1.032,0-2.099,0-2.28-0.971c-0.097-0.518,0.158-0.854,0.467-1.076
				c-1.326-2.955-5.949-12.619-10.022-18.72c-0.342-0.513-0.234-1.104,0.428-2.341c0.384-0.718,2.403-4.302,4.424-4.302
				c4.58,0,19.629,23.179,19.63,26.091c0,0.836-0.602,1.273-1.197,1.273l0,0C128.584,133.823,118.712,133.869,117.149,133.869z
				 M107.196,112.321c4.672,7.102,9.77,18.126,10.338,19.548c1.878-0.004,7.713-0.03,10.061-0.041
				c-1.779-4.584-14.702-23.25-17.43-23.369C109.446,108.58,107.619,111.21,107.196,112.321z"/>
		</g>
	</g>
</g>
</svg>
