<?xml version="1.0" encoding="UTF-8" standalone="no"?>
<!-- Generator: Adobe Illustrator 16.0.4, SVG Export Plug-In . SVG Version: 6.00 Build 0)  -->

<svg
   xmlns:dc="http://purl.org/dc/elements/1.1/"
   xmlns:cc="http://creativecommons.org/ns#"
   xmlns:rdf="http://www.w3.org/1999/02/22-rdf-syntax-ns#"
   xmlns:svg="http://www.w3.org/2000/svg"
   xmlns="http://www.w3.org/2000/svg"
   xmlns:sodipodi="http://sodipodi.sourceforge.net/DTD/sodipodi-0.dtd"
   xmlns:inkscape="http://www.inkscape.org/namespaces/inkscape"
   version="1.1"
   x="0px"
   y="0px"
   width="80.75032"
   height="101.0625"
   viewBox="0 0 80.75032 101.0625"
   enable-background="new 0 0 200 200"
   xml:space="preserve"
   id="svg2"
   inkscape:version="0.48.4 r9939"
   sodipodi:docname="Pin.svg"><metadata
     id="metadata20"><rdf:RDF><cc:Work
         rdf:about=""><dc:format>image/svg+xml</dc:format><dc:type
           rdf:resource="http://purl.org/dc/dcmitype/StillImage" /></cc:Work></rdf:RDF></metadata><defs
     id="defs18" /><sodipodi:namedview
     pagecolor="#ffffff"
     bordercolor="#666666"
     borderopacity="1"
     objecttolerance="10"
     gridtolerance="10"
     guidetolerance="10"
     inkscape:pageopacity="0"
     inkscape:pageshadow="2"
     inkscape:window-width="1855"
     inkscape:window-height="1056"
     id="namedview16"
     showgrid="false"
     fit-margin-top="0"
     fit-margin-left="0"
     fit-margin-right="0"
     fit-margin-bottom="0"
     inkscape:zoom="1.18"
     inkscape:cx="40.375"
     inkscape:cy="56.15625"
     inkscape:window-x="1665"
     inkscape:window-y="24"
     inkscape:window-maximized="1"
     inkscape:current-layer="Ebene_1" /><g
     id="Ebene_1"
     transform="translate(-59.625,-55.09375)"><rect
       x="1.755"
       y="-65.246002"
       width="196.49001"
       height="65.246002"
       id="rect5"
       style="fill:none" /><text
       transform="translate(38.8794,-27.2461)"
       font-size="50"
       id="text7"
       style="font-size:50px;fill:#ffffff;font-family:OpenSans">PIEDI</text>
<g
       id="g9"><path
         stroke-miterlimit="10"
         d="m 139.363,96.833 c -0.098,-22.499 -17.619,-40.74 -39.362,-40.74 -21.743,0 -39.363,18.241 -39.363,40.74 0,29.122 39.298,58.068 39.298,58.068 0,0 39.555,-28.946 39.427,-58.068 z"
         id="path11"
         inkscape:connector-curvature="0"
         style="fill:#d35400;stroke:#ffffff;stroke-width:2;stroke-miterlimit:10" /></g><path
       clip-rule="evenodd"
       d="m 94.475,103.648 c -0.457,-1.073 -1.488,-3.135 -1.812,-3.797 l -0.156,-0.37 -10.265,2.173 0.157,0.603 c 0.069,0.26 0.149,0.619 0.256,1.034 l 0.091,0.436 0.021,0.01 c 0.505,1.868 1.38,4.522 2.497,5.541 0.839,0.784 1.959,1.323 3.493,1.5 0.312,-0.01 1.948,0.024 3.73,-0.604 1.61,-0.561 2.428,-1.346 2.618,-2.273 0.312,-1.533 -0.038,-2.856 -0.63,-4.253 z M 90.146,78.261 c -0.999,-1.253 -3.418,-2.136 -5.688,-2.136 l -0.334,0.01 c -1.443,0.056 -2.889,0.449 -4.073,1.288 -1.658,1.162 -2.53,3.001 -2.878,5.171 -0.67,4.243 -0.457,5.633 1.117,10.309 0.54,1.577 2.206,4.509 3.158,6.121 0.042,0.125 0.246,0.74 0.482,1.561 l 10.187,-2.164 c -0.134,-0.402 -0.249,-0.76 -0.324,-0.996 -0.228,-1.277 -0.561,-3.67 -0.113,-4.801 0.659,-1.656 1.467,-4.309 1.467,-6.839 -0.013,-3.504 -0.862,-4.873 -3.001,-7.524 z m 3.067,34.04 c -1.971,0.691 -3.74,0.715 -4.321,0.725 h -0.064 l -0.161,0.015 -0.166,-0.024 c -1.893,-0.224 -3.482,-0.918 -4.736,-2.069 -2.159,-1.995 -3.334,-7.21 -3.648,-8.755 l -0.313,-1.577 c -0.931,-1.558 -2.944,-5.024 -3.613,-6.983 -1.634,-4.836 -1.972,-6.582 -1.214,-11.397 0.485,-2.974 1.763,-5.226 3.799,-6.657 1.453,-1.032 3.277,-1.609 5.258,-1.688 l 0.426,-0.014 c 2.51,0 5.766,0.92 7.41,2.965 2.376,2.954 3.492,4.803 3.492,8.944 0,3.121 -1.008,6.146 -1.609,7.677 -0.18,0.538 0.01,2.644 0.38,4.332 l 0.009,0.063 0.384,0.743 c 0.057,0.111 1.431,2.82 1.989,4.162 0.641,1.504 1.232,3.336 0.763,5.596 -0.374,1.802 -1.738,3.12 -4.065,3.942 z m 27.276,-15.155 c -0.348,-2.175 -1.22,-4.009 -2.874,-5.174 -1.188,-0.838 -2.635,-1.229 -4.076,-1.289 l -0.335,-0.01 c -2.275,0 -4.688,0.883 -5.688,2.137 -2.138,2.654 -2.987,4.021 -2.999,7.521 0,2.531 0.809,5.182 1.469,6.84 0.444,1.129 0.111,3.529 -0.115,4.803 -0.079,0.236 -0.191,0.596 -0.322,0.997 l 10.185,2.161 c 0.233,-0.818 0.437,-1.436 0.483,-1.559 0.951,-1.61 2.616,-4.54 3.154,-6.125 1.576,-4.673 1.789,-6.063 1.118,-10.302 z m -17.304,21.051 c -0.595,1.399 -0.938,2.721 -0.63,4.254 0.191,0.928 1.01,1.711 2.621,2.271 1.778,0.629 3.416,0.596 3.729,0.604 1.533,-0.18 2.652,-0.716 3.491,-1.501 1.119,-1.015 1.994,-3.67 2.498,-5.539 l 0.024,-0.014 0.085,-0.435 c 0.109,-0.413 0.189,-0.771 0.259,-1.028 l 0.157,-0.605 -10.265,-2.17 -0.156,0.367 c -0.327,0.663 -1.355,2.72 -1.813,3.796 z m 18.29,-10.013 c -0.673,1.957 -2.685,5.424 -3.613,6.982 l -0.316,1.576 c -0.315,1.545 -1.486,6.76 -3.652,8.752 -1.251,1.157 -2.839,1.848 -4.731,2.071 l -0.171,0.024 -0.152,-0.012 h -0.068 c -0.582,-0.013 -2.347,-0.035 -4.32,-0.729 -2.325,-0.817 -3.694,-2.137 -4.062,-3.938 -0.47,-2.264 0.123,-4.096 0.763,-5.6 0.556,-1.341 1.933,-4.051 1.989,-4.162 l 0.381,-0.74 0.012,-0.064 c 0.373,-1.691 0.56,-3.795 0.38,-4.334 -0.602,-1.531 -1.608,-4.555 -1.608,-7.68 0,-4.141 1.117,-5.985 3.487,-8.94 1.646,-2.048 4.903,-2.97 7.413,-2.97 l 0.423,0.014 c 1.984,0.078 3.808,0.66 5.263,1.689 2.037,1.432 3.316,3.686 3.795,6.66 0.754,4.815 0.422,6.563 -1.213,11.401 z"
       id="path13"
       inkscape:connector-curvature="0"
       style="fill:#ffffff;fill-rule:evenodd" /></g><g
     id="Detail"
     transform="translate(-59.625,-55.09375)" /></svg>