<?xml version="1.0" encoding="utf-8"?>
<!-- Generator: Adobe Illustrator 16.0.4, SVG Export Plug-In . SVG Version: 6.00 Build 0)  -->
<!DOCTYPE svg PUBLIC "-//W3C//DTD SVG 1.1//EN" "http://www.w3.org/Graphics/SVG/1.1/DTD/svg11.dtd">
<svg version="1.1" xmlns="http://www.w3.org/2000/svg" xmlns:xlink="http://www.w3.org/1999/xlink" x="0px" y="0px"
	 width="538.29px" height="112.412px" viewBox="0 0 538.29 112.412" enable-background="new 0 0 538.29 112.412"
	 xml:space="preserve">
<g id="Ebene_1">
</g>
<g id="Detail">
	<path fill="#FFFFFF" d="M172.76,56.206c0,1.282-1.039,2.321-2.321,2.321H39.114c-1.282,0-2.321-1.039-2.321-2.321l0,0
		c0-1.282,1.039-2.321,2.321-2.321h131.324C171.721,53.884,172.76,54.923,172.76,56.206L172.76,56.206z"/>
	<path fill="#AEAEAE" d="M501.497,56.206c0,1.282-1.039,2.321-2.321,2.321H169.127c-1.282,0-2.321-1.039-2.321-2.321l0,0
		c0-1.282,1.039-2.321,2.321-2.321h330.049C500.458,53.884,501.497,54.923,501.497,56.206L501.497,56.206z"/>
	<circle fill="#FFFFFF" stroke="#D35400" stroke-width="2" stroke-miterlimit="10" cx="171.6" cy="56.207" r="21.203"/>
</g>
</svg>
