<?xml version="1.0" encoding="UTF-8" standalone="no"?>
<!-- Generator: Adobe Illustrator 16.0.4, SVG Export Plug-In . SVG Version: 6.00 Build 0)  -->

<svg
   xmlns:dc="http://purl.org/dc/elements/1.1/"
   xmlns:cc="http://creativecommons.org/ns#"
   xmlns:rdf="http://www.w3.org/1999/02/22-rdf-syntax-ns#"
   xmlns:svg="http://www.w3.org/2000/svg"
   xmlns="http://www.w3.org/2000/svg"
   xmlns:sodipodi="http://sodipodi.sourceforge.net/DTD/sodipodi-0.dtd"
   xmlns:inkscape="http://www.inkscape.org/namespaces/inkscape"
   version="1.1"
   x="0px"
   y="0px"
   width="45.592804"
   height="50.515999"
   viewBox="0 0 45.592804 50.515999"
   enable-background="new 0 0 200 200"
   xml:space="preserve"
   id="svg2"
   inkscape:version="0.48.4 r9939"
   sodipodi:docname="Walk.svg"><metadata
     id="metadata14"><rdf:RDF><cc:Work
         rdf:about=""><dc:format>image/svg+xml</dc:format><dc:type
           rdf:resource="http://purl.org/dc/dcmitype/StillImage" /></cc:Work></rdf:RDF></metadata><defs
     id="defs12" /><sodipodi:namedview
     pagecolor="#ffffff"
     bordercolor="#666666"
     borderopacity="1"
     objecttolerance="10"
     gridtolerance="10"
     guidetolerance="10"
     inkscape:pageopacity="0"
     inkscape:pageshadow="2"
     inkscape:window-width="1855"
     inkscape:window-height="1056"
     id="namedview10"
     showgrid="false"
     fit-margin-top="0"
     fit-margin-left="0"
     fit-margin-right="0"
     fit-margin-bottom="0"
     inkscape:zoom="1.18"
     inkscape:cx="27.258282"
     inkscape:cy="39.619"
     inkscape:window-x="1665"
     inkscape:window-y="24"
     inkscape:window-maximized="1"
     inkscape:current-layer="svg2" /><g
     id="Ebene_1"
     transform="translate(-72.741718,-89.103)" /><g
     id="Detail"
     transform="translate(-72.741718,-89.103)"><g
       id="g6"><path
         clip-rule="evenodd"
         d="m 91.443,117.102 c -0.431,-1.008 -1.401,-2.947 -1.707,-3.568 l -0.146,-0.348 -9.653,2.045 0.149,0.566 c 0.062,0.244 0.136,0.58 0.24,0.969 l 0.083,0.411 0.022,0.011 c 0.475,1.758 1.297,4.252 2.347,5.211 0.791,0.738 1.843,1.241 3.286,1.409 0.296,-0.007 1.831,0.022 3.505,-0.565 1.517,-0.529 2.284,-1.266 2.464,-2.137 0.296,-1.445 -0.033,-2.686 -0.59,-4.004 z M 87.371,93.229 c -0.939,-1.178 -3.213,-2.01 -5.349,-2.01 l -0.316,0.011 c -1.355,0.053 -2.716,0.421 -3.829,1.21 -1.56,1.096 -2.38,2.821 -2.707,4.865 -0.631,3.987 -0.432,5.296 1.052,9.693 0.504,1.485 2.073,4.243 2.97,5.758 0.041,0.115 0.23,0.694 0.451,1.463 l 9.58,-2.031 c -0.125,-0.379 -0.232,-0.715 -0.305,-0.938 -0.211,-1.197 -0.526,-3.451 -0.106,-4.516 0.622,-1.557 1.379,-4.053 1.379,-6.432 -0.011,-3.294 -0.811,-4.578 -2.82,-7.073 z m 2.882,32.011 c -1.852,0.652 -3.516,0.673 -4.062,0.684 h -0.062 l -0.149,0.01 -0.158,-0.021 c -1.776,-0.21 -3.273,-0.862 -4.453,-1.946 -2.032,-1.874 -3.136,-6.779 -3.432,-8.232 l -0.295,-1.482 c -0.874,-1.465 -2.767,-4.728 -3.401,-6.569 -1.532,-4.549 -1.85,-6.19 -1.136,-10.717 0.453,-2.8 1.654,-4.915 3.57,-6.263 1.368,-0.97 3.084,-1.516 4.945,-1.59 l 0.401,-0.011 c 2.358,0 5.422,0.864 6.968,2.79 2.234,2.779 3.284,4.515 3.284,8.41 0,2.938 -0.947,5.779 -1.515,7.223 -0.167,0.504 0.012,2.484 0.355,4.072 l 0.012,0.062 0.359,0.695 c 0.055,0.106 1.346,2.654 1.873,3.914 0.6,1.414 1.158,3.139 0.716,5.265 -0.347,1.695 -1.629,2.937 -3.82,3.706 z m 25.654,-14.254 c -0.327,-2.041 -1.147,-3.768 -2.704,-4.862 -1.117,-0.79 -2.476,-1.157 -3.832,-1.212 l -0.315,-0.012 c -2.139,0 -4.411,0.833 -5.35,2.012 -2.01,2.496 -2.81,3.781 -2.818,7.074 0,2.38 0.756,4.875 1.379,6.434 0.42,1.062 0.104,3.315 -0.107,4.514 -0.074,0.223 -0.179,0.56 -0.304,0.938 l 9.576,2.032 c 0.223,-0.77 0.414,-1.348 0.456,-1.465 0.894,-1.514 2.462,-4.273 2.967,-5.757 1.482,-4.398 1.683,-5.705 1.052,-9.696 z m -16.273,19.8 c -0.561,1.317 -0.886,2.56 -0.591,4.001 0.18,0.875 0.946,1.611 2.462,2.139 1.673,0.589 3.211,0.559 3.507,0.568 1.441,-0.17 2.495,-0.676 3.285,-1.412 1.051,-0.956 1.873,-3.453 2.346,-5.211 l 0.023,-0.01 0.081,-0.408 c 0.104,-0.391 0.18,-0.729 0.243,-0.971 l 0.149,-0.568 -9.654,-2.041 -0.148,0.346 c -0.306,0.622 -1.272,2.558 -1.703,3.567 z m 17.199,-9.419 c -0.632,1.843 -2.525,5.104 -3.398,6.566 l -0.297,1.486 c -0.294,1.451 -1.4,6.357 -3.433,8.232 -1.177,1.084 -2.673,1.734 -4.45,1.947 l -0.158,0.021 -0.146,-0.011 h -0.066 c -0.547,-0.01 -2.209,-0.033 -4.062,-0.685 -2.188,-0.769 -3.473,-2.012 -3.82,-3.706 -0.442,-2.127 0.116,-3.852 0.718,-5.264 0.525,-1.262 1.819,-3.809 1.871,-3.916 l 0.358,-0.693 0.013,-0.064 c 0.345,-1.59 0.524,-3.566 0.355,-4.073 -0.566,-1.442 -1.514,-4.284 -1.514,-7.222 0,-3.895 1.051,-5.63 3.281,-8.41 1.548,-1.926 4.611,-2.789 6.971,-2.789 l 0.398,0.011 c 1.863,0.074 3.58,0.622 4.948,1.59 1.916,1.346 3.117,3.462 3.567,6.263 0.716,4.528 0.402,6.17 -1.136,10.717 z"
         id="path8"
         inkscape:connector-curvature="0"
         style="fill:#1f2020;fill-rule:evenodd" /></g></g></svg>