<?xml version="1.0" encoding="utf-8"?>
<!-- Generator: Adobe Illustrator 16.0.4, SVG Export Plug-In . SVG Version: 6.00 Build 0)  -->
<!DOCTYPE svg PUBLIC "-//W3C//DTD SVG 1.1//EN" "http://www.w3.org/Graphics/SVG/1.1/DTD/svg11.dtd">
<svg version="1.1" xmlns="http://www.w3.org/2000/svg" xmlns:xlink="http://www.w3.org/1999/xlink" x="0px" y="0px" width="200px"
	 height="200px" viewBox="0 0 200 200" enable-background="new 0 0 200 200" xml:space="preserve">
<g id="Ebene_1">
</g>
<g id="Detail">
	<g>
		<path fill-rule="evenodd" clip-rule="evenodd" fill="#1F2020" d="M91.443,117.102c-0.431-1.008-1.401-2.947-1.707-3.568
			l-0.146-0.348l-9.653,2.045l0.149,0.566c0.062,0.244,0.136,0.58,0.24,0.969l0.083,0.411l0.022,0.011
			c0.475,1.758,1.297,4.252,2.347,5.211c0.791,0.738,1.843,1.241,3.286,1.409c0.296-0.007,1.831,0.022,3.505-0.565
			c1.517-0.529,2.284-1.266,2.464-2.137C92.329,119.661,92,118.42,91.443,117.102z M87.371,93.229
			c-0.939-1.178-3.213-2.01-5.349-2.01l-0.316,0.011c-1.355,0.053-2.716,0.421-3.829,1.21c-1.56,1.096-2.38,2.821-2.707,4.865
			c-0.631,3.987-0.432,5.296,1.052,9.693c0.504,1.485,2.073,4.243,2.97,5.758c0.041,0.115,0.23,0.694,0.451,1.463l9.58-2.031
			c-0.125-0.379-0.232-0.715-0.305-0.938c-0.211-1.197-0.526-3.451-0.106-4.516c0.622-1.557,1.379-4.053,1.379-6.432
			C90.18,97.008,89.38,95.724,87.371,93.229z M90.253,125.24c-1.852,0.652-3.516,0.673-4.062,0.684h-0.062l-0.149,0.01l-0.158-0.021
			c-1.776-0.21-3.273-0.862-4.453-1.946c-2.032-1.874-3.136-6.779-3.432-8.232l-0.295-1.482c-0.874-1.465-2.767-4.728-3.401-6.569
			c-1.532-4.549-1.85-6.19-1.136-10.717c0.453-2.8,1.654-4.915,3.57-6.263c1.368-0.97,3.084-1.516,4.945-1.59l0.401-0.011
			c2.358,0,5.422,0.864,6.968,2.79c2.234,2.779,3.284,4.515,3.284,8.41c0,2.938-0.947,5.779-1.515,7.223
			c-0.167,0.504,0.012,2.484,0.355,4.072l0.012,0.062l0.359,0.695c0.055,0.106,1.346,2.654,1.873,3.914
			c0.6,1.414,1.158,3.139,0.716,5.265C93.726,123.229,92.444,124.471,90.253,125.24z M115.907,110.986
			c-0.327-2.041-1.147-3.768-2.704-4.862c-1.117-0.79-2.476-1.157-3.832-1.212l-0.315-0.012c-2.139,0-4.411,0.833-5.35,2.012
			c-2.01,2.496-2.81,3.781-2.818,7.074c0,2.38,0.756,4.875,1.379,6.434c0.42,1.062,0.104,3.315-0.107,4.514
			c-0.074,0.223-0.179,0.56-0.304,0.938l9.576,2.032c0.223-0.77,0.414-1.348,0.456-1.465c0.894-1.514,2.462-4.273,2.967-5.757
			C116.337,116.284,116.538,114.977,115.907,110.986z M99.634,130.786c-0.561,1.317-0.886,2.56-0.591,4.001
			c0.18,0.875,0.946,1.611,2.462,2.139c1.673,0.589,3.211,0.559,3.507,0.568c1.441-0.17,2.495-0.676,3.285-1.412
			c1.051-0.956,1.873-3.453,2.346-5.211l0.023-0.01l0.081-0.408c0.104-0.391,0.18-0.729,0.243-0.971l0.149-0.568l-9.654-2.041
			l-0.148,0.346C101.031,127.841,100.065,129.777,99.634,130.786z M116.833,121.367c-0.632,1.843-2.525,5.104-3.398,6.566
			l-0.297,1.486c-0.294,1.451-1.4,6.357-3.433,8.232c-1.177,1.084-2.673,1.734-4.45,1.947l-0.158,0.021l-0.146-0.011h-0.066
			c-0.547-0.01-2.209-0.033-4.062-0.685c-2.188-0.769-3.473-2.012-3.82-3.706c-0.442-2.127,0.116-3.852,0.718-5.264
			c0.525-1.262,1.819-3.809,1.871-3.916l0.358-0.693l0.013-0.064c0.345-1.59,0.524-3.566,0.355-4.073
			c-0.566-1.442-1.514-4.284-1.514-7.222c0-3.895,1.051-5.63,3.281-8.41c1.548-1.926,4.611-2.789,6.971-2.789l0.398,0.011
			c1.863,0.074,3.58,0.622,4.948,1.59c1.916,1.346,3.117,3.462,3.567,6.263C118.685,115.178,118.371,116.82,116.833,121.367z"/>
	</g>
</g>
</svg>
