<?xml version="1.0" encoding="utf-8"?>
<!-- Generator: Adobe Illustrator 16.0.4, SVG Export Plug-In . SVG Version: 6.00 Build 0)  -->
<!DOCTYPE svg PUBLIC "-//W3C//DTD SVG 1.1//EN" "http://www.w3.org/Graphics/SVG/1.1/DTD/svg11.dtd">
<svg version="1.1" xmlns="http://www.w3.org/2000/svg" xmlns:xlink="http://www.w3.org/1999/xlink" x="0px" y="0px" width="200px"
	 height="200px" viewBox="0 0 200 200" enable-background="new 0 0 200 200" xml:space="preserve">
<g id="Ebene_1">
	<path fill="#FFFFFF" d="M148.663,89.052c17.875,0,32.367-14.492,32.367-32.367c0-17.877-14.492-32.367-32.367-32.367H56.708
		c-17.878,0-32.368,14.49-32.368,32.367c0,17.875,14.49,32.367,32.368,32.367H148.663z"/>
	<g>
		<path fill="#1F2020" d="M133.027,48.903c0,1.561-0.473,2.888-1.418,3.982c-0.946,1.094-2.273,1.846-3.982,2.256v0.103
			c2.018,0.251,3.544,0.863,4.58,1.837c1.037,0.975,1.556,2.288,1.556,3.939c0,2.404-0.872,4.275-2.614,5.614
			c-1.744,1.339-4.233,2.008-7.469,2.008c-2.712,0-5.116-0.45-7.212-1.35v-4.495c0.968,0.49,2.034,0.889,3.196,1.196
			s2.312,0.461,3.451,0.461c1.744,0,3.031-0.296,3.863-0.889c0.831-0.592,1.247-1.543,1.247-2.854c0-1.173-0.479-2.005-1.436-2.495
			c-0.957-0.49-2.484-0.735-4.58-0.735h-1.897v-4.05h1.932c1.937,0,3.353-0.253,4.247-0.761c0.894-0.506,1.341-1.375,1.341-2.606
			c0-1.891-1.185-2.837-3.555-2.837c-0.82,0-1.654,0.137-2.503,0.41c-0.85,0.273-1.792,0.747-2.829,1.418l-2.443-3.64
			c2.278-1.641,4.996-2.461,8.152-2.461c2.586,0,4.628,0.524,6.126,1.572C132.278,45.577,133.027,47.035,133.027,48.903z"/>
	</g>
	<circle fill="#029EF6" cx="60.03" cy="56.685" r="22.626"/>
	<path fill="#707980" d="M145.978,119.77c16.745,0,30.367,13.623,30.367,30.367s-13.623,30.367-30.367,30.367H54.023
		c-16.745,0-30.368-13.623-30.368-30.367s13.623-30.367,30.368-30.367H145.978 M145.978,117.77H54.023
		c-17.878,0-32.368,14.49-32.368,32.367c0,17.875,14.49,32.367,32.368,32.367h91.955c17.875,0,32.367-14.492,32.367-32.367
		C178.345,132.26,163.853,117.77,145.978,117.77L145.978,117.77z"/>
	<g>
		<path fill="#707980" d="M85.061,161.752H67.595v-3.674l6.272-6.34c1.856-1.902,3.069-3.222,3.64-3.956
			c0.569-0.735,0.979-1.416,1.23-2.042c0.25-0.626,0.376-1.276,0.376-1.948c0-1.002-0.276-1.749-0.829-2.239
			c-0.553-0.49-1.29-0.735-2.213-0.735c-0.969,0-1.908,0.222-2.819,0.667c-0.912,0.444-1.863,1.077-2.854,1.897l-2.871-3.401
			c1.23-1.048,2.25-1.789,3.06-2.222c0.809-0.433,1.691-0.766,2.648-1c0.957-0.233,2.027-0.35,3.213-0.35
			c1.561,0,2.939,0.285,4.136,0.854c1.196,0.57,2.125,1.367,2.786,2.393c0.66,1.025,0.99,2.199,0.99,3.521
			c0,1.151-0.202,2.23-0.606,3.239c-0.404,1.008-1.031,2.042-1.88,3.102s-2.344,2.569-4.486,4.529l-3.213,3.025v0.239h10.887
			V161.752z"/>
	</g>
	<circle fill="none" stroke="#707980" stroke-width="2" stroke-miterlimit="10" cx="143.252" cy="150.137" r="22.626"/>
</g>
<g id="Detail">
</g>
</svg>
