<?xml version="1.0" encoding="UTF-8" standalone="no"?>
<!-- Generator: Adobe Illustrator 16.0.4, SVG Export Plug-In . SVG Version: 6.00 Build 0)  -->

<svg
   xmlns:dc="http://purl.org/dc/elements/1.1/"
   xmlns:cc="http://creativecommons.org/ns#"
   xmlns:rdf="http://www.w3.org/1999/02/22-rdf-syntax-ns#"
   xmlns:svg="http://www.w3.org/2000/svg"
   xmlns="http://www.w3.org/2000/svg"
   xmlns:sodipodi="http://sodipodi.sourceforge.net/DTD/sodipodi-0.dtd"
   xmlns:inkscape="http://www.inkscape.org/namespaces/inkscape"
   version="1.1"
   x="0px"
   y="0px"
   width="82.542999"
   height="82.543999"
   viewBox="0 0 82.542999 82.543999"
   enable-background="new 0 0 200 200"
   xml:space="preserve"
   id="svg2"
   inkscape:version="0.48.4 r9939"
   sodipodi:docname="Close.svg"><metadata
     id="metadata30"><rdf:RDF><cc:Work
         rdf:about=""><dc:format>image/svg+xml</dc:format><dc:type
           rdf:resource="http://purl.org/dc/dcmitype/StillImage" /></cc:Work></rdf:RDF></metadata><defs
     id="defs28" /><sodipodi:namedview
     pagecolor="#ffffff"
     bordercolor="#666666"
     borderopacity="1"
     objecttolerance="10"
     gridtolerance="10"
     guidetolerance="10"
     inkscape:pageopacity="0"
     inkscape:pageshadow="2"
     inkscape:window-width="1855"
     inkscape:window-height="1056"
     id="namedview26"
     showgrid="false"
     fit-margin-top="0"
     fit-margin-left="0"
     fit-margin-right="0"
     fit-margin-bottom="0"
     inkscape:zoom="1.18"
     inkscape:cx="44.775"
     inkscape:cy="41.272"
     inkscape:window-x="1665"
     inkscape:window-y="24"
     inkscape:window-maximized="1"
     inkscape:current-layer="svg2" /><g
     id="Ebene_1"
     transform="translate(-55.225,-58.728)"><g
       id="g5"><g
         id="g7"><g
           id="g9"><rect
             x="72.606003"
             y="96.538002"
             transform="matrix(0.7097,0.7045,-0.7045,0.7097,96.7202,-39.6642)"
             width="47.772999"
             height="2"
             id="rect11"
             style="fill:#1f2020" /></g></g><g
         id="g13"><g
           id="g15"><rect
             x="95.491997"
             y="73.653999"
             transform="matrix(0.71,0.7042,-0.7042,0.71,96.6628,-39.6637)"
             width="2"
             height="47.768002"
             id="rect17"
             style="fill:#1f2020" /></g></g><g
         id="g19"><g
           id="g21"><path
             d="m 96.497,141.272 c -22.758,0 -41.272,-18.515 -41.272,-41.272 0,-22.757 18.515,-41.272 41.272,-41.272 22.757,0 41.271,18.515 41.271,41.272 0,22.757 -18.514,41.272 -41.271,41.272 z m 0,-80.544 c -21.655,0 -39.272,17.617 -39.272,39.272 0,21.655 17.618,39.272 39.272,39.272 21.654,0 39.271,-17.617 39.271,-39.272 0,-21.655 -17.617,-39.272 -39.271,-39.272 z"
             id="path23"
             inkscape:connector-curvature="0"
             style="fill:#1f2020" /></g></g></g></g><g
     id="Detail"
     transform="translate(-55.225,-58.728)" /></svg>