<?xml version="1.0" encoding="utf-8"?>
<!-- Generator: Adobe Illustrator 16.0.4, SVG Export Plug-In . SVG Version: 6.00 Build 0)  -->
<!DOCTYPE svg PUBLIC "-//W3C//DTD SVG 1.1//EN" "http://www.w3.org/Graphics/SVG/1.1/DTD/svg11.dtd">
<svg version="1.1" xmlns="http://www.w3.org/2000/svg" xmlns:xlink="http://www.w3.org/1999/xlink" x="0px" y="0px" width="200px"
	 height="200px" viewBox="0 0 200 200" enable-background="new 0 0 200 200" xml:space="preserve">
<g id="Ebene_1">
	<g>
		<g>
			<g>
				
					<rect x="72.606" y="96.538" transform="matrix(0.7097 0.7045 -0.7045 0.7097 96.7202 -39.6642)" fill="#1F2020" width="47.773" height="2"/>
			</g>
		</g>
		<g>
			<g>
				
					<rect x="95.492" y="73.654" transform="matrix(0.71 0.7042 -0.7042 0.71 96.6628 -39.6637)" fill="#1F2020" width="2" height="47.768"/>
			</g>
		</g>
		<g>
			<g>
				<path fill="#1F2020" d="M96.497,141.272c-22.758,0-41.272-18.515-41.272-41.272s18.515-41.272,41.272-41.272
					c22.757,0,41.271,18.515,41.271,41.272S119.254,141.272,96.497,141.272z M96.497,60.728c-21.655,0-39.272,17.617-39.272,39.272
					s17.618,39.272,39.272,39.272c21.654,0,39.271-17.617,39.271-39.272S118.151,60.728,96.497,60.728z"/>
			</g>
		</g>
	</g>
</g>
<g id="Detail">
</g>
</svg>
