<?xml version="1.0" encoding="UTF-8" standalone="no"?>
<!-- Generator: Adobe Illustrator 16.0.4, SVG Export Plug-In . SVG Version: 6.00 Build 0)  -->

<svg
   xmlns:dc="http://purl.org/dc/elements/1.1/"
   xmlns:cc="http://creativecommons.org/ns#"
   xmlns:rdf="http://www.w3.org/1999/02/22-rdf-syntax-ns#"
   xmlns:svg="http://www.w3.org/2000/svg"
   xmlns="http://www.w3.org/2000/svg"
   xmlns:sodipodi="http://sodipodi.sourceforge.net/DTD/sodipodi-0.dtd"
   xmlns:inkscape="http://www.inkscape.org/namespaces/inkscape"
   version="1.1"
   x="0px"
   y="0px"
   width="110.351"
   height="110.354"
   viewBox="0 0 110.351 110.35399"
   enable-background="new 0 0 200 200"
   xml:space="preserve"
   id="svg2"
   inkscape:version="0.48.4 r9939"
   sodipodi:docname="Config.svg"
   inkscape:export-filename="/home/pbertolla/git/realtimebus/client/images/3_Bus/Config.png"
   inkscape:export-xdpi="83"
   inkscape:export-ydpi="83"><metadata
     id="metadata34"><rdf:RDF><cc:Work
         rdf:about=""><dc:format>image/svg+xml</dc:format><dc:type
           rdf:resource="http://purl.org/dc/dcmitype/StillImage" /><dc:title></dc:title></cc:Work></rdf:RDF></metadata><defs
     id="defs32" /><sodipodi:namedview
     pagecolor="#ffffff"
     bordercolor="#666666"
     borderopacity="1"
     objecttolerance="10"
     gridtolerance="10"
     guidetolerance="10"
     inkscape:pageopacity="0"
     inkscape:pageshadow="2"
     inkscape:window-width="1855"
     inkscape:window-height="1056"
     id="namedview30"
     showgrid="false"
     fit-margin-top="0"
     fit-margin-left="0"
     fit-margin-right="0"
     fit-margin-bottom="0"
     inkscape:zoom="1.18"
     inkscape:cx="55.175001"
     inkscape:cy="61.08302"
     inkscape:window-x="1665"
     inkscape:window-y="24"
     inkscape:window-maximized="1"
     inkscape:current-layer="g9" /><g
     id="Ebene_1"
     transform="translate(-44.825,-50.729005)"><rect
       x="-0.745"
       y="-65.246002"
       width="196.49001"
       height="65.247002"
       id="rect5"
       style="fill:none" /><text
       transform="translate(49.3799,-27.2461)"
       font-size="50"
       id="text7"
       style="font-size:50px;fill:#ffffff;font-family:OpenSans">BUS</text>
<g
       id="g9"><g
         id="g11"><g
           id="g13"><path
             d="m 100,51.73 c 29.922,0 54.176,24.256 54.176,54.178 0,29.918 -24.254,54.176 -54.176,54.176 -29.919,0 -54.175,-24.258 -54.175,-54.176 C 45.824,75.986 70.08,51.73 100,51.73 z"
             id="path15"
             inkscape:connector-curvature="0"
             style="fill:#f39c12" /><path
             d="m 100,161.083 c -30.424,0 -55.175,-24.751 -55.175,-55.176 0,-30.425 24.751,-55.178 55.175,-55.178 30.424,0 55.176,24.752 55.176,55.178 -10e-4,30.425 -24.753,55.176 -55.176,55.176 z M 100,52.73 c -29.321,0 -53.175,23.855 -53.175,53.178 0,29.321 23.854,53.176 53.175,53.176 29.321,0 53.176,-23.854 53.176,-53.176 C 153.175,76.585 129.321,52.73 100,52.73 z"
             id="path17"
             inkscape:connector-curvature="0"
             style="fill:#ffffff" /></g></g></g><g
       id="g19"><g
         id="g21"><path
           d="m 97.349,137.478 -13.669,-4.417 2.749,-8.507 -3.207,-2.359 -7.664,3.921 -6.246,-12.209 7.663,-3.921 -0.037,-3.98 -8.509,-2.748 4.415,-13.671 8.51,2.75 2.358,-3.207 -3.921,-7.664 12.209,-6.249 3.921,7.664 3.98,-0.038 2.749,-8.508 13.669,4.414 -2.749,8.51 3.207,2.359 7.665,-3.923 6.247,12.21 -7.663,3.921 0.037,3.98 8.509,2.75 -4.415,13.669 -8.51,-2.748 -2.358,3.207 3.921,7.662 -12.21,6.251 -3.921,-7.665 -3.981,0.037 -2.749,8.509 z m -9.892,-6.349 7.959,2.572 2.491,-7.713 7.998,-0.073 3.399,6.644 6.868,-3.516 -3.399,-6.643 4.738,-6.442 7.713,2.491 2.571,-7.96 -7.712,-2.493 -0.076,-7.996 6.644,-3.399 -3.513,-6.868 -6.644,3.401 -6.443,-4.739 2.491,-7.713 -7.959,-2.57 -2.491,7.711 -7.997,0.076 -3.399,-6.645 -6.867,3.514 3.398,6.645 -4.737,6.442 -7.713,-2.492 -2.571,7.961 7.712,2.49 0.075,7.997 -6.644,3.399 3.514,6.869 6.644,-3.399 6.442,4.738 -2.492,7.711 z"
           id="path23"
           inkscape:connector-curvature="0"
           style="fill:#ffffff" /></g><g
         id="g25"><path
           d="m 100,113.091 c -0.748,0 -1.491,-0.118 -2.208,-0.35 -3.769,-1.218 -5.844,-5.274 -4.626,-9.043 0.96,-2.976 3.707,-4.976 6.833,-4.976 0.749,0 1.492,0.118 2.209,0.35 1.826,0.59 3.312,1.855 4.186,3.563 0.874,1.708 1.03,3.653 0.44,5.478 -0.962,2.977 -3.708,4.978 -6.834,4.978 z m -0.002,-11.368 c -1.82,0 -3.419,1.165 -3.979,2.897 -0.709,2.195 0.5,4.558 2.694,5.267 0.419,0.135 0.852,0.204 1.287,0.204 1.82,0 3.418,-1.166 3.979,-2.899 0.343,-1.063 0.252,-2.196 -0.256,-3.19 -0.509,-0.995 -1.375,-1.731 -2.437,-2.075 -0.42,-0.135 -0.853,-0.204 -1.288,-0.204 z"
           id="path27"
           inkscape:connector-curvature="0"
           style="fill:#ffffff" /></g></g></g><g
     id="Detail"
     transform="translate(-44.825,-50.729005)" /></svg>