<?xml version="1.0" encoding="utf-8"?>
<!-- Generator: Adobe Illustrator 16.0.4, SVG Export Plug-In . SVG Version: 6.00 Build 0)  -->
<!DOCTYPE svg PUBLIC "-//W3C//DTD SVG 1.1//EN" "http://www.w3.org/Graphics/SVG/1.1/DTD/svg11.dtd">
<svg version="1.1" xmlns="http://www.w3.org/2000/svg" xmlns:xlink="http://www.w3.org/1999/xlink" x="0px" y="0px" width="200px"
	 height="200px" viewBox="0 0 200 200" enable-background="new 0 0 200 200" xml:space="preserve">
<g id="Ebene_1">
	<rect x="-0.745" y="-65.246" fill="none" width="196.49" height="65.247"/>
	<text transform="matrix(1 0 0 1 49.3799 -27.2461)" fill="#FFFFFF" font-family="'OpenSans'" font-size="50">BUS</text>
	<g>
		<g>
			<g>
				<path fill="#F39C12" d="M100,51.73c29.922,0,54.176,24.256,54.176,54.178c0,29.918-24.254,54.176-54.176,54.176
					c-29.919,0-54.175-24.258-54.175-54.176C45.824,75.986,70.08,51.73,100,51.73z"/>
				<path fill="#FFFFFF" d="M100,161.083c-30.424,0-55.175-24.751-55.175-55.176c0-30.425,24.751-55.178,55.175-55.178
					s55.176,24.752,55.176,55.178C155.175,136.332,130.423,161.083,100,161.083z M100,52.73c-29.321,0-53.175,23.855-53.175,53.178
					c0,29.321,23.854,53.176,53.175,53.176c29.321,0,53.176-23.854,53.176-53.176C153.175,76.585,129.321,52.73,100,52.73z"/>
			</g>
		</g>
	</g>
	<g>
		<g>
			<path fill="#FFFFFF" d="M97.349,137.478l-13.669-4.417l2.749-8.507l-3.207-2.359l-7.664,3.921l-6.246-12.209l7.663-3.921
				l-0.037-3.98l-8.509-2.748l4.415-13.671l8.51,2.75l2.358-3.207l-3.921-7.664L92,75.217l3.921,7.664l3.98-0.038l2.749-8.508
				l13.669,4.414l-2.749,8.51l3.207,2.359l7.665-3.923l6.247,12.21l-7.663,3.921l0.037,3.98l8.509,2.75l-4.415,13.669l-8.51-2.748
				l-2.358,3.207l3.921,7.662L108,136.597l-3.921-7.665l-3.981,0.037L97.349,137.478z M87.457,131.129l7.959,2.572l2.491-7.713
				l7.998-0.073l3.399,6.644l6.868-3.516l-3.399-6.643l4.738-6.442l7.713,2.491l2.571-7.96l-7.712-2.493L120.007,100l6.644-3.399
				l-3.513-6.868l-6.644,3.401l-6.443-4.739l2.491-7.713l-7.959-2.57l-2.491,7.711l-7.997,0.076l-3.399-6.645l-6.867,3.514
				l3.398,6.645l-4.737,6.442l-7.713-2.492l-2.571,7.961l7.712,2.49l0.075,7.997l-6.644,3.399l3.514,6.869l6.644-3.399l6.442,4.738
				L87.457,131.129z"/>
		</g>
		<g>
			<path fill="#FFFFFF" d="M100,113.091c-0.748,0-1.491-0.118-2.208-0.35c-3.769-1.218-5.844-5.274-4.626-9.043
				c0.96-2.976,3.707-4.976,6.833-4.976c0.749,0,1.492,0.118,2.209,0.35c1.826,0.59,3.312,1.855,4.186,3.563
				c0.874,1.708,1.03,3.653,0.44,5.478C105.872,111.09,103.126,113.091,100,113.091z M99.998,101.723
				c-1.82,0-3.419,1.165-3.979,2.897c-0.709,2.195,0.5,4.558,2.694,5.267c0.419,0.135,0.852,0.204,1.287,0.204
				c1.82,0,3.418-1.166,3.979-2.899c0.343-1.063,0.252-2.196-0.256-3.19c-0.509-0.995-1.375-1.731-2.437-2.075
				C100.866,101.792,100.433,101.723,99.998,101.723z"/>
		</g>
	</g>
</g>
<g id="Detail">
</g>
</svg>
