<?xml version="1.0" encoding="utf-8"?>
<!-- Generator: Adobe Illustrator 16.0.4, SVG Export Plug-In . SVG Version: 6.00 Build 0)  -->
<!DOCTYPE svg PUBLIC "-//W3C//DTD SVG 1.1//EN" "http://www.w3.org/Graphics/SVG/1.1/DTD/svg11.dtd">
<svg version="1.1" xmlns="http://www.w3.org/2000/svg" xmlns:xlink="http://www.w3.org/1999/xlink" x="0px" y="0px" width="200px"
	 height="200px" viewBox="0 0 200 200" enable-background="new 0 0 200 200" xml:space="preserve">
<g id="Ebene_1">
	<circle fill="#F39C12" cx="99.344" cy="76.654" r="17.189"/>
	<g>
		<path fill="#707980" d="M99.343,150.149c-11.378,0-20.635-9.257-20.635-20.635c0-11.38,9.257-20.638,20.635-20.638
			c11.379,0,20.637,9.258,20.637,20.638C119.979,140.893,110.722,150.149,99.343,150.149z M99.343,109.877
			c-10.827,0-19.635,8.809-19.635,19.638c0,10.827,8.808,19.635,19.635,19.635c10.828,0,19.637-8.808,19.637-19.635
			C118.979,118.686,110.17,109.877,99.343,109.877z"/>
	</g>
	<g>
		<path fill="#F39C12" d="M99.343,97.289c-11.378,0-20.635-9.257-20.635-20.635c0-11.38,9.257-20.638,20.635-20.638
			c11.379,0,20.637,9.258,20.637,20.638C119.979,88.032,110.722,97.289,99.343,97.289z M99.343,57.017
			c-10.827,0-19.635,8.809-19.635,19.638c0,10.827,8.808,19.635,19.635,19.635c10.828,0,19.637-8.808,19.637-19.635
			C118.979,65.826,110.17,57.017,99.343,57.017z"/>
	</g>
</g>
<g id="Detail">
</g>
</svg>
