<?xml version="1.0" encoding="utf-8"?>
<!-- Generator: Adobe Illustrator 16.0.4, SVG Export Plug-In . SVG Version: 6.00 Build 0)  -->
<!DOCTYPE svg PUBLIC "-//W3C//DTD SVG 1.1//EN" "http://www.w3.org/Graphics/SVG/1.1/DTD/svg11.dtd">
<svg version="1.1" xmlns="http://www.w3.org/2000/svg" xmlns:xlink="http://www.w3.org/1999/xlink" x="0px" y="0px" width="200px"
	 height="200px" viewBox="0 0 200 200" enable-background="new 0 0 200 200" xml:space="preserve">
<g id="Ebene_1">
	<g>
		<path fill="#FFFFFF" d="M82.678,76.097c-12.792,0-23.198-10.407-23.198-23.198c0-12.792,10.407-23.199,23.198-23.199h34.644
			c12.792,0,23.199,10.407,23.199,23.199c0,12.792-10.407,23.198-23.199,23.198H82.678z"/>
		<path fill="#F39C12" d="M117.321,30.199c12.517,0,22.699,10.183,22.699,22.699c0,12.516-10.183,22.698-22.699,22.698H82.678
			c-12.516,0-22.698-10.183-22.698-22.698c0-12.517,10.183-22.699,22.698-22.699H117.321 M117.321,29.199H82.678
			c-13.09,0-23.698,10.609-23.698,23.699c0,13.088,10.608,23.698,23.698,23.698h34.644c13.089,0,23.699-10.61,23.699-23.698
			C141.021,39.809,130.41,29.199,117.321,29.199L117.321,29.199z"/>
	</g>
	<circle fill="#F39C12" cx="116.632" cy="52.899" r="20.136"/>
	<g>
		<path fill="#FFFFFF" d="M117.322,144.327c12.792,0,23.198-10.407,23.198-23.199c0-12.792-10.407-23.199-23.198-23.199H82.679
			c-12.792,0-23.199,10.407-23.199,23.199c0,12.792,10.407,23.199,23.199,23.199H117.322z"/>
		<path fill="#707980" d="M82.679,98.429h34.644c12.516,0,22.698,10.183,22.698,22.699c0,12.516-10.183,22.698-22.698,22.698H82.679
			c-12.517,0-22.699-10.183-22.699-22.698C59.979,108.612,70.162,98.429,82.679,98.429 M82.679,97.429
			c-13.089,0-23.699,10.609-23.699,23.699c0,13.088,10.61,23.698,23.699,23.698h34.644c13.09,0,23.698-10.61,23.698-23.698
			c0-13.09-10.608-23.699-23.698-23.699H82.679L82.679,97.429z"/>
	</g>
	<circle fill="#707980" cx="83.368" cy="121.129" r="20.136"/>
</g>
<g id="Detail">
</g>
</svg>
