<?xml version="1.0" encoding="UTF-8" standalone="no"?>
<!-- Generator: Adobe Illustrator 16.0.4, SVG Export Plug-In . SVG Version: 6.00 Build 0)  -->

<svg
   xmlns:dc="http://purl.org/dc/elements/1.1/"
   xmlns:cc="http://creativecommons.org/ns#"
   xmlns:rdf="http://www.w3.org/1999/02/22-rdf-syntax-ns#"
   xmlns:svg="http://www.w3.org/2000/svg"
   xmlns="http://www.w3.org/2000/svg"
   xmlns:sodipodi="http://sodipodi.sourceforge.net/DTD/sodipodi-0.dtd"
   xmlns:inkscape="http://www.inkscape.org/namespaces/inkscape"
   version="1.1"
   x="0px"
   y="0px"
   width="80.75032"
   height="101.0625"
   viewBox="0 0 80.75032 101.0625"
   enable-background="new 0 0 200 200"
   xml:space="preserve"
   id="svg2"
   inkscape:version="0.48.4 r9939"
   sodipodi:docname="parcours_adler.svg"><metadata
     id="metadata16"><rdf:RDF><cc:Work
         rdf:about=""><dc:format>image/svg+xml</dc:format><dc:type
           rdf:resource="http://purl.org/dc/dcmitype/StillImage" /></cc:Work></rdf:RDF></metadata><defs
     id="defs14" /><sodipodi:namedview
     pagecolor="#ffffff"
     bordercolor="#666666"
     borderopacity="1"
     objecttolerance="10"
     gridtolerance="10"
     guidetolerance="10"
     inkscape:pageopacity="0"
     inkscape:pageshadow="2"
     inkscape:window-width="1855"
     inkscape:window-height="1056"
     id="namedview12"
     showgrid="false"
     fit-margin-top="0"
     fit-margin-left="0"
     fit-margin-right="0"
     fit-margin-bottom="0"
     inkscape:zoom="1.18"
     inkscape:cx="40.71875"
     inkscape:cy="56.15625"
     inkscape:window-x="1665"
     inkscape:window-y="24"
     inkscape:window-maximized="1"
     inkscape:current-layer="svg2" /><g
     id="Ebene_1"
     transform="translate(-59.28125,-55.09375)"><g
       id="g5"><path
         stroke-miterlimit="10"
         d="m 139.02,96.833 c -0.098,-22.5 -17.619,-40.741 -39.362,-40.741 -21.743,0 -39.364,18.241 -39.364,40.741 0,29.122 39.298,58.068 39.298,58.068 0,0 39.556,-28.946 39.428,-58.068 z"
         id="path7"
         inkscape:connector-curvature="0"
         style="fill:#d35400;stroke:#ffffff;stroke-width:2;stroke-miterlimit:10" /></g></g><g
     id="Detail"
     transform="translate(-59.28125,-55.09375)"><path
       clip-rule="evenodd"
       d="m 97.412,99.086 c 3.211,-1.294 7.588,-4.86 9.935,-8.345 3.718,-0.444 7.377,-2.123 10.732,-3.577 3.005,-1.299 6.522,-4.29 9.537,-1.987 -0.272,2.38 -3.604,1.699 -4.372,3.582 0.325,0.964 2.095,-0.79 2.782,0.396 0.115,2.364 -2.334,2.17 -3.577,3.177 -0.186,0.898 2.158,-0.914 2.385,0.397 0.116,1.971 -1.803,1.904 -2.782,2.784 -0.007,0.936 0.684,1.169 0.397,2.383 -2.097,1.708 -4.06,4.009 -7.153,4.772 -1.673,0.408 -3.381,-0.109 -4.768,0.396 -3.143,1.135 -3.713,4.746 -7.153,5.162 3.323,1.318 6.907,2.372 10.332,3.581 -0.228,1.493 -0.696,2.749 -2.384,2.78 0.987,1.75 -0.705,2.566 -1.988,3.182 -0.867,0.071 -1.264,-0.327 -1.191,-1.195 -0.246,0.942 -0.17,2.501 -2.387,2.384 -1.912,-0.205 -1.858,-2.375 -2.779,-3.577 -5.48,-7.502 -21.861,-4.103 -26.229,-12.712 -1.257,0.058 -2.399,0.011 -2.781,-0.797 2.087,-3.431 7.782,-2.248 11.524,-1.194 -0.418,-2.889 -2.566,-4.06 -3.974,-5.958 1.121,-6.222 -0.588,-15.586 0.396,-21.064 1.907,0.871 2.146,3.417 3.975,4.371 1.113,-0.611 0.505,-2.94 2.386,-2.781 0.703,1.697 1.353,2.166 0.793,4.366 0.69,1.292 1.042,-1.03 2.385,-0.396 0.69,1.353 -0.305,2.333 0,4.375 0.784,1.14 0.62,-1.999 2.386,-1.194 1.332,3.01 -0.723,5.837 -1.592,7.949 0.85,3.526 5.698,5.163 5.165,8.74 z"
       id="path10"
       inkscape:connector-curvature="0"
       style="fill:none;stroke:#ffffff;stroke-width:2;stroke-linecap:round;stroke-linejoin:round" /></g></svg>