<?xml version="1.0" encoding="UTF-8" standalone="no"?>
<!-- Generator: Adobe Illustrator 16.0.4, SVG Export Plug-In . SVG Version: 6.00 Build 0)  -->

<svg
   xmlns:dc="http://purl.org/dc/elements/1.1/"
   xmlns:cc="http://creativecommons.org/ns#"
   xmlns:rdf="http://www.w3.org/1999/02/22-rdf-syntax-ns#"
   xmlns:svg="http://www.w3.org/2000/svg"
   xmlns="http://www.w3.org/2000/svg"
   xmlns:sodipodi="http://sodipodi.sourceforge.net/DTD/sodipodi-0.dtd"
   xmlns:inkscape="http://www.inkscape.org/namespaces/inkscape"
   version="1.1"
   x="0px"
   y="0px"
   width="80.75032"
   height="101.0625"
   viewBox="0 0 80.75032 101.0625"
   enable-background="new 0 0 200 200"
   xml:space="preserve"
   id="svg2"
   inkscape:version="0.48.4 r9939"
   sodipodi:docname="parcours_bueste.svg"><metadata
     id="metadata16"><rdf:RDF><cc:Work
         rdf:about=""><dc:format>image/svg+xml</dc:format><dc:type
           rdf:resource="http://purl.org/dc/dcmitype/StillImage" /><dc:title></dc:title></cc:Work></rdf:RDF></metadata><defs
     id="defs14" /><sodipodi:namedview
     pagecolor="#ffffff"
     bordercolor="#666666"
     borderopacity="1"
     objecttolerance="10"
     gridtolerance="10"
     guidetolerance="10"
     inkscape:pageopacity="0"
     inkscape:pageshadow="2"
     inkscape:window-width="751"
     inkscape:window-height="480"
     id="namedview12"
     showgrid="false"
     fit-margin-top="0"
     fit-margin-left="0"
     fit-margin-right="0"
     fit-margin-bottom="0"
     inkscape:zoom="1.18"
     inkscape:cx="40.71875"
     inkscape:cy="56.15625"
     inkscape:window-x="2301"
     inkscape:window-y="172"
     inkscape:window-maximized="0"
     inkscape:current-layer="svg2" /><g
     id="Ebene_1"
     transform="translate(-59.28125,-55.09375)"><g
       id="g5"><path
         stroke-miterlimit="10"
         d="m 139.02,96.834 c -0.098,-22.5 -17.619,-40.741 -39.362,-40.741 -21.743,0 -39.364,18.241 -39.364,40.741 0,29.121 39.298,58.067 39.298,58.067 0,0 39.556,-28.946 39.428,-58.067 z"
         id="path7"
         inkscape:connector-curvature="0"
         style="fill:#d35400;stroke:#ffffff;stroke-width:2;stroke-miterlimit:10" /></g></g><g
     id="Detail"
     transform="translate(-59.28125,-55.09375)"><path
       clip-rule="evenodd"
       d="m 116.554,91.002 c -0.149,-0.411 -1.124,-0.636 -1.124,-0.636 0,0 0.074,-0.937 -2.099,-0.675 0,0 -0.037,-0.562 -0.299,-0.711 -0.262,-0.15 -1.461,-0.938 -4.197,-0.45 l -1.349,-0.3 c 0,0 0.039,-0.88 -0.299,-1.021 -0.338,-0.141 -0.646,-0.395 -0.787,-0.338 -0.141,0.056 -0.815,0.702 -1.742,0.73 0,0 -0.984,-0.337 -1.265,-0.618 0,0 2.077,-0.535 2.191,-1.489 0.085,-0.704 -0.168,-1.014 -0.168,-1.014 0,0 0.197,-0.243 0.384,-0.393 0.187,-0.15 0.15,-0.656 0,-0.712 0,0 0.375,-0.187 0.375,-0.487 0,-0.299 -0.244,-0.319 -0.262,-0.656 0,0 0.206,-0.112 0.487,-0.075 0.281,0.037 0.693,-0.131 0.824,-0.318 0.131,-0.188 0.225,-0.337 0.056,-0.731 -0.168,-0.393 -0.318,-1.068 -0.468,-1.705 -0.15,-0.637 -0.281,-1.03 -0.15,-1.424 0.131,-0.393 0.412,-0.581 0.394,-1.143 -0.019,-0.562 -0.505,-1.592 -0.581,-2.361 0,0 0.693,0.038 0.768,-0.618 0.075,-0.656 0.169,-0.824 0.244,-0.975 0.075,-0.149 0.094,-0.881 -0.074,-1.068 -0.169,-0.187 0.019,-0.711 -0.169,-0.88 -0.187,-0.168 -0.505,-0.487 -0.749,-0.525 -0.243,-0.038 -0.169,-0.281 -0.318,-0.3 -0.15,-0.018 -0.196,-0.271 -0.927,0.01 0,0 -0.337,-0.366 -0.759,-0.281 0,0 -0.478,-1.153 -1.349,-1.406 -0.871,-0.252 -1.349,-0.28 -1.827,-0.421 -0.478,-0.14 -2.052,-0.252 -3.119,-0.168 -1.068,0.084 -1.995,0.562 -2.361,0.73 -0.366,0.168 -1.377,0.478 -1.659,0.674 -0.282,0.196 -0.449,0.534 -0.562,0.702 -0.113,0.169 -0.76,0.647 -1.012,0.984 -0.252,0.336 -0.365,0.927 -0.393,1.208 -0.028,0.282 -0.394,0.843 -0.646,1.293 -0.253,0.449 -0.618,1.321 -0.562,1.713 0.057,0.395 -0.14,1.687 0.141,2.081 0.281,0.394 0.562,0.506 0.562,0.618 0,0.112 -0.112,0.506 -0.169,1.377 -0.057,0.871 0.196,0.898 0.196,0.898 0,0 -0.28,0.563 0.141,1.237 0,0 0.226,0.365 0.197,0.674 -0.028,0.309 0.506,0.843 0.955,0.675 0,0 -0.309,0.562 0.45,1.068 l 0.421,0.084 c 0,0 -0.099,1.914 -0.449,3.12 0,0 -0.506,0.168 -0.73,0.336 0,0 -0.703,-0.449 -1.124,-0.422 -0.422,0.029 -0.506,0.198 -0.759,0.253 -0.253,0.057 -0.422,0.028 -0.591,0.197 -0.168,0.168 -0.28,0.534 -0.28,0.673 0,0.141 -0.31,-0.084 -0.562,-0.084 -0.252,0 -0.562,0.169 -0.703,0.309 -0.141,0.141 -0.394,0.225 -0.619,0.282 -0.225,0.056 -0.506,0.562 -0.506,0.73 0,0.168 -0.168,0.197 -0.421,0.197 -0.253,0 -0.816,0.42 -0.984,0.673 -0.168,0.253 0.056,0.899 0.14,1.124 0.085,0.225 0.113,0.366 0.113,0.366 0,0 0.159,-0.02 -0.815,0.355 -0.975,0.375 -2.024,1.012 -2.624,1.687 0,0 0.3,5.246 3.261,8.319 0,0 0.824,-0.15 1.461,0 0,0 0.593,1.778 1.408,3.298 h -0.176 v 2.846 h 2.709 c 0.39,0.707 1.211,1.42 2.943,1.42 0,0 -0.253,1.899 1.139,1.899 0,0 0.887,5.319 -2.786,5.319 0,0 -2.786,-0.252 -2.786,2.026 0,0 -1.264,0.004 -1.484,1.064 h -1.984 v 3.375 h 25.931 v -3.375 h -1.983 c -0.221,-1.06 -1.484,-1.064 -1.484,-1.064 0,-2.279 -2.786,-2.026 -2.786,-2.026 -3.672,0 -2.786,-5.319 -2.786,-5.319 1.394,0 1.14,-1.899 1.14,-1.899 1.731,0 2.553,-0.713 2.942,-1.42 h 2.709 v -2.846 h -0.252 c 0.286,-0.733 1.03,-2.65 1.419,-3.785 0.487,-1.425 2.698,-2.586 3.447,-2.923 0.75,-0.337 1.237,-1.612 1.312,-2.436 l 0.562,-0.075 c -0.003,0.009 0.528,-2.765 -0.303,-5.051 z"
       id="path10"
       inkscape:connector-curvature="0"
       style="fill:none;stroke:#ffffff;stroke-width:2;stroke-linecap:round;stroke-linejoin:round" /></g></svg>