<?xml version="1.0" encoding="utf-8"?>
<!-- Generator: Adobe Illustrator 16.0.4, SVG Export Plug-In . SVG Version: 6.00 Build 0)  -->
<!DOCTYPE svg PUBLIC "-//W3C//DTD SVG 1.1//EN" "http://www.w3.org/Graphics/SVG/1.1/DTD/svg11.dtd">
<svg version="1.1" xmlns="http://www.w3.org/2000/svg" xmlns:xlink="http://www.w3.org/1999/xlink" x="0px" y="0px" width="200px"
	 height="200px" viewBox="0 0 200 200" enable-background="new 0 0 200 200" xml:space="preserve">
<g id="Ebene_1">
	<g>
		<path fill="#D35400" stroke="#FFFFFF" stroke-width="2" stroke-miterlimit="10" d="M139.363,96.834
			c-0.098-22.5-17.619-40.741-39.362-40.741S60.637,74.334,60.637,96.834c0,29.121,39.298,58.067,39.298,58.067
			S139.491,125.955,139.363,96.834z"/>
	</g>
	<path fill-rule="evenodd" clip-rule="evenodd" fill="#FFFFFF" d="M94.475,103.648c-0.457-1.073-1.488-3.135-1.812-3.797
		l-0.156-0.37l-10.265,2.173l0.157,0.602c0.069,0.259,0.149,0.619,0.256,1.034l0.091,0.436l0.021,0.01
		c0.505,1.868,1.38,4.522,2.497,5.541c0.839,0.784,1.959,1.323,3.493,1.5c0.312-0.01,1.948,0.024,3.73-0.603
		c1.61-0.562,2.428-1.347,2.618-2.274C95.417,106.368,95.067,105.045,94.475,103.648z M90.146,78.261
		c-0.999-1.253-3.418-2.135-5.688-2.135l-0.334,0.009c-1.443,0.056-2.889,0.449-4.073,1.288c-1.658,1.163-2.53,3.001-2.878,5.171
		c-0.67,4.243-0.457,5.633,1.117,10.309c0.54,1.578,2.206,4.509,3.158,6.122c0.042,0.125,0.246,0.74,0.482,1.56l10.187-2.164
		c-0.134-0.402-0.249-0.76-0.324-0.996c-0.228-1.277-0.561-3.669-0.113-4.801c0.659-1.656,1.467-4.309,1.467-6.838
		C93.134,82.281,92.285,80.912,90.146,78.261z M93.213,112.301c-1.971,0.692-3.74,0.714-4.321,0.725h-0.064l-0.161,0.015
		l-0.166-0.025c-1.893-0.223-3.482-0.918-4.736-2.068c-2.159-1.996-3.334-7.21-3.648-8.754l-0.313-1.578
		c-0.931-1.558-2.944-5.024-3.613-6.983c-1.634-4.836-1.972-6.582-1.214-11.397c0.485-2.974,1.763-5.226,3.799-6.656
		c1.453-1.033,3.277-1.61,5.258-1.688l0.426-0.014c2.51,0,5.766,0.92,7.41,2.965c2.376,2.954,3.492,4.802,3.492,8.945
		c0,3.12-1.008,6.145-1.609,7.676c-0.18,0.538,0.01,2.644,0.38,4.333l0.009,0.063l0.384,0.743c0.057,0.111,1.431,2.82,1.989,4.162
		c0.641,1.503,1.232,3.335,0.763,5.596C96.904,110.161,95.54,111.48,93.213,112.301z M120.489,97.146
		c-0.348-2.175-1.22-4.009-2.874-5.174c-1.188-0.838-2.635-1.229-4.076-1.289l-0.335-0.009c-2.275,0-4.688,0.881-5.688,2.136
		c-2.138,2.654-2.987,4.021-2.999,7.521c0,2.531,0.809,5.182,1.469,6.84c0.444,1.128,0.111,3.529-0.115,4.802
		c-0.079,0.237-0.191,0.597-0.322,0.998l10.185,2.161c0.233-0.818,0.437-1.436,0.483-1.559c0.951-1.61,2.616-4.54,3.154-6.125
		C120.947,102.776,121.16,101.385,120.489,97.146z M103.185,118.197c-0.595,1.4-0.938,2.721-0.63,4.254
		c0.191,0.928,1.01,1.711,2.621,2.271c1.778,0.629,3.416,0.596,3.729,0.605c1.533-0.179,2.652-0.716,3.491-1.501
		c1.119-1.015,1.994-3.669,2.498-5.539l0.024-0.014l0.085-0.435c0.109-0.412,0.189-0.771,0.259-1.028l0.157-0.605l-10.265-2.17
		l-0.156,0.367C104.671,115.064,103.643,117.121,103.185,118.197z M121.475,108.184c-0.673,1.957-2.685,5.425-3.613,6.982
		l-0.316,1.576c-0.315,1.545-1.486,6.76-3.652,8.752c-1.251,1.158-2.839,1.849-4.731,2.071l-0.171,0.025l-0.152-0.012h-0.068
		c-0.582-0.013-2.347-0.035-4.32-0.729c-2.325-0.816-3.694-2.137-4.062-3.938c-0.47-2.264,0.123-4.096,0.763-5.6
		c0.556-1.341,1.933-4.051,1.989-4.162l0.381-0.74l0.012-0.064c0.373-1.691,0.56-3.795,0.38-4.334
		c-0.602-1.531-1.608-4.554-1.608-7.68c0-4.14,1.117-5.985,3.487-8.94c1.646-2.048,4.903-2.969,7.413-2.969l0.423,0.013
		c1.984,0.078,3.808,0.66,5.263,1.69c2.037,1.43,3.316,3.685,3.795,6.659C123.442,101.597,123.11,103.346,121.475,108.184z"/>
</g>
<g id="Detail">
</g>
</svg>
