<?xml version="1.0" encoding="UTF-8" standalone="no"?>
<!-- Generator: Adobe Illustrator 16.0.4, SVG Export Plug-In . SVG Version: 6.00 Build 0)  -->

<svg
   xmlns:dc="http://purl.org/dc/elements/1.1/"
   xmlns:cc="http://creativecommons.org/ns#"
   xmlns:rdf="http://www.w3.org/1999/02/22-rdf-syntax-ns#"
   xmlns:svg="http://www.w3.org/2000/svg"
   xmlns="http://www.w3.org/2000/svg"
   xmlns:sodipodi="http://sodipodi.sourceforge.net/DTD/sodipodi-0.dtd"
   xmlns:inkscape="http://www.inkscape.org/namespaces/inkscape"
   version="1.1"
   x="0px"
   y="0px"
   width="80.75032"
   height="101.0625"
   viewBox="0 0 80.75032 101.0625"
   enable-background="new 0 0 200 200"
   xml:space="preserve"
   id="svg2"
   inkscape:version="0.48.4 r9939"
   sodipodi:docname="themenwege.svg"><metadata
     id="metadata28"><rdf:RDF><cc:Work
         rdf:about=""><dc:format>image/svg+xml</dc:format><dc:type
           rdf:resource="http://purl.org/dc/dcmitype/StillImage" /></cc:Work></rdf:RDF></metadata><defs
     id="defs26" /><sodipodi:namedview
     pagecolor="#ffffff"
     bordercolor="#666666"
     borderopacity="1"
     objecttolerance="10"
     gridtolerance="10"
     guidetolerance="10"
     inkscape:pageopacity="0"
     inkscape:pageshadow="2"
     inkscape:window-width="1855"
     inkscape:window-height="1056"
     id="namedview24"
     showgrid="false"
     fit-margin-top="0"
     fit-margin-left="0"
     fit-margin-right="0"
     fit-margin-bottom="0"
     inkscape:zoom="1.18"
     inkscape:cx="40.71875"
     inkscape:cy="56.15625"
     inkscape:window-x="1665"
     inkscape:window-y="24"
     inkscape:window-maximized="1"
     inkscape:current-layer="svg2" /><g
     id="Ebene_1"
     transform="translate(-59.28125,-55.09375)"><g
       id="g5"><path
         stroke-miterlimit="10"
         d="m 139.02,96.833 c -0.098,-22.5 -17.619,-40.741 -39.362,-40.741 -21.743,0 -39.364,18.242 -39.364,40.741 0,29.122 39.298,58.068 39.298,58.068 0,0 39.556,-28.945 39.428,-58.068 z"
         id="path7"
         inkscape:connector-curvature="0"
         style="fill:#d35400;stroke:#ffffff;stroke-width:2;stroke-miterlimit:10" /></g></g><g
     id="Detail"
     transform="translate(-59.28125,-55.09375)"><g
       id="g10"><g
         id="g12"><path
           d="m 104.609,78.944 h 11.938 l -0.154,4.061 h 2.524 l 0.2,-5.273 c 0.013,-0.343 -0.114,-0.676 -0.352,-0.922 -0.238,-0.248 -0.566,-0.387 -0.909,-0.387 h -14.558 c -0.343,0 -0.671,0.139 -0.909,0.387 -0.237,0.246 -0.364,0.58 -0.352,0.922 l 0.2,5.273 h 2.524 l -0.152,-4.061 z"
           id="path14"
           inkscape:connector-curvature="0"
           style="fill:#ffffff" /><path
           d="m 82.755,78.944 h 11.926 l -0.154,4.061 h 2.524 l 0.2,-5.273 C 97.264,77.389 97.137,77.056 96.899,76.81 96.661,76.562 96.333,76.423 95.99,76.423 H 81.45 c -0.342,0 -0.668,0.139 -0.904,0.387 -0.236,0.246 -0.363,0.58 -0.35,0.922 l 0.198,5.273 h 2.513 l -0.152,-4.061 z"
           id="path16"
           inkscape:connector-curvature="0"
           style="fill:#ffffff" /></g><g
         id="g18"><path
           d="m 101.327,98.719 h -3.363 c -0.697,0 -1.262,-0.563 -1.262,-1.261 0,-0.696 0.564,-1.261 1.262,-1.261 h 3.363 c 0.697,0 1.262,0.565 1.262,1.261 -0.001,0.697 -0.565,1.261 -1.262,1.261 z"
           id="path20"
           inkscape:connector-curvature="0"
           style="fill:#ffffff" /></g><path
         d="m 102.334,85.528 0.252,6.644 h -5.883 l 0.252,-6.644 H 80.491 l 0.85,22.478 c 0.025,0.678 0.578,1.214 1.254,1.214 h 0.517 v 6.427 c 0,0.697 0.562,1.261 1.256,1.261 h 8.407 c 0.696,0 1.262,-0.564 1.262,-1.261 v -6.427 h 0.807 c 0.678,0 1.234,-0.537 1.261,-1.214 l 0.199,-5.262 h 6.686 l 0.199,5.262 c 0.026,0.678 0.583,1.214 1.261,1.214 h 0.761 v 6.427 c 0,0.697 0.564,1.261 1.262,1.261 h 8.41 c 0.696,0 1.261,-0.564 1.261,-1.261 v -6.427 h 0.567 c 0.678,0 1.234,-0.537 1.261,-1.214 l 0.853,-22.478 h -16.491 z m -10.822,28.858 h -5.887 v -5.166 h 5.887 v 5.166 z m 2.667,-22.214 h -0.901 c -0.697,0 -1.262,0.564 -1.262,1.261 v 8.049 c 0,0.697 0.564,1.262 1.262,1.262 h 0.5 l -0.15,3.953 h -9.824 l -0.705,-18.65 h 11.237 l -0.157,4.125 z m 10.571,8.049 h -1.858 -6.494 -1.858 v -5.526 h 2.068 6.074 2.068 v 5.526 z m 8.869,14.165 h -5.888 v -5.166 h 5.888 v 5.166 z m 1.875,-7.689 h -9.831 l -0.15,-3.953 h 0.5 c 0.697,0 1.262,-0.565 1.262,-1.262 v -8.049 c 0,-0.697 -0.564,-1.261 -1.262,-1.261 h -0.901 l -0.156,-4.125 h 11.247 l -0.709,18.65 z"
         id="path22"
         inkscape:connector-curvature="0"
         style="fill:#ffffff" /></g></g></svg>