<?xml version="1.0" encoding="utf-8"?>
<!-- Generator: Adobe Illustrator 16.0.4, SVG Export Plug-In . SVG Version: 6.00 Build 0)  -->
<!DOCTYPE svg PUBLIC "-//W3C//DTD SVG 1.1//EN" "http://www.w3.org/Graphics/SVG/1.1/DTD/svg11.dtd">
<svg version="1.1" xmlns="http://www.w3.org/2000/svg" xmlns:xlink="http://www.w3.org/1999/xlink" x="0px" y="0px" width="200px"
	 height="200px" viewBox="0 0 200 200" enable-background="new 0 0 200 200" xml:space="preserve">
<g id="Ebene_1">
	<g>
		<path fill="#D35400" stroke="#FFFFFF" stroke-width="2" stroke-miterlimit="10" d="M139.02,96.833
			c-0.098-22.5-17.619-40.741-39.362-40.741S60.294,74.334,60.294,96.833c0,29.122,39.298,58.068,39.298,58.068
			S139.148,125.956,139.02,96.833z"/>
	</g>
</g>
<g id="Detail">
	<g>
		<g>
			<path fill="#FFFFFF" d="M104.609,78.944h11.938l-0.154,4.061h2.524l0.2-5.273c0.013-0.343-0.114-0.676-0.352-0.922
				c-0.238-0.248-0.566-0.387-0.909-0.387h-14.558c-0.343,0-0.671,0.139-0.909,0.387c-0.237,0.246-0.364,0.58-0.352,0.922l0.2,5.273
				h2.524L104.609,78.944z"/>
			<path fill="#FFFFFF" d="M82.755,78.944h11.926l-0.154,4.061h2.524l0.2-5.273c0.013-0.343-0.114-0.676-0.352-0.922
				c-0.238-0.248-0.566-0.387-0.909-0.387h-14.54c-0.342,0-0.668,0.139-0.904,0.387c-0.236,0.246-0.363,0.58-0.35,0.922l0.198,5.273
				h2.513L82.755,78.944z"/>
		</g>
		<g>
			<path fill="#FFFFFF" d="M101.327,98.719h-3.363c-0.697,0-1.262-0.563-1.262-1.261c0-0.696,0.564-1.261,1.262-1.261h3.363
				c0.697,0,1.262,0.565,1.262,1.261C102.588,98.155,102.024,98.719,101.327,98.719z"/>
		</g>
		<path fill="#FFFFFF" d="M102.334,85.528l0.252,6.644h-5.883l0.252-6.644H80.491l0.85,22.478c0.025,0.678,0.578,1.214,1.254,1.214
			h0.517v6.427c0,0.697,0.562,1.261,1.256,1.261h8.407c0.696,0,1.262-0.564,1.262-1.261v-6.427h0.807
			c0.678,0,1.234-0.537,1.261-1.214l0.199-5.262h6.686l0.199,5.262c0.026,0.678,0.583,1.214,1.261,1.214h0.761v6.427
			c0,0.697,0.564,1.261,1.262,1.261h8.41c0.696,0,1.261-0.564,1.261-1.261v-6.427h0.567c0.678,0,1.234-0.537,1.261-1.214
			l0.853-22.478H102.334z M91.512,114.386h-5.887v-5.166h5.887V114.386z M94.179,92.172h-0.901c-0.697,0-1.262,0.564-1.262,1.261
			v8.049c0,0.697,0.564,1.262,1.262,1.262h0.5l-0.15,3.953h-9.824l-0.705-18.65h11.237L94.179,92.172z M104.75,100.221h-1.858
			h-6.494H94.54v-5.526h2.068h6.074h2.068V100.221z M113.619,114.386h-5.888v-5.166h5.888V114.386z M115.494,106.697h-9.831
			l-0.15-3.953h0.5c0.697,0,1.262-0.565,1.262-1.262v-8.049c0-0.697-0.564-1.261-1.262-1.261h-0.901l-0.156-4.125h11.247
			L115.494,106.697z"/>
	</g>
</g>
</svg>
