<?xml version="1.0" encoding="utf-8"?>
<!-- Generator: Adobe Illustrator 16.0.4, SVG Export Plug-In . SVG Version: 6.00 Build 0)  -->
<!DOCTYPE svg PUBLIC "-//W3C//DTD SVG 1.1//EN" "http://www.w3.org/Graphics/SVG/1.1/DTD/svg11.dtd">
<svg version="1.1" xmlns="http://www.w3.org/2000/svg" xmlns:xlink="http://www.w3.org/1999/xlink" x="0px" y="0px" width="200px"
	 height="200px" viewBox="0 0 200 200" enable-background="new 0 0 200 200" xml:space="preserve">
<g id="Ebene_1">
	<g>
		<path fill="#D35400" stroke="#FFFFFF" stroke-width="2" stroke-miterlimit="10" d="M139.192,96.834
			c-0.098-22.5-17.619-40.741-39.362-40.741S60.466,74.334,60.466,96.834c0,29.121,39.298,58.067,39.298,58.067
			S139.32,125.955,139.192,96.834z"/>
	</g>
</g>
<g id="Detail">
	<g>
		<g>
			<path fill="#FFFFFF" d="M76.406,96.918h10.935c-0.072-0.769-0.065-1.534,0.004-2.291H76.406c-0.632,0-1.145,0.513-1.145,1.145
				C75.261,96.405,75.774,96.918,76.406,96.918z"/>
			<path fill="#FFFFFF" d="M112.24,96.918h11.012c0.632,0,1.145-0.513,1.145-1.146c0-0.632-0.513-1.145-1.145-1.145h-11.009
				C112.313,95.389,112.313,96.155,112.24,96.918z"/>
			<path fill="#FFFFFF" d="M93.969,84.691c0.336-0.176,0.679-0.343,1.035-0.491c0.356-0.146,0.716-0.273,1.08-0.386L93,76.366
				c-0.243-0.584-0.911-0.861-1.496-0.619c-0.584,0.241-0.861,0.912-0.619,1.496L93.969,84.691z"/>
			<path fill="#FFFFFF" d="M107.776,79.464c0.243-0.583-0.035-1.253-0.619-1.495c-0.582-0.242-1.254,0.035-1.496,0.619l-2.163,5.222
				c0.735,0.228,1.439,0.526,2.113,0.88L107.776,79.464z"/>
			<path fill="#FFFFFF" d="M82.626,89.881l5.229,2.166c0.227-0.729,0.52-1.438,0.875-2.115l-5.228-2.165
				c-0.583-0.243-1.254,0.034-1.496,0.618S82.043,89.639,82.626,89.881z"/>
			<path fill="#FFFFFF" d="M117.575,88.386c-0.242-0.584-0.911-0.862-1.496-0.618l-5.228,2.165c0.176,0.336,0.344,0.68,0.491,1.036
				c0.147,0.355,0.273,0.716,0.387,1.079l5.226-2.165C117.539,89.639,117.816,88.97,117.575,88.386z"/>
			<path fill="#FFFFFF" d="M100.883,83.301V72.199c0-0.632-0.512-1.145-1.145-1.145c-0.632,0-1.145,0.513-1.145,1.145v11.106
				c0.392-0.037,0.785-0.058,1.181-0.058C100.148,83.248,100.516,83.269,100.883,83.301z"/>
			<path fill="#FFFFFF" d="M90.163,87.784c0.483-0.585,1.02-1.133,1.61-1.628l-7.868-7.833c-0.447-0.446-1.173-0.444-1.618,0.004
				c-0.446,0.447-0.444,1.172,0.003,1.618L90.163,87.784z"/>
			<path fill="#FFFFFF" d="M109.447,87.804l7.887-7.808c0.449-0.445,0.454-1.17,0.008-1.62c-0.444-0.449-1.169-0.453-1.619-0.008
				l-7.892,7.813C108.415,86.671,108.958,87.209,109.447,87.804z"/>
			<path fill="#FFFFFF" d="M110.025,99.029c0.751-2.341,0.715-4.948-0.296-7.392c-1.672-4.035-5.577-6.642-9.952-6.642
				c-1.412,0-2.792,0.275-4.104,0.818c-5.27,2.184-7.873,8.098-6.047,13.423c0.673,0.404,1.665,0.821,2.911,0.889
				c-0.216-0.358-0.407-0.737-0.57-1.132c-1.787-4.314,0.269-9.278,4.582-11.064c1.033-0.428,2.119-0.645,3.228-0.645
				c3.445,0,6.521,2.053,7.836,5.229c1.061,2.561,0.759,5.346-0.558,7.564C108.028,99.942,109.021,99.595,110.025,99.029z"/>
			<path fill="#FFFFFF" d="M119.032,106.659c-6.764,4.965-11.568,0.317-11.771,0.115c-0.186-0.188-0.42-0.292-0.663-0.323
				c-0.008-0.001-0.018-0.001-0.025-0.002c-0.051-0.006-0.1-0.01-0.151-0.009c-0.236-0.001-0.474,0.068-0.68,0.219
				c-6.761,4.967-11.566,0.317-11.769,0.115c-0.186-0.186-0.419-0.29-0.661-0.323c-0.011-0.001-0.022-0.001-0.033-0.002
				c-0.049-0.006-0.098-0.01-0.146-0.009c-0.236-0.001-0.475,0.068-0.68,0.219c-6.762,4.965-11.567,0.317-11.771,0.115
				c-0.444-0.446-1.166-0.449-1.615-0.008c-0.45,0.444-0.455,1.169-0.012,1.619c0.042,0.042,2.877,2.841,7.263,2.841
				c1.976,0,4.27-0.581,6.763-2.227c1.113,0.836,3.43,2.227,6.525,2.227c1.976,0,4.271-0.582,6.763-2.227
				c1.113,0.835,3.431,2.227,6.527,2.227c2.167,0,4.714-0.684,7.489-2.721c0.51-0.375,0.619-1.091,0.245-1.601
				C120.258,106.394,119.542,106.285,119.032,106.659z"/>
		</g>
		<path fill="#FFFFFF" d="M127.316,100.093c-0.375-0.51-1.09-0.62-1.6-0.246c-6.764,4.966-11.568,0.317-11.771,0.115
			c-0.185-0.185-0.419-0.29-0.66-0.322c-0.011-0.001-0.022-0.002-0.033-0.003c-0.049-0.005-0.097-0.01-0.146-0.009
			c-0.235,0-0.474,0.069-0.678,0.219c-6.764,4.966-11.569,0.317-11.772,0.115c-0.185-0.185-0.418-0.29-0.661-0.322
			c-0.012-0.002-0.022-0.002-0.035-0.003c-0.047-0.005-0.094-0.01-0.141-0.009c-0.237-0.001-0.477,0.068-0.683,0.22
			c-6.754,4.961-11.559,0.325-11.769,0.116c-0.186-0.187-0.42-0.292-0.662-0.323c-0.009-0.001-0.019-0.001-0.027-0.003
			c-0.051-0.005-0.101-0.01-0.152-0.009c-0.235,0-0.473,0.069-0.678,0.219c-6.757,4.961-11.56,0.325-11.771,0.116
			c-0.445-0.448-1.167-0.45-1.616-0.008c-0.45,0.443-0.455,1.168-0.011,1.618c0.042,0.044,2.876,2.841,7.263,2.841
			c1.977,0,4.271-0.58,6.764-2.226c1.112,0.835,3.431,2.226,6.526,2.226c1.976,0,4.271-0.58,6.762-2.226
			c1.113,0.834,3.43,2.226,6.526,2.226c1.978,0,4.271-0.58,6.764-2.226c1.113,0.835,3.431,2.226,6.526,2.226
			c2.168,0,4.715-0.684,7.491-2.722C127.581,101.318,127.69,100.602,127.316,100.093z"/>
	</g>
</g>
</svg>
