<?xml version="1.0" encoding="UTF-8" standalone="no"?>
<svg
   xmlns:dc="http://purl.org/dc/elements/1.1/"
   xmlns:cc="http://creativecommons.org/ns#"
   xmlns:rdf="http://www.w3.org/1999/02/22-rdf-syntax-ns#"
   xmlns:svg="http://www.w3.org/2000/svg"
   xmlns="http://www.w3.org/2000/svg"
   id="svg2"
   xml:space="preserve"
   enable-background="new 0 0 200 200"
   viewBox="0 0 27.079 48.889"
   height="48.889"
   width="27.079"
   y="0px"
   x="0px"
   version="1.1"><metadata
     id="metadata14"><rdf:RDF><cc:Work
         rdf:about=""><dc:format>image/svg+xml</dc:format><dc:type
           rdf:resource="http://purl.org/dc/dcmitype/StillImage" /><dc:title></dc:title></cc:Work></rdf:RDF></metadata><defs
     id="defs12" /><g
     transform="translate(-81.984,-84.788)"
     id="Ebene_1" /><g
     transform="matrix(0.38852753,0,0,0.41425926,-25.102861,-20.899047)"
     id="Ebene_1-3"
     style="stroke:none"><rect
       style="fill:none;stroke:none"
       id="rect5"
       height="65.246002"
       width="196.49001"
       y="-65.246002"
       x="1.755" /><text
       style="font-size:50px;font-family:OpenSans;fill:#ffffff;stroke:none"
       id="text7"
       font-size="50"
       transform="translate(38.8794,-27.2461)">PIEDI</text>
<g
       transform="matrix(0.84555237,0,0,0.99956168,14.856047,0.26040939)"
       style="fill:#66ccff;fill-opacity:1;fill-rule:nonzero;stroke:none"
       id="g9"><path
         id="path11"
         transform="matrix(1.1826589,0,0,1.0004385,52.946399,54.857386)"
         d="M 39.787109,1.234375 C 21.402264,1.234375 6.5039062,19.467893 6.5039062,41.957031 6.5039062,71.066266 39.732422,100 39.732422,100 c 0,0 33.446121,-28.933734 33.33789,-58.042969 C 72.987448,19.467893 58.171955,1.234375 39.787109,1.234375 Z m 0.359375,16.09375 a 17.464748,17.625336 0 0 1 17.464844,17.626953 17.464748,17.625336 0 0 1 -17.464844,17.625 17.464748,17.625336 0 0 1 -17.464843,-17.625 17.464748,17.625336 0 0 1 17.464843,-17.626953 z"
         style="fill:#000000;fill-opacity:1;fill-rule:nonzero;stroke:none;stroke-width:1.83867538;stroke-miterlimit:10" /></g><ellipse
       ry="10.063427"
       rx="8.8857918"
       cy="87.211075"
       cx="92.063492"
       id="path4142"
       style="opacity:1;fill:none;stroke:none;stroke-width:5;stroke-miterlimit:4;stroke-dasharray:none;stroke-opacity:1" /></g></svg>