<?xml version="1.0" encoding="UTF-8" standalone="no"?>
<svg
   xmlns:dc="http://purl.org/dc/elements/1.1/"
   xmlns:cc="http://creativecommons.org/ns#"
   xmlns:rdf="http://www.w3.org/1999/02/22-rdf-syntax-ns#"
   xmlns:svg="http://www.w3.org/2000/svg"
   xmlns="http://www.w3.org/2000/svg"
   version="1.1"
   x="0px"
   y="0px"
   width="80.75032"
   height="101.0625"
   viewBox="0 0 80.75032 101.0625"
   enable-background="new 0 0 200 200"
   xml:space="preserve"
   id="svg2"><metadata
     id="metadata20"><rdf:RDF><cc:Work
         rdf:about=""><dc:format>image/svg+xml</dc:format><dc:type
           rdf:resource="http://purl.org/dc/dcmitype/StillImage" /><dc:title></dc:title></cc:Work></rdf:RDF></metadata><defs
     id="defs18" /><g
     id="Ebene_1"
     transform="translate(-59.625,-55.09375)"><rect
       x="1.755"
       y="-65.246002"
       width="196.49001"
       height="65.246002"
       id="rect5"
       style="fill:none" /><text
       transform="translate(38.8794,-27.2461)"
       font-size="50"
       id="text7"
       style="font-size:50px;fill:#ffffff;font-family:OpenSans">PIEDI</text>
<g
       id="g9"
       style="fill-rule:nonzero;fill:#66ccff;fill-opacity:1"><path
         stroke-miterlimit="10"
         d="m 139.363,96.833 c -0.098,-22.499 -17.619,-40.74 -39.362,-40.74 -21.743,0 -39.363,18.241 -39.363,40.74 0,29.122 39.298,58.068 39.298,58.068 0,0 39.555,-28.946 39.427,-58.068 z"
         id="path11"
         style="fill:#66ccff;stroke:#ffffff;stroke-width:2;stroke-miterlimit:10;fill-rule:nonzero;fill-opacity:1" /></g><ellipse
       ry="27.747511"
       rx="26.953018"
       cy="96.516411"
       cx="99.985176"
       id="path3352"
       style="opacity:1;fill:none;fill-opacity:1;stroke:#ffffff;stroke-width:5;stroke-miterlimit:4;stroke-dasharray:none;stroke-opacity:1" /><path
       style="opacity:1;fill:none;fill-opacity:1;stroke:#ffffff;stroke-width:5;stroke-miterlimit:4;stroke-dasharray:none;stroke-opacity:1"
       id="path4142"
       d="m 94.706271,81.72729 a 15.46972,9.3401769 0 0 1 15.469709,9.340175 15.46972,9.3401769 0 0 1 -15.469708,9.340175 l -10e-7,-9.340175 z" /><rect
       style="opacity:1;fill:#ffffff;fill-opacity:1;stroke:none;stroke-width:5;stroke-miterlimit:4;stroke-dasharray:none;stroke-opacity:1"
       id="rect4146"
       width="4.8439374"
       height="31.865257"
       x="92.275864"
       y="81.109573" /></g><g
     id="Detail"
     transform="translate(-59.625,-55.09375)" /><circle
     stroke-miterlimit="10"
     cx="63.433372"
     cy="17.341185"
     id="circle14"
     style="fill:#8faf30;stroke:#ffffff;stroke-width:1.3973887;stroke-miterlimit:10"
     r="16.670147" /></svg>