<?xml version="1.0" encoding="UTF-8" standalone="no"?>
<svg
   xmlns:dc="http://purl.org/dc/elements/1.1/"
   xmlns:cc="http://creativecommons.org/ns#"
   xmlns:rdf="http://www.w3.org/1999/02/22-rdf-syntax-ns#"
   xmlns:svg="http://www.w3.org/2000/svg"
   xmlns="http://www.w3.org/2000/svg"
   id="svg2"
   xml:space="preserve"
   enable-background="new 0 0 200 200"
   viewBox="0 0 80.75032 101.0625"
   height="101.0625"
   width="80.75032"
   y="0px"
   x="0px"
   version="1.1"><metadata
     id="metadata20"><rdf:RDF><cc:Work
         rdf:about=""><dc:format>image/svg+xml</dc:format><dc:type
           rdf:resource="http://purl.org/dc/dcmitype/StillImage" /><dc:title></dc:title></cc:Work></rdf:RDF></metadata><defs
     id="defs18" /><g
     transform="translate(-59.625,-55.09375)"
     id="Ebene_1"><rect
       style="fill:none"
       id="rect5"
       height="65.246002"
       width="196.49001"
       y="-65.246002"
       x="1.755" /><text
       style="font-size:50px;fill:#ffffff;font-family:OpenSans"
       id="text7"
       font-size="50"
       transform="translate(38.8794,-27.2461)">PIEDI</text>
<g
       style="fill-rule:nonzero;fill:#66ccff;fill-opacity:1"
       id="g9"><path
         style="fill:#66ccff;stroke:#ffffff;stroke-width:2;stroke-miterlimit:10;fill-rule:nonzero;fill-opacity:1"
         id="path11"
         d="m 139.363,96.833 c -0.098,-22.499 -17.619,-40.74 -39.362,-40.74 -21.743,0 -39.363,18.241 -39.363,40.74 0,29.122 39.298,58.068 39.298,58.068 0,0 39.555,-28.946 39.427,-58.068 z"
         stroke-miterlimit="10" /></g><ellipse
       style="opacity:1;fill:none;fill-opacity:1;stroke:#ffffff;stroke-width:5;stroke-miterlimit:4;stroke-dasharray:none;stroke-opacity:1"
       id="path3352"
       cx="99.985176"
       cy="96.516411"
       rx="26.953018"
       ry="27.747511" /><path
       d="m 94.706271,81.72729 a 15.46972,9.3401769 0 0 1 15.469709,9.340175 15.46972,9.3401769 0 0 1 -15.469708,9.340175 l -10e-7,-9.340175 z"
       id="path4142"
       style="opacity:1;fill:none;fill-opacity:1;stroke:#ffffff;stroke-width:5;stroke-miterlimit:4;stroke-dasharray:none;stroke-opacity:1" /><rect
       y="81.109573"
       x="92.275864"
       height="31.865257"
       width="4.8439374"
       id="rect4146"
       style="opacity:1;fill:#ffffff;fill-opacity:1;stroke:none;stroke-width:5;stroke-miterlimit:4;stroke-dasharray:none;stroke-opacity:1" /></g><g
     transform="translate(-59.625,-55.09375)"
     id="Detail" /><circle
     style="fill:#f28e1e;stroke:#ffffff;stroke-width:1.38846302;stroke-miterlimit:10"
     id="circle10"
     r="16.563669"
     cy="17.450407"
     cx="63.485237"
     stroke-miterlimit="10" /></svg>